<svg width="401" height="180" viewBox="0 0 401 180" fill="none" xmlns="http://www.w3.org/2000/svg">
<mask id="mask0" style="mask-type:alpha" maskUnits="userSpaceOnUse" x="0" y="-19" width="401" height="199">
<rect x="0.25" y="-18.75" width="399.778" height="198.5" fill="white" stroke="white" stroke-width="0.5"/>
</mask>
<g mask="url(#mask0)">
<mask id="mask1" style="mask-type:alpha" maskUnits="userSpaceOnUse" x="245" y="142" width="6" height="6">
<path fill-rule="evenodd" clip-rule="evenodd" d="M248.828 142.609L245.127 144.18L246.724 147.942L250.425 146.372L248.828 142.609Z" fill="white"/>
</mask>
<g mask="url(#mask1)">
<path fill-rule="evenodd" clip-rule="evenodd" d="M246.017 146.249C246.56 147.238 247.788 147.604 248.759 147.067C249.731 146.529 250.078 145.292 249.535 144.302C248.992 143.313 247.764 142.947 246.793 143.484C245.821 144.022 245.474 145.26 246.017 146.249Z" fill="#E4E6EF"/>
</g>
<path fill-rule="evenodd" clip-rule="evenodd" d="M231.207 144.405C231.753 145.4 232.99 145.767 233.97 145.226C234.949 144.684 235.301 143.438 234.754 142.444C234.208 141.449 232.971 141.082 231.992 141.624C231.012 142.165 230.661 143.41 231.207 144.405Z" fill="#E4E6EF"/>
<path fill-rule="evenodd" clip-rule="evenodd" d="M254.996 133.496C255.543 134.49 256.78 134.857 257.759 134.316C258.739 133.774 259.09 132.529 258.543 131.534C257.997 130.539 256.76 130.172 255.781 130.714C254.801 131.255 254.45 132.501 254.996 133.496Z" fill="#E4E6EF"/>
<mask id="mask2" style="mask-type:alpha" maskUnits="userSpaceOnUse" x="221" y="149" width="7" height="6">
<path fill-rule="evenodd" clip-rule="evenodd" d="M225.625 149.223L221.587 150.938L223.31 154.997L227.348 153.283L225.625 149.223Z" fill="white"/>
</mask>
<g mask="url(#mask2)">
<path fill-rule="evenodd" clip-rule="evenodd" d="M222.547 153.17C223.134 154.237 224.47 154.627 225.53 154.042C226.591 153.457 226.975 152.118 226.388 151.051C225.8 149.984 224.465 149.594 223.404 150.179C222.344 150.764 221.96 152.103 222.547 153.17Z" fill="#E4E6EF"/>
</g>
<path fill-rule="evenodd" clip-rule="evenodd" d="M247.819 145.448L247.853 145.399L256.594 132.572L256.432 132.455L247.723 145.235L232.633 143.408L232.6 143.441L224.018 152.013L224.156 152.156L232.706 143.618L247.819 145.448Z" fill="#E4E6EF"/>
<path fill-rule="evenodd" clip-rule="evenodd" d="M116.719 71.4246L110.318 91.005H114.188L120.59 71.4246H116.719Z" fill="#CED0DB"/>
<mask id="mask3" style="mask-type:alpha" maskUnits="userSpaceOnUse" x="100" y="73" width="8" height="17">
<path fill-rule="evenodd" clip-rule="evenodd" d="M100.414 73.7651H107.965V89.3781H100.414V73.7651Z" fill="white"/>
</mask>
<g mask="url(#mask3)">
<path fill-rule="evenodd" clip-rule="evenodd" d="M107.593 73.7651H103.417H100.785C100.58 73.7651 100.413 73.9297 100.413 74.1328V76.7351V86.4081V89.0103C100.413 89.2135 100.58 89.3781 100.785 89.3781H103.417H107.593C107.799 89.3781 107.965 89.2135 107.965 89.0103V86.7758C107.965 86.5727 107.799 86.4081 107.593 86.4081H103.417V76.7351H107.593C107.799 76.7351 107.965 76.5705 107.965 76.368V74.1328C107.965 73.9297 107.799 73.7651 107.593 73.7651Z" fill="#E4E6EF"/>
</g>
<mask id="mask4" style="mask-type:alpha" maskUnits="userSpaceOnUse" x="123" y="73" width="8" height="17">
<path fill-rule="evenodd" clip-rule="evenodd" d="M123.204 73.7651H130.756V89.3781H123.204V73.7651Z" fill="white"/>
</mask>
<g mask="url(#mask4)">
<path fill-rule="evenodd" clip-rule="evenodd" d="M130.384 73.7651H127.752H123.576C123.371 73.7651 123.204 73.9297 123.204 74.1328V76.368C123.204 76.5705 123.371 76.7351 123.576 76.7351H127.752V86.4081H123.576C123.371 86.4081 123.204 86.5727 123.204 86.7758V89.0103C123.204 89.2135 123.371 89.3781 123.576 89.3781H127.752H130.384C130.59 89.3781 130.756 89.2135 130.756 89.0103V86.7758V76.368V74.1328C130.756 73.9297 130.59 73.7651 130.384 73.7651Z" fill="#E4E6EF"/>
</g>
<mask id="mask5" style="mask-type:alpha" maskUnits="userSpaceOnUse" x="217" y="32" width="59" height="9">
<path fill-rule="evenodd" clip-rule="evenodd" d="M217.096 32.9723H275.335V40.194H217.096V32.9723Z" fill="white"/>
</mask>
<g mask="url(#mask5)">
<path fill-rule="evenodd" clip-rule="evenodd" d="M275.335 40.1939H217.096V35.009C217.096 33.8842 218.014 32.9723 219.146 32.9723H273.285C274.417 32.9723 275.335 33.8842 275.335 35.009V40.1939Z" fill="#393D65"/>
</g>
<mask id="mask6" style="mask-type:alpha" maskUnits="userSpaceOnUse" x="217" y="39" width="59" height="52">
<path fill-rule="evenodd" clip-rule="evenodd" d="M217.096 39.5866H275.335V90.1173H217.096V39.5866Z" fill="white"/>
</mask>
<g mask="url(#mask6)">
<path fill-rule="evenodd" clip-rule="evenodd" d="M273.285 90.1173H219.146C218.014 90.1173 217.096 89.2055 217.096 88.0807V39.5866H275.335V88.0807C275.335 89.2055 274.417 90.1173 273.285 90.1173Z" fill="#CED7EC"/>
</g>
<path fill-rule="evenodd" clip-rule="evenodd" d="M221.829 36.3331C221.829 37.039 221.253 37.6113 220.543 37.6113C219.832 37.6113 219.256 37.039 219.256 36.3331C219.256 35.6272 219.832 35.0549 220.543 35.0549C221.253 35.0549 221.829 35.6272 221.829 36.3331Z" fill="#A3B5D6"/>
<path fill-rule="evenodd" clip-rule="evenodd" d="M226.633 36.3331C226.633 37.039 226.057 37.6113 225.347 37.6113C224.636 37.6113 224.061 37.039 224.061 36.3331C224.061 35.6272 224.636 35.0549 225.347 35.0549C226.057 35.0549 226.633 35.6272 226.633 36.3331Z" fill="#CED7EC"/>
<path fill-rule="evenodd" clip-rule="evenodd" d="M231.437 36.3331C231.437 37.039 230.862 37.6113 230.151 37.6113C229.441 37.6113 228.865 37.039 228.865 36.3331C228.865 35.6272 229.441 35.0549 230.151 35.0549C230.862 35.0549 231.437 35.6272 231.437 36.3331Z" fill="#E2E7F2"/>
<path fill-rule="evenodd" clip-rule="evenodd" d="M223.391 83.2441C223.038 83.2441 222.751 82.9597 222.751 82.609V45.796C222.751 45.4453 223.038 45.161 223.391 45.161H269.676C270.03 45.161 270.316 45.4453 270.316 45.796V82.609C270.316 82.9597 270.03 83.2441 269.676 83.2441H223.391Z" fill="white"/>
<path fill-rule="evenodd" clip-rule="evenodd" d="M254.495 66.5321C251.717 66.5321 249.46 64.2802 249.46 61.4953C249.451 58.7282 251.7 56.4774 254.485 56.4678C254.489 56.4678 254.492 56.4678 254.495 56.4678C257.271 56.4678 259.528 58.7196 259.528 61.5031C259.523 64.2802 257.271 66.5305 254.495 66.5321ZM267.021 59.7436C266.923 59.1948 266.395 58.6334 265.842 58.5127L265.43 58.4186C264.43 58.1172 263.584 57.4482 263.063 56.5477C262.537 55.6382 262.381 54.5633 262.628 53.5432L262.757 53.1575C262.923 52.6227 262.708 51.8841 262.277 51.5188C262.277 51.5188 261.89 51.1926 260.805 50.5653C259.714 49.9412 259.247 49.7671 259.247 49.7671C258.717 49.5727 257.975 49.7593 257.587 50.1701L257.301 50.476C256.546 51.1934 255.541 51.5919 254.497 51.5878C253.446 51.5907 252.436 51.1888 251.678 50.4665L251.403 50.1686C251.021 49.7578 250.275 49.5758 249.743 49.7671C249.743 49.7671 249.269 49.9412 248.18 50.5653C247.09 51.1973 246.706 51.5235 246.706 51.5235C246.277 51.8857 246.062 52.6165 246.228 53.1575L246.346 53.5479C246.59 54.5666 246.434 55.639 245.911 56.5477C245.391 57.4556 244.537 58.1278 243.529 58.4232L243.133 58.5127C242.59 58.6381 242.055 59.1917 241.954 59.7436C241.954 59.7436 241.864 60.2392 241.864 61.4968C241.864 62.7544 241.954 63.2484 241.954 63.2484C242.052 63.8036 242.581 64.3586 243.133 64.4794L243.52 64.5688C244.53 64.8652 245.385 65.5395 245.905 66.4506C246.447 67.3962 246.579 68.4718 246.34 69.4551L246.228 69.8362C246.062 70.3709 246.277 71.1095 246.708 71.4749C246.708 71.4749 247.095 71.801 248.18 72.4283C249.271 73.0556 249.74 73.2265 249.74 73.2265C250.268 73.4209 251.012 73.2343 251.4 72.8235L251.671 72.5318C253.25 71.0311 255.737 71.0327 257.314 72.5349L257.585 72.8282C257.967 73.2375 258.714 73.4209 259.245 73.2296C259.245 73.2296 259.719 73.0556 260.809 72.4314C261.898 71.8042 262.28 71.478 262.28 71.478C262.711 71.1174 262.926 70.3803 262.76 69.8393L262.642 69.4441C262.397 68.4291 262.553 67.3597 263.077 66.4553C263.6 65.5471 264.454 64.8733 265.462 64.5735L265.85 64.4841C266.393 64.3586 266.928 63.8051 267.029 63.2531C267.029 63.2531 267.119 62.7576 267.119 61.5015C267.11 60.2423 267.021 59.7436 267.021 59.7436Z" fill="#A3B5D6"/>
<path fill-rule="evenodd" clip-rule="evenodd" d="M237.086 72.8964C235.849 73.5951 234.271 73.1602 233.561 71.9204C232.852 70.6909 233.28 69.123 234.518 68.4183L234.522 68.416C235.758 67.7177 237.336 68.1526 238.045 69.3918C238.751 70.6293 238.321 72.1975 237.086 72.8964ZM240.933 66.7238C240.75 66.5041 240.371 66.387 240.095 66.4722L239.887 66.5339C239.365 66.6514 238.818 66.5664 238.357 66.2966C237.891 66.0239 237.548 65.5845 237.397 65.0685L237.357 64.8642C237.294 64.5845 237.01 64.3096 236.726 64.2553C236.726 64.2553 236.47 64.2074 235.827 64.2013C235.183 64.1977 234.93 64.2377 234.93 64.2377C234.645 64.2845 234.362 64.5541 234.294 64.8348L234.245 65.0427C234.091 65.5519 233.745 65.9822 233.279 66.243C232.813 66.5085 232.26 66.5837 231.739 66.4528L231.541 66.3892C231.266 66.3024 230.887 66.4092 230.699 66.6281C230.699 66.6281 230.533 66.8247 230.207 67.3764C229.882 67.9321 229.795 68.1738 229.795 68.1738C229.696 68.443 229.787 68.8223 229.998 69.0214L230.15 69.1655C230.518 69.5578 230.722 70.0744 230.721 70.6105C230.721 71.1454 230.512 71.6593 230.138 72.0444L229.985 72.1839C229.775 72.3763 229.678 72.7574 229.774 73.0285C229.774 73.0285 229.86 73.2717 230.18 73.8316C230.501 74.3914 230.666 74.5887 230.666 74.5887C230.851 74.8112 231.228 74.9255 231.505 74.8403L231.7 74.7828C232.225 74.6607 232.778 74.7457 233.241 75.0208C233.723 75.3051 234.056 75.7512 234.2 76.2488L234.247 76.4466C234.31 76.7263 234.594 77.0011 234.878 77.0555C234.878 77.0555 235.134 77.1034 235.777 77.1095C236.422 77.1145 236.674 77.0727 236.674 77.0727C236.959 77.0264 237.243 76.7562 237.311 76.4757L237.357 76.2775C237.678 75.2125 238.785 74.5876 239.87 74.8599L240.066 74.9221C240.34 75.0083 240.719 74.9022 240.907 74.6833C240.907 74.6833 241.073 74.4867 241.4 73.9345C241.725 73.3814 241.812 73.1402 241.812 73.1402C241.912 72.8712 241.82 72.4891 241.608 72.29L241.455 72.1438C241.087 71.7534 240.884 71.2381 240.887 70.7036C240.888 70.168 241.097 69.6532 241.469 69.2661L241.619 69.1287C241.829 68.9362 241.926 68.5553 241.831 68.2841C241.831 68.2841 241.744 68.0409 241.424 67.4817C241.099 66.9235 240.933 66.7238 240.933 66.7238Z" fill="#CED7EC"/>
<path fill-rule="evenodd" clip-rule="evenodd" d="M235.009 51.6854H227.93C227.467 51.6854 227.089 51.3094 227.089 50.85V50.7799C227.089 50.3204 227.467 49.9445 227.93 49.9445H235.009C235.471 49.9445 235.849 50.3204 235.849 50.7799V50.85C235.849 51.3094 235.471 51.6854 235.009 51.6854Z" fill="#A3B5D6"/>
<path fill-rule="evenodd" clip-rule="evenodd" d="M233.028 55.7587H228.648C228.164 55.7587 227.772 55.369 227.772 54.8883C227.772 54.4076 228.164 54.0178 228.648 54.0178H233.028C233.512 54.0178 233.905 54.4076 233.905 54.8883C233.905 55.369 233.512 55.7587 233.028 55.7587Z" fill="#A3B5D6"/>
<path fill-rule="evenodd" clip-rule="evenodd" d="M220.812 106.105L222.96 88.3119C222.96 88.3119 228.832 73.2336 231.93 73.6225C234.869 74.3542 229.326 79.2704 228.748 83.3631C231.331 82.7768 230.771 86.7061 230.771 86.7061C230.771 86.7061 232.839 86.3092 232.791 89.4477C234.906 90.2494 233.945 93.9915 233.945 93.9915C233.945 93.9915 231.609 103.819 228.34 110.64C228.34 110.64 222.097 117.055 220.812 106.105Z" fill="#A08889"/>
<path fill-rule="evenodd" clip-rule="evenodd" d="M220.96 99.7343C220.96 99.7343 220.728 93.5661 220.788 90.3951C220.848 87.2241 218.646 81.8697 221.134 82.9817C222.807 83.7294 223.078 87.0818 223.418 89.532C223.758 91.9814 228.641 97.1313 226.346 101.61C224.795 104.636 221.719 105.496 220.96 99.7343Z" fill="#A08889"/>
<path d="M228.748 82.3019C228.748 82.3019 224.209 88.9226 227.183 89.6345" stroke="#7C5B4D" stroke-width="0.5625" stroke-linecap="round" stroke-linejoin="round"/>
<path d="M230.543 85.9235C230.543 85.9235 225.935 90.7961 228.225 91.7372C229.816 92.3906 231.404 89.4241 231.404 89.4241" stroke="#7C5B4D" stroke-width="0.5625" stroke-linecap="round" stroke-linejoin="round"/>
<path d="M232.132 88.951C231.676 89.0993 231.15 89.5646 230.559 90.5402C227.915 94.9011 231.032 94.8441 232.198 92.4359C230.193 98.7052 225.471 97.1122 225.256 102.76" stroke="#7C5B4D" stroke-width="0.5625" stroke-linecap="round" stroke-linejoin="round"/>
<path d="M222.993 86.4697L224.13 91.0561C224.13 91.0561 227.407 94.8468 226.221 98.0073" stroke="#7C5B4D" stroke-width="0.5625" stroke-linecap="round" stroke-linejoin="round"/>
<path fill-rule="evenodd" clip-rule="evenodd" d="M200.5 161.589C195.349 163.352 189.725 160.719 187.789 155.636L171.483 112.834C169.147 106.7 172.363 99.8537 178.578 97.7257C184.794 95.5977 191.54 99.0347 193.462 105.31L206.881 149.101C208.474 154.3 205.651 159.825 200.5 161.589Z" fill="#ADC6FF"/>
<path fill-rule="evenodd" clip-rule="evenodd" d="M184.432 269.176L202.475 187.162C203.936 180.521 210.758 176.481 217.357 178.349C223.731 180.152 227.383 186.768 225.477 193.053L201.064 273.57C201.064 273.57 193.381 275.584 184.432 269.176Z" fill="#253368"/>
<path fill-rule="evenodd" clip-rule="evenodd" d="M137.44 103.037C137.44 103.484 137.078 103.846 136.63 103.846C136.182 103.846 135.82 103.484 135.82 103.037C135.82 102.591 136.182 102.229 136.63 102.229C137.078 102.229 137.44 102.591 137.44 103.037Z" fill="#4E5C93"/>
<path fill-rule="evenodd" clip-rule="evenodd" d="M171.108 87.6237L172.113 74.9525L154.022 70.3331L150.827 86.2014C150.245 89.9874 152.913 93.9255 156.519 95.6464C156.892 95.8248 157.282 95.9898 157.686 96.1356C163.779 98.3386 170.905 93.801 171.108 87.6237Z" fill="#A08889"/>
<path fill-rule="evenodd" clip-rule="evenodd" d="M148.375 61.289C149.568 73.9133 158.259 80.0463 166.874 80.934C177.145 81.9929 179.951 73.5919 180.104 61.2045C180.26 48.6258 174.916 44.0421 165.249 43.2208C155.171 42.3656 147.167 48.5022 148.375 61.289Z" fill="#A08889"/>
<mask id="mask7" style="mask-type:alpha" maskUnits="userSpaceOnUse" x="146" y="42" width="33" height="34">
<path fill-rule="evenodd" clip-rule="evenodd" d="M146.987 42.8178H178.539V75.3698H146.987V42.8178Z" fill="white"/>
</mask>
<g mask="url(#mask7)">
<path fill-rule="evenodd" clip-rule="evenodd" d="M155.384 64.2818C155.141 63.2507 154.949 61.5349 153.361 60.7638C151.173 59.7014 149.047 62.1186 149.205 64.8565C149.397 68.1751 152.194 70.342 153.842 70.4514C153.485 73.6704 153.134 75.3698 153.134 75.3698C153.134 75.3698 149.711 71.5769 148.023 65.886C145.389 57.0069 147.351 45.494 158.858 43.1285C175.535 40.8852 178.539 51.5183 178.539 51.5183L159.617 50.1239L159.721 56.4742C159.721 56.4742 156.334 56.4599 156.572 63.9821L155.384 64.2818Z" fill="#604346"/>
</g>
<path d="M169.636 58.6155L163.739 58.3907L161.816 58.8613" stroke="#604346" stroke-width="0.75" stroke-linecap="round" stroke-linejoin="round"/>
<path fill-rule="evenodd" clip-rule="evenodd" d="M159.847 73.9972C162.2 71.3572 162.172 68.8837 171.124 69.5157C175.478 69.823 176.927 71.1942 178.276 74.4123C176.758 79.1701 172.165 81.9731 166.37 81.2542C154.197 79.7428 154.381 68.726 154.381 68.726C154.381 68.726 156.078 69.2152 156.579 70.0689C157.964 72.4306 158.928 73.0546 159.847 73.9972Z" fill="#7F6567"/>
<path fill-rule="evenodd" clip-rule="evenodd" d="M174.012 72.3228C174.012 72.3228 170.836 72.3228 166.016 71.578C166.016 71.578 166.606 73.6266 170.098 73.8588C172.839 74.0417 174.012 72.3228 174.012 72.3228Z" fill="white"/>
<path fill-rule="evenodd" clip-rule="evenodd" d="M174.012 72.3228C174.012 72.3228 170.836 72.3228 166.016 71.578C166.016 71.578 166.606 73.6266 170.098 73.8588C172.839 74.0417 174.012 72.3228 174.012 72.3228Z" stroke="#604346" stroke-width="0.75" stroke-linecap="round" stroke-linejoin="round"/>
<path d="M168.91 69.4562L173.651 69.6863C174.204 69.7132 174.647 69.2322 174.573 68.6837L173.536 60.9113L174.239 58.844" stroke="#604346" stroke-width="0.75" stroke-linecap="round" stroke-linejoin="round"/>
<path d="M170.898 75.4755L168.629 75.5641" stroke="#604346" stroke-width="0.75" stroke-linecap="round" stroke-linejoin="round"/>
<path d="M179.525 59.0262L174.52 58.8621" stroke="#604346" stroke-width="0.75" stroke-linecap="round" stroke-linejoin="round"/>
<path d="M170.606 81.1487C170.606 81.1487 165.224 82.4817 159.678 78.8694" stroke="#604346" stroke-width="0.75" stroke-linecap="round" stroke-linejoin="round"/>
<path d="M151.843 62.3542C151.843 62.3542 154.058 61.9384 154.058 65.1094C152.213 65.2682 152.4 66.6904 153.196 67.4487" stroke="#7C5B4D" stroke-width="0.5625" stroke-linecap="round" stroke-linejoin="round"/>
<path d="M178.212 64.4014C178.271 63.5308 177.641 62.7807 176.807 62.7245C175.972 62.6691 175.249 63.33 175.19 64.1999" stroke="#604346" stroke-width="0.75" stroke-linecap="round" stroke-linejoin="round"/>
<path d="M167.778 63.7056C167.836 62.8349 167.207 62.0849 166.372 62.0287C165.538 61.9732 164.815 62.6341 164.756 63.504" stroke="#604346" stroke-width="0.75" stroke-linecap="round" stroke-linejoin="round"/>
<path fill-rule="evenodd" clip-rule="evenodd" d="M127.619 162.412C144.228 166.283 166.066 165.255 173.463 162.201C176.685 160.871 176.715 158.479 175.76 154.416C175.76 154.416 185.95 119.503 187.406 98.6288C182.054 95.535 178.533 93.425 172.633 90.6541C170.794 89.7909 165.283 92.2089 162.917 91.7848C159.42 91.1584 154.004 86.5802 150.632 86.9301C138.001 88.2384 128.253 91.315 128.253 91.315C116 100.808 127.619 162.412 127.619 162.412Z" fill="#ADC6FF"/>
<path fill-rule="evenodd" clip-rule="evenodd" d="M171.195 86.8568L174.307 91.5264L167.863 100.155L161.491 91.3151L171.195 86.8568Z" fill="#ADC6FF"/>
<path fill-rule="evenodd" clip-rule="evenodd" d="M161.217 91.5216L151.131 84.0167L146.813 87.623L153.604 98.6286L161.217 91.5216Z" fill="#ADC6FF"/>
<path fill-rule="evenodd" clip-rule="evenodd" d="M166.279 98.3475L161.208 91.5814L155.294 97.2228L157.854 103.953L163.697 104.639L166.279 98.3475Z" fill="#4E5C93"/>
<path fill-rule="evenodd" clip-rule="evenodd" d="M163.732 104.471L157.949 103.921L151.088 144.884L159.519 158.826L168.813 145.935L163.732 104.471Z" fill="#4E5C93"/>
<path d="M174.01 91.5905L167.688 100.317L161.208 91.5815L153.603 98.6286L147.125 87.9399" stroke="#597EF7" stroke-width="0.75" stroke-linecap="round" stroke-linejoin="round"/>
<path d="M163.94 104.493L158.11 103.974" stroke="#597EF7" stroke-width="0.5" stroke-linecap="round" stroke-linejoin="round"/>
<path d="M184.674 115.844C179.378 140.26 175.537 155.017 175.537 155.017C175.537 155.017 178.364 160.995 172.195 162.834" stroke="#597EF7" stroke-width="0.75" stroke-linecap="round" stroke-linejoin="round"/>
<path fill-rule="evenodd" clip-rule="evenodd" d="M220.343 102.873L232.127 111.282L205.876 157.13C202.977 162.061 196.541 163.576 191.743 160.454C186.945 157.333 185.732 150.841 189.08 146.201L220.343 102.873Z" fill="#ADC6FF"/>
<path d="M228.002 117.593L217.134 109.278" stroke="#597EF7" stroke-width="0.75" stroke-linecap="round" stroke-linejoin="round"/>
<path fill-rule="evenodd" clip-rule="evenodd" d="M226.581 111.632C226.933 111.093 227.657 110.94 228.197 111.292C228.738 111.644 228.891 112.366 228.538 112.906C228.186 113.446 227.463 113.599 226.922 113.247C226.381 112.895 226.229 112.173 226.581 111.632Z" fill="white"/>
<path fill-rule="evenodd" clip-rule="evenodd" d="M128.288 167.514C128.288 167.514 168.791 170.613 171.645 166.576C172.901 164.798 178.555 178.799 180.857 193.446C177.146 200.145 139.449 210.982 129.731 190.765C126.583 184.214 127.83 170.753 128.288 167.514Z" fill="#4E5C93"/>
<path fill-rule="evenodd" clip-rule="evenodd" d="M171.983 162.623L172.705 167.798C172.705 167.798 168.657 168.498 154.514 169.221C140.167 169.953 128.327 168.299 128.327 168.299L127.83 162.623C127.83 162.623 151.491 163.678 171.983 162.623Z" fill="#12183F"/>
<path fill-rule="evenodd" clip-rule="evenodd" d="M166.318 167.326L166.331 163.648C166.334 162.612 165.496 161.79 164.505 161.865C162.13 162.044 157.932 162.289 154.882 162.068C153.885 161.996 153.053 162.844 153.081 163.886L153.18 167.643C153.204 168.521 153.837 169.247 154.672 169.361C156.657 169.632 160.482 169.922 164.915 169.07C165.723 168.914 166.315 168.183 166.318 167.326Z" fill="#F1F2F6"/>
<path fill-rule="evenodd" clip-rule="evenodd" d="M164.781 166.863L164.797 164.261C164.801 163.527 164.157 162.948 163.392 163.003C161.56 163.133 158.321 163.314 155.968 163.163C155.198 163.114 154.555 163.715 154.575 164.452L154.645 167.11C154.662 167.731 155.149 168.243 155.793 168.323C157.325 168.511 160.275 168.71 163.696 168.099C164.319 167.987 164.777 167.469 164.781 166.863Z" fill="#12183F"/>
<path fill-rule="evenodd" clip-rule="evenodd" d="M228.394 189.867C228.333 196.16 223.159 201.281 216.681 201.46L144.458 203.455C136.074 203.687 129.169 197.109 129.248 188.964C129.327 180.82 136.357 174.368 144.735 174.753L216.907 178.063C223.38 178.36 228.454 183.574 228.394 189.867Z" fill="#4E5C93"/>
<path fill-rule="evenodd" clip-rule="evenodd" d="M255.494 265.622L207.035 196.811C203.112 191.239 204.759 183.546 210.629 180.026C216.299 176.628 223.681 178.473 227.039 184.126L270.058 256.541C270.058 256.541 266.325 263.484 255.494 265.622Z" fill="#4E5C93"/>
<path d="M191.686 142.9L220.152 102.918C220.362 103.13 232.126 111.282 232.126 111.282" stroke="#597EF7" stroke-width="0.75" stroke-linecap="round" stroke-linejoin="round"/>
<path fill-rule="evenodd" clip-rule="evenodd" d="M112.235 155.58C107.104 153.76 104.343 148.204 105.995 143.022L119.904 99.3837C121.897 93.1308 128.68 89.7695 134.871 91.9672C141.063 94.1641 144.202 101.046 141.796 107.153L125.011 149.77C123.018 154.831 117.366 157.401 112.235 155.58Z" fill="#ADC6FF"/>
<mask id="mask8" style="mask-type:alpha" maskUnits="userSpaceOnUse" x="105" y="137" width="30" height="65">
<path fill-rule="evenodd" clip-rule="evenodd" d="M105.43 137.574H134.458V201.698H105.43V137.574Z" fill="white"/>
</mask>
<g mask="url(#mask8)">
<path fill-rule="evenodd" clip-rule="evenodd" d="M120.517 201.698L134.458 197.779L125.331 145.757C124.28 140.136 118.738 136.531 113.165 137.843C107.591 139.155 104.246 144.852 105.819 150.351L120.517 201.698Z" fill="#ADC6FF"/>
</g>
<path d="M137.355 120.845L125.667 147.963L134.167 197.749L120.84 201.4" stroke="#597EF7" stroke-width="0.75" stroke-linecap="round" stroke-linejoin="round"/>
<path d="M128.921 94.3347C128.921 94.3347 136.985 98.0662 136.985 109.037" stroke="#597EF7" stroke-width="0.75" stroke-linecap="round" stroke-linejoin="round"/>
<path fill-rule="evenodd" clip-rule="evenodd" d="M270.413 45.7344L269.293 44.6146L280.152 33.7245C280.524 33.3534 281.126 33.3534 281.497 33.7245L281.945 34.1724C282.317 34.5434 282.317 35.145 281.945 35.5161L271.758 45.7344C271.387 46.1054 270.785 46.1054 270.413 45.7344Z" fill="white"/>
<path fill-rule="evenodd" clip-rule="evenodd" d="M272.877 44.6146L271.756 45.7344C271.385 46.1054 270.783 46.1054 270.411 45.7344L265.949 41.2756C265.578 40.9046 265.578 40.303 265.949 39.9319L266.397 39.4841C266.769 39.113 267.371 39.113 267.742 39.4841L272.877 44.6146Z" fill="white"/>
</g>
</svg>
