<svg width="400" height="199" viewBox="0 0 400 199" fill="none" xmlns="http://www.w3.org/2000/svg">
<mask id="mask0" style="mask-type:alpha" maskUnits="userSpaceOnUse" x="0" y="0" width="400" height="199">
<rect x="0.25" y="0.25" width="399.5" height="198.5" fill="white" stroke="white" stroke-width="0.5"/>
</mask>
<g mask="url(#mask0)">
<mask id="mask1" style="mask-type:alpha" maskUnits="userSpaceOnUse" x="93" y="168" width="6" height="6">
<path fill-rule="evenodd" clip-rule="evenodd" d="M93.6597 168.291H98.5407V173.118H93.6597V168.291Z" fill="white"/>
</mask>
<g mask="url(#mask1)">
<path fill-rule="evenodd" clip-rule="evenodd" d="M98.5278 170.951C98.3902 172.277 97.1919 173.242 95.8513 173.106C94.5102 172.97 93.5347 171.785 93.6727 170.458C93.8102 169.133 95.0086 168.168 96.3492 168.304C97.6898 168.44 98.6653 169.625 98.5278 170.951Z" fill="#E4E6EF"/>
</g>
<path fill-rule="evenodd" clip-rule="evenodd" d="M114.204 162.114C114.066 163.447 112.858 164.417 111.506 164.28C110.154 164.144 109.171 162.952 109.309 161.618C109.449 160.285 110.657 159.315 112.008 159.452C113.359 159.589 114.343 160.781 114.204 162.114Z" fill="#E4E6EF"/>
<path fill-rule="evenodd" clip-rule="evenodd" d="M82.4424 161.232C82.3039 162.565 81.0955 163.535 79.7437 163.398C78.3923 163.261 77.4088 162.069 77.5478 160.736C77.6863 159.403 78.8947 158.433 80.2461 158.57C81.5979 158.706 82.5814 159.898 82.4424 161.232Z" fill="#E4E6EF"/>
<mask id="mask2" style="mask-type:alpha" maskUnits="userSpaceOnUse" x="122" y="164" width="7" height="6">
<path fill-rule="evenodd" clip-rule="evenodd" d="M122.729 164.776H128.055V169.984H122.729V164.776Z" fill="white"/>
</mask>
<g mask="url(#mask2)">
<path fill-rule="evenodd" clip-rule="evenodd" d="M128.041 167.646C127.891 169.076 126.583 170.117 125.12 169.97C123.657 169.823 122.593 168.545 122.743 167.114C122.893 165.683 124.201 164.643 125.664 164.79C127.127 164.937 128.191 166.215 128.041 167.646Z" fill="#E4E6EF"/>
</g>
<path fill-rule="evenodd" clip-rule="evenodd" d="M96.1334 170.912L96.0734 170.875L80.2188 160.965L80.3449 160.763L96.14 170.637L112.138 161.688L112.191 161.709L125.848 167.066L125.762 167.286L112.156 161.95L96.1334 170.912Z" fill="#E4E6EF"/>
<path fill-rule="evenodd" clip-rule="evenodd" d="M142.351 67.9849L136.751 85.5923H140.137L145.738 67.9849H142.351Z" fill="#CED0DB"/>
<mask id="mask3" style="mask-type:alpha" maskUnits="userSpaceOnUse" x="128" y="70" width="7" height="14">
<path fill-rule="evenodd" clip-rule="evenodd" d="M128.085 70.0501H134.692V83.827H128.085V70.0501Z" fill="white"/>
</mask>
<g mask="url(#mask3)">
<path fill-rule="evenodd" clip-rule="evenodd" d="M134.367 70.0501H130.713H128.41C128.231 70.0501 128.085 70.1953 128.085 70.3746V72.6708V81.2063V83.5025C128.085 83.6818 128.231 83.827 128.41 83.827H130.713H134.367C134.547 83.827 134.692 83.6818 134.692 83.5025V81.5308C134.692 81.3515 134.547 81.2063 134.367 81.2063H130.713V72.6708H134.367C134.547 72.6708 134.692 72.5256 134.692 72.3469V70.3746C134.692 70.1953 134.547 70.0501 134.367 70.0501Z" fill="#E4E6EF"/>
</g>
<mask id="mask4" style="mask-type:alpha" maskUnits="userSpaceOnUse" x="148" y="70" width="7" height="14">
<path fill-rule="evenodd" clip-rule="evenodd" d="M148.024 70.0501H154.631V83.827H148.024V70.0501Z" fill="white"/>
</mask>
<g mask="url(#mask4)">
<path fill-rule="evenodd" clip-rule="evenodd" d="M154.306 70.0501H152.004H148.35C148.17 70.0501 148.024 70.1953 148.024 70.3746V72.3469C148.024 72.5256 148.17 72.6708 148.35 72.6708H152.004V81.2063H148.35C148.17 81.2063 148.024 81.3515 148.024 81.5308V83.5025C148.024 83.6818 148.17 83.827 148.35 83.827H152.004H154.306C154.486 83.827 154.632 83.6818 154.632 83.5025V81.5308V72.3469V70.3746C154.632 70.1953 154.486 70.0501 154.306 70.0501Z" fill="#E4E6EF"/>
</g>
<path fill-rule="evenodd" clip-rule="evenodd" d="M261.37 90.3443H260.674C259.718 90.3443 258.936 89.5806 258.936 88.6467V75.0665C258.936 74.1326 259.718 73.3689 260.674 73.3689H261.37C262.326 73.3689 263.108 74.1326 263.108 75.0665V88.6467C263.108 89.5806 262.326 90.3443 261.37 90.3443Z" fill="#393D65"/>
<path fill-rule="evenodd" clip-rule="evenodd" d="M282.032 90.8514C282.032 91.9767 281.098 92.8886 279.945 92.8886H242.393C241.24 92.8886 240.306 91.9767 240.306 90.8514C240.306 89.7266 241.24 88.8143 242.393 88.8143H279.945C281.098 88.8143 282.032 89.7266 282.032 90.8514Z" fill="#393D65"/>
<mask id="mask5" style="mask-type:alpha" maskUnits="userSpaceOnUse" x="254" y="87" width="14" height="8">
<path fill-rule="evenodd" clip-rule="evenodd" d="M254.047 87.4104H267.998V94.2928H254.047V87.4104Z" fill="white"/>
</mask>
<g mask="url(#mask5)">
<path fill-rule="evenodd" clip-rule="evenodd" d="M266.955 94.2929H255.09C254.516 94.2929 254.047 93.8344 254.047 93.2743V88.4286C254.047 87.8685 254.516 87.4104 255.09 87.4104H266.955C267.528 87.4104 267.998 87.8685 267.998 88.4286V93.2743C267.998 93.8344 267.528 94.2929 266.955 94.2929Z" fill="#ADC6FF"/>
</g>
<path d="M255.779 88.414V93.2893" stroke="#597EF7" stroke-width="0.5" stroke-linecap="round" stroke-linejoin="round"/>
<path d="M266.092 88.414V93.2893" stroke="#597EF7" stroke-width="0.5" stroke-linecap="round" stroke-linejoin="round"/>
<mask id="mask6" style="mask-type:alpha" maskUnits="userSpaceOnUse" x="239" y="35" width="44" height="60">
<path fill-rule="evenodd" clip-rule="evenodd" d="M239.652 94.2928H282.686V35.7617H239.652V94.2928Z" fill="white"/>
</mask>
<g mask="url(#mask6)">
<path fill-rule="evenodd" clip-rule="evenodd" d="M241.608 81.2319H280.729V36.6121H241.608V81.2319Z" fill="#393D65"/>
<path fill-rule="evenodd" clip-rule="evenodd" d="M241.433 81.6168C240.453 81.6168 239.652 80.8346 239.652 79.8788V69.6037C239.652 68.6479 240.453 67.8657 241.433 67.8657H280.905C281.884 67.8657 282.686 68.6479 282.686 69.6037V79.8788C282.686 80.8346 281.884 81.6168 280.905 81.6168H241.433Z" fill="#ADC6FF"/>
<path fill-rule="evenodd" clip-rule="evenodd" d="M241.433 49.5131C240.453 49.5131 239.652 48.7309 239.652 47.7747V37.5C239.652 36.5442 240.453 35.7616 241.433 35.7616H280.905C281.884 35.7616 282.686 36.5442 282.686 37.5V47.7747C282.686 48.7309 281.884 49.5131 280.905 49.5131H241.433Z" fill="#ADC6FF"/>
<path fill-rule="evenodd" clip-rule="evenodd" d="M244.64 43.9411C243.903 43.9411 243.305 43.3572 243.305 42.6373C243.305 41.9175 243.903 41.3339 244.64 41.3339C245.378 41.3339 245.975 41.9175 245.975 42.6373C245.975 43.3572 245.378 43.9411 244.64 43.9411Z" fill="white"/>
<path fill-rule="evenodd" clip-rule="evenodd" d="M247.42 42.6373C247.42 41.9175 248.018 41.3339 248.756 41.3339C249.493 41.3339 250.091 41.9175 250.091 42.6373C250.091 43.3572 249.493 43.9411 248.756 43.9411C248.018 43.9411 247.42 43.3572 247.42 42.6373Z" fill="white"/>
<path fill-rule="evenodd" clip-rule="evenodd" d="M252.871 43.9411C252.133 43.9411 251.536 43.3572 251.536 42.6373C251.536 41.9175 252.133 41.3339 252.871 41.3339C253.608 41.3339 254.206 41.9175 254.206 42.6373C254.206 43.3572 253.608 43.9411 252.871 43.9411Z" fill="white"/>
<path fill-rule="evenodd" clip-rule="evenodd" d="M267.042 43.9411C266.838 43.9411 266.673 43.7802 266.673 43.5816V41.6934C266.673 41.4948 266.838 41.3339 267.042 41.3339H279.657C279.86 41.3339 280.025 41.4948 280.025 41.6934V43.5816C280.025 43.7802 279.86 43.9411 279.657 43.9411H267.042Z" fill="#597EF7"/>
<path fill-rule="evenodd" clip-rule="evenodd" d="M241.433 65.565C240.453 65.565 239.652 64.7827 239.652 63.8265V53.5519C239.652 52.596 240.453 51.8134 241.433 51.8134H280.905C281.884 51.8134 282.686 52.596 282.686 53.5519V63.8265C282.686 64.7827 281.884 65.565 280.905 65.565H241.433Z" fill="#ADC6FF"/>
<path fill-rule="evenodd" clip-rule="evenodd" d="M244.64 60.4588C243.903 60.4588 243.305 59.8752 243.305 59.155C243.305 58.4351 243.903 57.8515 244.64 57.8515C245.378 57.8515 245.975 58.4351 245.975 59.155C245.975 59.8752 245.378 60.4588 244.64 60.4588Z" fill="#FF7A46"/>
<path fill-rule="evenodd" clip-rule="evenodd" d="M248.756 60.4588C248.018 60.4588 247.42 59.8752 247.42 59.155C247.42 58.4351 248.018 57.8515 248.756 57.8515C249.493 57.8515 250.091 58.4351 250.091 59.155C250.091 59.8752 249.493 60.4588 248.756 60.4588Z" fill="#393D65"/>
<path fill-rule="evenodd" clip-rule="evenodd" d="M252.871 60.4588C252.133 60.4588 251.536 59.8752 251.536 59.155C251.536 58.4351 252.133 57.8515 252.871 57.8515C253.608 57.8515 254.206 58.4351 254.206 59.155C254.206 59.8752 253.608 60.4588 252.871 60.4588Z" fill="#393D65"/>
<path fill-rule="evenodd" clip-rule="evenodd" d="M279.58 60.4588H267.118C266.872 60.4588 266.673 60.2644 266.673 60.0242V58.2857C266.673 58.0459 266.872 57.8515 267.118 57.8515H279.58C279.826 57.8515 280.025 58.0459 280.025 58.2857V60.0242C280.025 60.2644 279.826 60.4588 279.58 60.4588Z" fill="#FF7A46"/>
<path fill-rule="evenodd" clip-rule="evenodd" d="M243.305 74.8372C243.305 74.1174 243.903 73.5338 244.64 73.5338C245.378 73.5338 245.975 74.1174 245.975 74.8372C245.975 75.5571 245.378 76.1411 244.64 76.1411C243.903 76.1411 243.305 75.5571 243.305 74.8372Z" fill="white"/>
<path fill-rule="evenodd" clip-rule="evenodd" d="M248.756 76.1411C248.018 76.1411 247.42 75.5571 247.42 74.8372C247.42 74.1174 248.018 73.5338 248.756 73.5338C249.493 73.5338 250.091 74.1174 250.091 74.8372C250.091 75.5571 249.493 76.1411 248.756 76.1411Z" fill="white"/>
<path fill-rule="evenodd" clip-rule="evenodd" d="M252.871 76.1411C252.133 76.1411 251.536 75.5571 251.536 74.8372C251.536 74.1174 252.133 73.5338 252.871 73.5338C253.608 73.5338 254.206 74.1174 254.206 74.8372C254.206 75.5571 253.608 76.1411 252.871 76.1411Z" fill="white"/>
<path fill-rule="evenodd" clip-rule="evenodd" d="M279.58 76.1411H267.118C266.872 76.1411 266.673 75.9463 266.673 75.7065V73.968C266.673 73.7282 266.872 73.5338 267.118 73.5338H279.58C279.826 73.5338 280.025 73.7282 280.025 73.968V75.7065C280.025 75.9463 279.826 76.1411 279.58 76.1411Z" fill="#597EF7"/>
</g>
<mask id="mask7" style="mask-type:alpha" maskUnits="userSpaceOnUse" x="270" y="20" width="40" height="41">
<path fill-rule="evenodd" clip-rule="evenodd" d="M270.113 20.5855H309.679V60.0646H270.113V20.5855Z" fill="white"/>
</mask>
<g mask="url(#mask7)">
<path fill-rule="evenodd" clip-rule="evenodd" d="M289.896 20.5855C278.97 20.5855 270.113 29.4231 270.113 40.325C270.113 51.2269 278.97 60.0646 289.896 60.0646C300.822 60.0646 309.679 51.2269 309.679 40.325C309.679 29.4231 300.822 20.5855 289.896 20.5855Z" fill="#FF4D4F"/>
</g>
<path fill-rule="evenodd" clip-rule="evenodd" d="M290.704 45.9649H289.997C289.412 45.9649 288.938 45.4915 288.938 44.9074V31.5127C288.938 30.9287 289.412 30.4552 289.997 30.4552H290.704C291.289 30.4552 291.764 30.9287 291.764 31.5127V44.9074C291.764 45.4915 291.289 45.9649 290.704 45.9649Z" fill="white"/>
<path fill-rule="evenodd" clip-rule="evenodd" d="M290.704 50.2998H289.997C289.412 50.2998 288.938 49.8264 288.938 49.2423V48.5373C288.938 47.9533 289.412 47.4799 289.997 47.4799H290.704C291.289 47.4799 291.764 47.9533 291.764 48.5373V49.2423C291.764 49.8264 291.289 50.2998 290.704 50.2998Z" fill="white"/>
<path fill-rule="evenodd" clip-rule="evenodd" d="M205.842 109.474C194.294 129.318 179.067 121.632 174.418 116.94C169.152 111.628 163.028 112.711 160.73 105.964C158.1 98.2436 163.785 92.8564 162.398 89.4193C158.044 76.0647 168.009 80.3428 165.997 72.0497C162.634 58.1913 164.803 58.3312 170.149 47.9915C176.527 35.6585 184.431 40.716 184.431 40.716C184.431 40.716 194.735 37.5469 200.288 51.2963C201.292 53.7825 204.833 55.0872 205.306 61.4777C206.514 77.7633 215.418 78.506 217.855 89.5151C220.398 101.008 209.652 102.662 205.842 109.474Z" fill="#253368"/>
<path fill-rule="evenodd" clip-rule="evenodd" d="M198.776 64.146C199.166 60.0769 196.207 60.7064 196.207 60.7064C196.207 60.7064 195.023 64.9861 195.125 68.3833C199.345 68.1643 198.776 64.146 198.776 64.146Z" fill="#F4B784"/>
<path fill-rule="evenodd" clip-rule="evenodd" d="M169.869 65.9324C168.98 61.9416 172.826 62.1506 172.826 62.1506C172.826 62.1506 174.529 66.253 174.846 69.636C170.631 69.9382 169.869 65.9324 169.869 65.9324Z" fill="#F4B784"/>
<path fill-rule="evenodd" clip-rule="evenodd" d="M185.995 93.128C182.289 93.357 179.135 90.4603 178.22 86.8025L177.9 72.4887L190.651 71.701L192.1 85.9449C192.475 89.636 189.702 92.8991 185.995 93.128Z" fill="#F4B784"/>
<path d="M184.63 73.3216L185.735 73.1793" stroke="#DD936F" stroke-width="0.639167" stroke-linecap="round" stroke-linejoin="round"/>
<path fill-rule="evenodd" clip-rule="evenodd" d="M196.033 63.4995C195.571 72.5711 191.8 78.4412 185.463 78.8334C179.125 79.2247 174.277 72.9216 173.083 64.9175C171.085 51.5354 177.156 47.4022 183.493 47.01C189.831 46.6187 196.738 49.6403 196.033 63.4995Z" fill="#FFC999"/>
<path fill-rule="evenodd" clip-rule="evenodd" d="M196.784 52.9225C195.041 47.567 192.049 42.2539 184.174 44.1498C174.253 39.5953 160.784 62.2405 169.802 62.6269C178.287 62.9907 176.904 56.4595 178.419 52.0216C179.812 47.9425 183.105 52.2023 183.105 52.2023C183.105 52.2023 184.655 50.2272 186.572 50.8134C189.785 51.7951 186.77 58.2389 194.973 61.6468C195.971 62.0623 195.471 67.5336 195.78 67.0773C197.216 64.9532 198.526 58.2763 196.784 52.9225Z" fill="#253368"/>
<path d="M175.129 57.5491L180.811 58.1911" stroke="#253368" stroke-width="0.833333" stroke-linecap="round" stroke-linejoin="round"/>
<path d="M186.068 57.8667L192.79 56.7709" stroke="#253368" stroke-width="0.833333" stroke-linecap="round" stroke-linejoin="round"/>
<path d="M181.636 58.8692L182.617 60.7935L182.729 67.6494L184.599 68.3163" stroke="#DD936F" stroke-width="0.639167" stroke-linecap="round" stroke-linejoin="round"/>
<path d="M176.666 63.3922C176.598 62.294 177.277 61.3581 178.182 61.3023C179.088 61.2457 179.877 62.0916 179.945 63.1899" stroke="#253368" stroke-width="0.833333" stroke-linecap="round" stroke-linejoin="round"/>
<path d="M187.907 62.6978C187.839 61.5995 188.518 60.6637 189.423 60.6079C190.329 60.5513 191.118 61.3972 191.186 62.4946" stroke="#253368" stroke-width="0.833333" stroke-linecap="round" stroke-linejoin="round"/>
<path fill-rule="evenodd" clip-rule="evenodd" d="M187.493 69.9386C184.723 70.1102 181.708 70.1393 181.708 70.1393C181.708 70.1393 182.275 72.3483 184.733 72.1959C187.427 72.0294 187.493 69.9386 187.493 69.9386Z" stroke="#B53026" stroke-width="0.833333" stroke-linecap="round" stroke-linejoin="round"/>
<path d="M184.163 74.3575L185.802 74.2559" stroke="#DD936F" stroke-width="0.639167" stroke-linecap="round" stroke-linejoin="round"/>
<path fill-rule="evenodd" clip-rule="evenodd" d="M197.09 67.1147C197.004 66.8899 196.679 66.9165 196.63 67.153C196.202 69.2379 195.25 74.8399 197.403 74.8374C199.831 74.834 197.878 69.168 197.09 67.1147Z" fill="white"/>
<path fill-rule="evenodd" clip-rule="evenodd" d="M172.786 68.6165C172.7 68.3917 172.375 68.4183 172.326 68.6548C171.898 70.7397 170.945 76.3417 173.099 76.3392C175.527 76.3359 173.574 70.6698 172.786 68.6165Z" fill="white"/>
<path fill-rule="evenodd" clip-rule="evenodd" d="M156.146 147.188C152.293 146.522 149.685 142.658 150.201 138.38L153.89 102.934C154.578 97.236 158.065 92.9638 162.637 94.0412C167.71 94.918 169.614 101.208 168.447 106.76L164.736 140.751C163.838 145.02 160.046 147.863 156.146 147.188Z" fill="#FFC999"/>
<path fill-rule="evenodd" clip-rule="evenodd" d="M167.354 122.22L152.003 118.258L153.149 103.482C155.131 94.0326 159.678 93.9985 165.553 92.7329L172.181 92.1575C177.707 93.0085 173.715 99.9635 172.766 105.467L167.354 122.22Z" fill="#597EF7"/>
<path d="M152.16 118.571L167.354 122.22L167.936 120.215" stroke="#1D39C4" stroke-width="0.625" stroke-linecap="round" stroke-linejoin="round"/>
<path fill-rule="evenodd" clip-rule="evenodd" d="M241.946 79.0294C239.735 75.6322 235.044 76.0935 231.309 78.2483L200.806 93.0959C195.831 95.9652 194.113 102.556 197.059 107.082C199.97 111.555 206.566 110.914 211.209 107.649L238.191 91.3765C246.795 84.4998 241.946 79.0294 241.946 79.0294Z" fill="#FFC999"/>
<path fill-rule="evenodd" clip-rule="evenodd" d="M220.438 102.473L214.885 86.0624L196.896 92.1573C191.735 94.3046 188.452 105.521 191.572 109.81L190.284 109.864C192.524 114.981 202.687 111.366 207.768 109.037L220.438 102.473Z" fill="#597EF7"/>
<path fill-rule="evenodd" clip-rule="evenodd" d="M153.098 248.761C153.965 215.18 155.597 173.745 158.656 166.409C158.656 166.409 162.41 161.979 173.673 169.012C186.804 177.213 185.615 189.174 185.615 189.174L185.779 249.912C185.511 254.353 185.046 268.144 167.884 268.144C150.991 268.144 153.079 249.493 153.098 248.761Z" fill="#CCD7EE"/>
<path fill-rule="evenodd" clip-rule="evenodd" d="M220.269 252.512C219.401 218.931 217.769 177.496 214.71 170.161C214.71 170.161 210.956 165.73 199.694 172.763C186.562 180.964 187.752 192.925 187.752 192.925L187.587 253.663C187.855 258.104 188.32 271.895 205.482 271.895C222.375 271.895 220.288 253.243 220.269 252.512Z" fill="#CCD7EE"/>
<path fill-rule="evenodd" clip-rule="evenodd" d="M216.587 179.303C216.587 179.303 215.594 160.079 202.714 150.048L168.292 149.921C168.292 149.921 156.439 160.476 156.439 180.241C156.439 180.241 162.459 181.401 169.45 185.946C174.01 188.91 179.108 192.978 187.074 192.978C195.196 192.978 199.458 189.285 204.073 186.258C210.924 181.766 216.587 179.303 216.587 179.303Z" fill="#CCD7EE"/>
<path fill-rule="evenodd" clip-rule="evenodd" d="M168.121 150.24L202.828 150.048L201.298 144.927L169.881 144.964L168.121 150.24Z" fill="#CCD7EE"/>
<path d="M201.724 149.965H169.179" stroke="#A3B5D6" stroke-width="0.625" stroke-linecap="round" stroke-linejoin="round"/>
<path d="M185.979 144.841V191.313" stroke="#A3B5D6" stroke-width="0.625" stroke-linecap="round" stroke-linejoin="round"/>
<path fill-rule="evenodd" clip-rule="evenodd" d="M201.902 90.5167C199.79 90.7515 196.26 91.4659 194.159 89.5791C192.916 88.4625 192.986 84.968 192.986 84.968L177.134 84.9172C177.134 84.9172 177.179 89.0604 175.936 90.1769C173.834 92.0645 168.349 92.0404 164.986 93.1977C159.107 95.221 160.689 106.28 163.192 113C163.771 114.554 162.773 117.482 163.74 119.642C164.713 121.816 166.191 124.448 166.778 125.855C168.705 130.477 168.309 135.455 169.554 139.648C169.554 139.648 167.572 143.477 170.699 145.032H200.737C204.488 143.321 201.883 139.648 201.883 139.648C203.07 135.646 202.349 132.42 204.109 126.559C204.461 125.387 205.784 123.529 206.912 121.049C208.672 117.181 208.26 113.482 208.085 112.532C206.36 103.176 207.842 89.8572 201.902 90.5167Z" fill="#597EF7"/>
<path d="M180.555 92.0575L189.967 91.5471" stroke="#1D39C4" stroke-width="0.625" stroke-linecap="round" stroke-linejoin="round"/>
<path d="M165.851 103.936C165.851 103.936 162.858 110.23 163.505 117.181C163.781 120.143 164.901 122.474 166.894 125.712C166.894 125.712 168.95 137.382 169.553 139.648C168.08 142.266 169.6 144.867 170.699 145.031H200.835C200.835 145.031 203.627 143.672 201.883 139.648C203.522 131.13 204.237 126.024 204.237 126.024C206.842 122.252 207.912 119.323 208.085 116.126C208.439 109.61 205.281 104.248 205.281 104.248" stroke="#1D39C4" stroke-width="0.625" stroke-linecap="round" stroke-linejoin="round"/>
<path d="M166.555 115.892H203.627" stroke="#1D39C4" stroke-width="0.625" stroke-linecap="round" stroke-linejoin="round"/>
<path d="M214.885 86.0624L220.203 102.473L207.767 109.272" stroke="#1D39C4" stroke-width="0.625" stroke-linecap="round" stroke-linejoin="round"/>
<path fill-rule="evenodd" clip-rule="evenodd" d="M160.675 178.997C158.476 171.621 151.688 152.256 150.165 141.741C150.165 141.741 148.858 135.666 157.086 134.591C165.11 133.543 165.416 144.789 165.416 144.789C166.681 157.404 168.708 171.362 169.62 178.377C169.62 178.377 169.952 182.159 166.129 183.522C161.592 185.139 160.675 178.997 160.675 178.997Z" fill="#FFC999"/>
<path fill-rule="evenodd" clip-rule="evenodd" d="M194.86 224.006L153.641 222.137C152.548 222.088 151.703 221.163 151.753 220.071L153.066 191.167C153.115 190.076 154.041 189.231 155.133 189.28L196.353 191.15C197.445 191.199 198.29 192.124 198.241 193.215L196.928 222.12C196.878 223.211 195.953 224.056 194.86 224.006Z" fill="#B53026"/>
<path fill-rule="evenodd" clip-rule="evenodd" d="M193.457 223.943L152.238 222.074C151.146 222.025 150.3 221.099 150.349 220.008L151.663 191.104C151.712 190.012 152.638 189.167 153.731 189.216L194.949 191.086C196.042 191.135 196.888 192.06 196.838 193.152L195.524 222.056C195.475 223.148 194.549 223.993 193.457 223.943Z" fill="#FF7A46"/>
<path fill-rule="evenodd" clip-rule="evenodd" d="M176.796 190.27C174.242 190.083 172.221 190.27 171.133 190.22C168.324 190.095 169.1 199.509 168.537 200.993C167.679 203.251 162.368 201.961 160.323 193.479C159.743 191.067 159.907 187.474 159.903 184.057C159.903 184.057 160.606 175.852 163.891 175.383C166.74 174.976 169.143 178.017 169.143 178.017C169.143 178.017 172.168 182.242 173.716 186.085L176.796 190.27Z" fill="#FFC999"/>
<path d="M166.561 192.687C166.561 192.687 165.892 196.627 166.548 200.909" stroke="#DD936F" stroke-width="0.625" stroke-linecap="round" stroke-linejoin="round"/>
<path d="M164.43 200.251C164.43 200.251 162.807 196.768 163.873 191.782" stroke="#DD936F" stroke-width="0.625" stroke-linecap="round" stroke-linejoin="round"/>
<path d="M161.471 190.149C161.471 190.149 161.198 192.651 161.786 196.77" stroke="#DD936F" stroke-width="0.625" stroke-linecap="round" stroke-linejoin="round"/>
<path fill-rule="evenodd" clip-rule="evenodd" d="M210.24 59.4213L202.778 54.2514C202.778 54.2514 199.345 45.2731 197.562 43.856C195.777 42.4388 193.42 42.6728 191.447 41.7494C189.475 40.8269 189.883 43.0233 192.343 44.3014C194.804 45.5804 195.815 45.4571 196.377 47.9942C196.938 50.5312 196.359 60.3705 199.977 62.0341C201.257 63.2489 201.782 63.3397 202.571 64.0482C204.291 65.5919 206.999 65.4046 208.403 63.5695C208.437 63.5253 208.472 63.4804 208.505 63.4346C209.955 61.4821 212.377 60.5836 210.24 59.4213Z" fill="#FFC999"/>
<path d="M191.186 41.5513C189.213 40.6288 189.621 42.8244 192.081 44.1034C194.542 45.3823 195.987 45.7961 196.549 48.334C196.881 49.8327 197.212 54.742 197.434 57.9459C197.611 60.5296 199.221 61.5171 201.589 63.244" stroke="#DD936F" stroke-width="0.5" stroke-linecap="round" stroke-linejoin="round"/>
<path fill-rule="evenodd" clip-rule="evenodd" d="M202.078 63.6227L206.319 56.8492L239.45 76.5477C242.998 78.6576 244.133 83.4361 241.943 87.0389C239.753 90.6417 234.503 91.6617 231.161 89.2146L202.078 63.6227Z" fill="#FFC999"/>
<path d="M229.867 88.3018L202.963 64.4651" stroke="#DD936F" stroke-width="0.625" stroke-linecap="round" stroke-linejoin="round"/>
</g>
</svg>
