<svg width="124" height="124" viewBox="0 0 124 124" fill="none" xmlns="http://www.w3.org/2000/svg">
<path d="M62.4227 122.964L16.7897 96.5712C14.1386 95.0372 14.471 92.3594 17.5334 90.5844L48.2266 72.83C51.289 71.0769 55.9262 70.8665 58.5773 72.3917L104.21 98.7844C106.861 100.323 106.529 103.001 103.467 104.771L72.769 122.526C69.7067 124.309 65.0782 124.498 62.4227 122.964Z" fill="#E9EAF2"/>
<path d="M86.6545 29.7611L41.5158 3.65323C40.2908 2.94762 39.1796 2.83366 38.3309 3.21496C38.2136 3.26818 38.1009 3.33123 37.9941 3.40342L33.2825 6.03305L36.7123 10.854V44.9779C36.7123 48.0458 38.8647 51.7798 41.5245 53.305L59.2073 63.5299L61.3596 69.0916L59.1023 78.9308L64.0939 76.1521L68.9717 69.1792L84.2833 78.0411L84.8214 82.6385L89.7649 79.8774C90.793 79.4392 91.4492 78.3216 91.4492 76.6298V38.097C91.4579 35.0291 89.3099 31.295 86.6545 29.7611Z" fill="#EDEEF7"/>
<path d="M81.6628 32.5397L36.5241 6.43181C33.873 4.89786 31.7119 6.14255 31.7119 9.21046V47.7784C31.7119 50.8463 33.8643 54.5803 36.5241 56.1055L54.2069 66.3304L59.0935 78.9526L63.9801 71.9841L81.6628 82.2134C84.3183 83.7473 86.4751 82.5026 86.4751 79.4347V40.8756C86.4663 37.8077 84.3271 34.0736 81.6628 32.5397Z" fill="#F8F9FF"/>
<path d="M68.7005 45.2583C68.4117 41.4278 66.1675 37.4702 63.3633 35.8442C61.4953 34.7661 59.7803 34.937 58.8179 36.2474C57.8642 33.8063 56.2237 31.7157 54.3819 30.6507C51.5777 29.0291 49.3334 30.3921 49.0447 33.8895C48.9735 34.7261 49.0311 35.5686 49.2153 36.3877C49.7009 38.8201 50.6292 41.1422 51.9539 43.2379L58.8223 54.4226L65.8219 51.2539C67.1999 50.6052 68.1449 49.3298 68.5517 47.5636C68.73 46.809 68.7803 46.0297 68.7005 45.2583Z" fill="#FF5757"/>
<ellipse opacity="0.05" cx="60.1915" cy="95.8218" rx="13.4742" ry="7.79247" fill="black"/>
</svg>
