<svg width="124" height="124" viewBox="0 0 124 124" fill="none" xmlns="http://www.w3.org/2000/svg">
<ellipse opacity="0.3" cx="57.9315" cy="98.5749" rx="38.9315" ry="22.4251" fill="#D6D8E5"/>
<ellipse cx="61.5399" cy="92.503" rx="38.9315" ry="22.4251" fill="#DD990E"/>
<path d="M22.625 92.8371V82.6226L30.3192 89.4545L22.625 92.8371Z" fill="#DD990E"/>
<path d="M100.471 82.8899V92.503L96.5448 96.6623L94.6191 85.6627L100.471 82.8899Z" fill="#DD990E"/>
<ellipse cx="61.5399" cy="82.8899" rx="38.9315" ry="22.4251" fill="#F9CB07"/>
<path d="M89.3616 83.5831C88.9681 87.3582 86.2722 91.0999 81.2571 93.973C70.3731 100.237 52.7241 100.237 41.84 93.973C36.8166 91.0832 34.1207 87.3582 33.7356 83.5831C33.2667 79.1649 35.971 74.6464 41.84 71.2806C52.7241 64.9999 70.3731 64.9999 81.2571 71.2806C87.1513 74.6464 89.8304 79.1649 89.3616 83.5831Z" fill="#CC8B09"/>
<path d="M89.3614 83.5831C88.9679 87.3582 86.272 91.0999 81.2569 93.973C70.3728 100.237 52.7239 100.237 41.8398 93.973C36.8164 91.0832 34.1205 87.3582 33.7354 83.5831C34.1205 79.808 36.8164 76.0663 41.8398 73.2016C52.7239 66.9209 70.3728 66.9209 81.2569 73.2016C86.3138 76.0913 88.9679 79.808 89.3614 83.5831Z" fill="#E8A30A"/>
<path fill-rule="evenodd" clip-rule="evenodd" d="M61.1385 78.3297C60.7963 78.3285 60.4545 78.3564 60.1171 78.4132C59.6566 78.48 59.1459 78.5719 58.5765 78.6888C58.0072 78.8057 57.4128 78.9644 56.8016 79.1482C56.2057 79.3253 55.6236 79.5458 55.0601 79.808L59.5226 82.3887L60.3599 82.1048C61.4985 81.7289 62.5702 81.4032 63.5832 81.1443C64.5299 80.8869 65.5006 80.7274 66.4801 80.6682C67.3714 80.6078 68.2668 80.6667 69.1425 80.8436C70.0426 81.0327 70.9054 81.3685 71.6961 81.8375C72.4693 82.2228 73.1318 82.7975 73.6217 83.5079C73.9455 84.0289 74.0479 84.657 73.9064 85.2535C73.7147 85.9086 73.3538 86.5019 72.8598 86.974C72.2439 87.5886 71.5583 88.1296 70.817 88.5859L73.6636 90.2563L72.0812 91.1333L69.2095 89.4629C67.8424 90.1382 66.4123 90.6781 64.9395 91.0748C63.3987 91.4988 61.8246 91.7921 60.2343 91.9518L58.7272 89.2708C59.1474 89.26 59.5666 89.2265 59.9831 89.1706C60.6136 89.0993 61.2397 88.9933 61.8585 88.8532C62.5534 88.7029 63.2818 88.5191 64.0521 88.2936C64.7993 88.067 65.5296 87.7879 66.2373 87.4584L61.7832 84.8943L61.2055 85.0948L60.5943 85.2785C59.4724 85.646 58.451 85.9383 57.5133 86.1137C56.6501 86.3137 55.7698 86.4311 54.8843 86.4645C54.1079 86.492 53.3312 86.419 52.5736 86.2474C51.8188 86.077 51.0936 85.7955 50.4219 85.4122C49.6875 85.0301 49.0515 84.4842 48.5632 83.8169C48.1964 83.321 48.0184 82.7112 48.0608 82.0964C48.1263 81.4568 48.383 80.8515 48.7976 80.3592C49.3073 79.7098 49.9178 79.1459 50.606 78.6888L47.9688 77.1688L49.5176 76.2751L52.1298 77.7784C53.3565 77.1744 54.645 76.7039 55.9727 76.3753C57.2356 76.0536 58.5198 75.8219 59.8157 75.6821L61.1385 78.3297ZM53.528 83.0151C54.1169 83.3507 54.7953 83.4966 55.4704 83.4327C56.3766 83.3265 57.2691 83.1249 58.1328 82.8314L53.9466 80.4177C52.4061 81.4199 52.2721 82.2885 53.528 83.0151ZM66.1284 83.8587C66.8511 83.7586 67.5871 83.8902 68.2299 84.2345C69.4355 84.9278 69.1508 85.8214 67.3927 86.8988L63.2065 84.5018C64.1606 84.2059 65.138 83.9908 66.1284 83.8587Z" fill="#CC8B09"/>
<path d="M58.7266 89.2875C58.7517 88.7867 58.7517 88.2849 58.7266 87.7841L60.4429 88.8782L59.6978 90.0141L58.7266 89.2875Z" fill="#CC8B09"/>
<path d="M73.6377 90.2396V88.7363L69.9287 89.0202L72.0553 90.4651L73.6377 90.2396Z" fill="#CC8B09"/>
<path d="M73.948 84.7106V83.1905L71.1768 84.1928L73.948 84.7106Z" fill="#CC8B09"/>
<path d="M62.4697 84.6354L63.3907 83.7501L66.6392 85.9968L66.4382 86.6566C66.4382 86.6566 64.0102 85.6293 63.9265 85.5709L62.4697 84.6354Z" fill="#CC8B09"/>
<path d="M53.9541 79.8915L58.2742 82.3303L59.1533 81.6872C59.1533 81.6872 58.6091 81.0691 58.5757 81.0107C58.186 80.5714 57.7314 80.194 57.2277 79.8915C56.9095 79.8247 54.8583 78.9143 54.8583 78.9143L53.9541 79.8915Z" fill="#CC8B09"/>
<path d="M61.1382 78.3297V76.8263L59.154 76.1832L58.7354 77.3692L58.8358 77.9037L61.1382 78.3297Z" fill="#CC8B09"/>
<path d="M47.9688 77.2439V75.7405L50.2628 75.9827L49.526 77.4443L47.9688 77.2439Z" fill="#CC8B09"/>
<path d="M48.0518 82.3553V80.7852H50.6891L50.0444 82.1883L48.8974 83.4411L48.0518 82.3553Z" fill="#CC8B09"/>
<path fill-rule="evenodd" clip-rule="evenodd" d="M61.1385 76.8263C60.7963 76.8251 60.4545 76.8531 60.1171 76.9098C59.6566 76.9766 59.1459 77.0685 58.5765 77.1854C58.0072 77.3024 57.4128 77.4527 56.8016 77.6364C56.2055 77.8163 55.6234 78.0396 55.0601 78.3046L59.531 80.877L60.3682 80.6014C61.5069 80.2172 62.5785 79.8998 63.5916 79.6326C64.54 79.3833 65.51 79.2239 66.4884 79.1565C67.3801 79.1029 68.275 79.1647 69.1508 79.3402C70.0493 79.5307 70.9114 79.8634 71.7044 80.3258C72.4774 80.7114 73.1399 81.286 73.6301 81.9962C73.9547 82.5168 74.0572 83.1453 73.9147 83.7417C73.7213 84.3961 73.3607 84.989 72.8682 85.4623C72.2539 86.0763 71.568 86.6146 70.8253 87.0658L73.6719 88.7362L72.0812 89.6299L69.2095 87.9595C67.8421 88.632 66.412 89.1691 64.9395 89.5631C63.3998 89.9938 61.8255 90.29 60.2343 90.4484L58.7272 87.7674C59.1474 87.7566 59.5666 87.7231 59.9831 87.6672C60.5441 87.6004 61.172 87.5001 61.8585 87.3498C62.545 87.1995 63.2818 87.0074 64.0521 86.7902C64.8006 86.5673 65.5311 86.2881 66.2373 85.955L61.7832 83.3993L61.2055 83.5998L60.5943 83.7835C59.4724 84.151 58.451 84.435 57.5133 84.6187C56.6501 84.8186 55.7698 84.9361 54.8843 84.9695C54.1078 85.0011 53.3305 84.9281 52.5736 84.7523C51.8186 84.5824 51.0934 84.3009 50.4219 83.9171C49.6875 83.5351 49.0515 82.9892 48.5632 82.3219C48.1978 81.8254 48.0199 81.216 48.0608 80.6014C48.1248 79.9613 48.3817 79.3557 48.7976 78.8642C49.3073 78.2147 49.9178 77.6508 50.606 77.1938L47.9688 75.6737L49.5176 74.7801L52.1298 76.2834C53.3563 75.6767 54.6447 75.2035 55.9727 74.8719C57.2373 74.5582 58.521 74.3267 59.8157 74.1787L61.1385 76.8263ZM53.528 81.5034C54.1154 81.8426 54.795 81.9887 55.4704 81.921C56.3765 81.8182 57.269 81.6194 58.1328 81.328L53.9466 78.9143C52.4061 79.9165 52.2721 80.7851 53.528 81.5034ZM66.1284 82.3553C66.8513 82.2485 67.5893 82.3805 68.2299 82.7312C69.4355 83.3937 69.1564 84.2818 67.3927 85.3954L63.2065 82.9984C64.1595 82.6985 65.1373 82.4833 66.1284 82.3553Z" fill="#F9CA06"/>
<ellipse cx="61.5399" cy="79.9249" rx="38.9315" ry="22.4251" fill="#DD990E"/>
<path d="M22.625 80.259V70.0445L30.3192 76.8764L22.625 80.259Z" fill="#DD990E"/>
<path d="M100.471 70.3118V79.9166L96.5448 84.0842L94.6191 73.0846L100.471 70.3118Z" fill="#DD990E"/>
<ellipse cx="61.5399" cy="70.3118" rx="38.9315" ry="22.4251" fill="#F9CB07"/>
<path d="M89.3616 71.005C88.9681 74.7801 86.2722 78.5218 81.2571 81.3948C70.3731 87.6588 52.7241 87.6588 41.84 81.3948C36.8166 78.5051 34.1207 74.7801 33.7356 71.005C33.2667 66.5868 35.971 62.0683 41.84 58.6941C52.7241 52.4218 70.3731 52.4218 81.2571 58.6941C87.1513 62.0683 89.8304 66.5868 89.3616 71.005Z" fill="#CC8B09"/>
<path d="M89.3614 71.005C88.9679 74.7801 86.272 78.5218 81.2569 81.3949C70.3728 87.6589 52.7239 87.6589 41.8398 81.3949C36.8164 78.5051 34.1205 74.7801 33.7354 71.005C34.1205 67.2299 36.8164 63.4882 41.8398 60.6235C52.7239 54.3428 70.3728 54.3428 81.2569 60.6235C86.3138 63.5132 88.9679 67.2299 89.3614 71.005Z" fill="#E8A30A"/>
<path fill-rule="evenodd" clip-rule="evenodd" d="M61.1385 65.7516C60.7963 65.7504 60.4545 65.7784 60.1171 65.8351C59.6566 65.9019 59.1459 65.9938 58.5765 66.1107C58.0072 66.2276 57.4128 66.3863 56.8016 66.5701C56.2057 66.7472 55.6236 66.9677 55.0601 67.2299L59.531 69.8107L60.3682 69.5267C61.5069 69.1508 62.5785 68.8251 63.5916 68.5662C64.5383 68.3089 65.509 68.1493 66.4884 68.0901C67.3798 68.0297 68.2752 68.0887 69.1508 68.2655C70.051 68.4546 70.9137 68.7904 71.7044 69.2594C72.4777 69.6447 73.1402 70.2194 73.6301 70.9298C73.9538 71.4508 74.0563 72.0789 73.9147 72.6754C73.7231 73.3305 73.3622 73.9238 72.8682 74.3959C72.2523 75.0105 71.5667 75.5515 70.8253 76.0078L73.6719 77.6782L72.0812 78.5552L69.2095 76.8848C67.8424 77.5601 66.4123 78.1 64.9395 78.4967C63.3987 78.9207 61.8246 79.214 60.2343 79.3737L58.7272 76.6927C59.1474 76.6819 59.5666 76.6484 59.9831 76.5925C60.6136 76.5212 61.2397 76.4152 61.8585 76.2751C62.5534 76.1248 63.2818 75.941 64.0521 75.7155C64.7993 75.4889 65.5296 75.2098 66.2373 74.8803L61.7832 72.3163L61.2055 72.5167L60.5943 72.7004C59.4724 73.0679 58.451 73.3603 57.5133 73.5356C56.6501 73.7356 55.7698 73.853 54.8843 73.8864C54.1079 73.9139 53.3312 73.8409 52.5736 73.6693C51.8188 73.4989 51.0936 73.2174 50.4219 72.8341C49.6875 72.452 49.0515 71.9061 48.5632 71.2388C48.1964 70.7429 48.0184 70.1331 48.0608 69.5183C48.1263 68.8787 48.383 68.2734 48.7976 67.7811C49.3073 67.1317 49.9178 66.5678 50.606 66.1107L47.9688 64.5907L49.5176 63.697L52.1298 65.2004C53.3565 64.5963 54.645 64.1258 55.9727 63.7972C57.2356 63.4755 58.5198 63.2438 59.8157 63.104L61.1385 65.7516ZM53.528 70.4371C54.1169 70.7726 54.7953 70.9185 55.4704 70.8547C56.3766 70.7484 57.2691 70.5468 58.1328 70.2533L53.9466 67.8396C52.4061 68.8418 52.2721 69.7104 53.528 70.4371ZM66.1284 71.2806C66.8513 71.1738 67.5893 71.3058 68.2299 71.6564C69.4355 72.3497 69.1508 73.2433 67.3927 74.3207L63.2065 71.9237C64.1606 71.6278 65.138 71.4127 66.1284 71.2806Z" fill="#CC8B09"/>
<path d="M58.7266 76.7094C58.7768 76.6008 58.7266 75.1977 58.7266 75.1977L60.4429 76.3002L59.6978 77.436L58.7266 76.7094Z" fill="#CC8B09"/>
<path d="M73.6377 77.6615V76.1581L69.9287 76.4338L72.0553 77.887L73.6377 77.6615Z" fill="#CC8B09"/>
<path d="M73.948 72.1325V70.6124L71.1768 71.6147L73.948 72.1325Z" fill="#CC8B09"/>
<path d="M62.4697 72.0323L63.3907 71.147L66.6392 73.3937L66.4382 74.0535C66.4382 74.0535 64.0102 73.0262 63.9265 72.9677L62.4697 72.0323Z" fill="#CC8B09"/>
<path d="M53.9541 67.3134L58.2742 69.7522L59.1533 69.1091C59.1533 69.1091 58.6091 68.491 58.5757 68.4326C58.186 67.9933 57.7314 67.616 57.2277 67.3134C56.9095 67.2466 54.8583 66.3362 54.8583 66.3362L53.9541 67.3134Z" fill="#CC8B09"/>
<path d="M61.1382 65.7516V64.2482L59.154 63.6051L58.7354 64.7827L58.8358 65.3256L61.1382 65.7516Z" fill="#CC8B09"/>
<path d="M47.9688 64.6658V63.1624L50.2628 63.4047L49.526 64.8663L47.9688 64.6658Z" fill="#CC8B09"/>
<path d="M48.0518 69.7772V68.2071H50.6891L50.0444 69.6102L48.8974 70.863L48.0518 69.7772Z" fill="#CC8B09"/>
<path fill-rule="evenodd" clip-rule="evenodd" d="M61.1385 64.2482C60.7963 64.247 60.4545 64.275 60.1171 64.3317C59.6566 64.3986 59.1459 64.4904 58.5765 64.6074C58.0072 64.7243 57.4128 64.8746 56.8016 65.0584C56.2055 65.2382 55.6234 65.4616 55.0601 65.7265L59.531 68.2989L60.3682 68.015C61.5069 67.6391 62.5785 67.3218 63.5916 67.0545C64.54 66.8052 65.51 66.6458 66.4884 66.5784C67.3801 66.5249 68.275 66.5866 69.1508 66.7622C70.0493 66.9526 70.9114 67.2854 71.7044 67.7477C72.4774 68.1333 73.1399 68.708 73.6301 69.4181C73.9547 69.9387 74.0572 70.5672 73.9147 71.1637C73.7213 71.818 73.3607 72.4109 72.8682 72.8842C72.2539 73.4982 71.568 74.0366 70.8253 74.4878L73.6719 76.1582L72.0812 77.0435L69.2095 75.3731C67.8421 76.0456 66.412 76.5827 64.9395 76.9767C63.3998 77.4073 61.8255 77.7035 60.2343 77.862L58.7272 75.1726C59.1474 75.1699 59.567 75.1392 59.9831 75.0808C60.5441 75.0139 61.172 74.9054 61.8585 74.7634C62.545 74.6214 63.2818 74.4209 64.0521 74.2038C64.7993 73.9771 65.5295 73.698 66.2373 73.3686L61.7832 70.8129L61.2055 71.0133L60.5943 71.1971C59.4724 71.5646 58.451 71.8485 57.5133 72.0323C56.6501 72.2322 55.7698 72.3497 54.8843 72.3831C54.1078 72.4147 53.3305 72.3416 52.5736 72.1659C51.8186 71.996 51.0934 71.7145 50.4219 71.3307C49.6875 70.9487 49.0515 70.4028 48.5632 69.7355C48.1978 69.2389 48.0199 68.6296 48.0608 68.015C48.1248 67.3749 48.3817 66.7692 48.7976 66.2778C49.3073 65.6283 49.9178 65.0644 50.606 64.6074L47.9688 63.0873L49.5176 62.1936L52.1298 63.697C53.3563 63.0903 54.6447 62.617 55.9727 62.2855C57.2373 61.9718 58.521 61.7402 59.8157 61.5923L61.1385 64.2482ZM53.528 68.9253C54.1154 69.2646 54.795 69.4107 55.4704 69.3429C56.3765 69.2401 57.269 69.0413 58.1328 68.7499L53.9466 66.3362C52.4061 67.3385 52.2721 68.2071 53.528 68.9253ZM66.1284 69.7772C66.8513 69.6705 67.5893 69.8025 68.2299 70.1531C69.4355 70.8491 69.1564 71.7372 67.3927 72.8174L63.2065 70.4203C64.1595 70.1204 65.1373 69.9052 66.1284 69.7772Z" fill="#F9CA06"/>
<ellipse cx="64.0682" cy="65.6681" rx="38.9315" ry="22.4251" fill="#DD990E"/>
<path d="M25.1455 66.0021V55.7876L32.8397 62.6196L25.1455 66.0021Z" fill="#DD990E"/>
<path d="M102.999 56.0549V65.668L99.0643 69.8273L97.1387 58.8278L102.999 56.0549Z" fill="#DD990E"/>
<ellipse cx="64.0682" cy="56.0549" rx="38.9315" ry="22.4251" fill="#F9CB07"/>
<path d="M91.8895 56.7481C91.4876 60.5316 88.7917 64.2649 83.7767 67.138C72.8926 73.402 55.2436 73.402 44.3595 67.138C39.3361 64.2482 36.6402 60.5316 36.2551 56.7481C35.7862 52.3299 38.4905 47.8115 44.3595 44.4456C55.2436 38.1649 72.8926 38.1649 83.7767 44.4456C89.6624 47.8115 92.35 52.3299 91.8895 56.7481Z" fill="#CC8B09"/>
<path d="M91.8893 56.7481C91.4874 60.5316 88.7915 64.2649 83.7765 67.138C72.8924 73.402 55.2434 73.402 44.3593 67.138C39.3359 64.2482 36.64 60.5316 36.2549 56.7481C36.64 52.973 39.3443 49.2313 44.3593 46.3666C55.2434 40.0859 72.8924 40.0859 83.7765 46.3666C88.825 49.2564 91.4874 52.973 91.8893 56.7481Z" fill="#E8A30A"/>
<path fill-rule="evenodd" clip-rule="evenodd" d="M63.6576 51.5031C63.3156 51.4983 62.9738 51.5235 62.6362 51.5782C62.1757 51.645 61.665 51.7369 61.0957 51.8538C60.5263 51.9708 59.9403 52.1295 59.3207 52.3132C58.7248 52.4903 58.1428 52.7108 57.5793 52.973L62.0501 55.5538L62.8873 55.2698C64.026 54.894 65.0977 54.5682 66.1107 54.3093C67.0575 54.0526 68.0282 53.8931 69.0075 53.8333C69.9017 53.7726 70.7999 53.8316 71.6783 54.0086C72.5624 54.2072 73.4099 54.5425 74.19 55.0025C74.9633 55.3878 75.6258 55.9626 76.1157 56.6729C76.443 57.1925 76.5457 57.8222 76.4004 58.4185C76.2121 59.0751 75.8507 59.6692 75.3538 60.139C74.7396 60.7555 74.0538 61.2967 73.3109 61.7509L76.1576 63.4213L74.5919 64.2983L71.7202 62.6279C70.3532 63.3033 68.923 63.8432 67.4503 64.2398C65.9094 64.6638 64.3354 64.9571 62.745 65.1168L61.2464 62.4358C61.6665 62.425 62.0857 62.3915 62.5022 62.3356C63.1326 62.2636 63.7587 62.1577 64.3776 62.0182C65.0642 61.8679 65.7926 61.6841 66.5628 61.4586C67.311 61.2348 68.0414 60.9556 68.748 60.6234L64.2939 58.0594L63.7162 58.2598L63.105 58.4436C61.9831 58.811 60.9617 59.1034 60.024 59.2788C59.1636 59.4781 58.2861 59.5956 57.4034 59.6295C56.6242 59.657 55.8448 59.584 55.0843 59.4124C54.3317 59.2433 53.6091 58.9618 52.941 58.5772C52.2067 58.1954 51.5684 57.6529 51.0739 56.9903C50.7155 56.4872 50.5384 55.8778 50.5716 55.2614C50.6372 54.6243 50.894 54.0218 51.3084 53.5326C51.8225 52.8872 52.4323 52.324 53.1168 51.8622L50.4795 50.3421L52.0284 49.4485L54.6489 50.9518C55.8761 50.3487 57.1644 49.8784 58.4919 49.5487C59.7544 49.2255 61.0387 48.9939 62.3348 48.8555L63.6576 51.5031ZM56.0471 56.1802C56.636 56.5157 57.3144 56.6616 57.9895 56.5978C58.8992 56.4957 59.7949 56.2941 60.6603 55.9964L56.4741 53.5827C54.9336 54.5849 54.7913 55.4452 56.0471 56.1635V56.1802ZM68.6559 57.0237C69.3759 56.9242 70.109 57.0558 70.749 57.3996C71.9546 58.0928 71.67 58.9864 69.9118 60.0638L65.7256 57.6668C66.6825 57.3708 67.6628 57.1557 68.6559 57.0237Z" fill="#CC8B09"/>
<path d="M61.2549 62.4525C61.2967 62.3439 61.2549 60.9492 61.2549 60.9492L62.9294 62.0433L62.1842 63.1875L61.2549 62.4525Z" fill="#CC8B09"/>
<path d="M76.1582 63.4047V61.9013L72.4492 62.1853L74.5842 63.6302L76.1582 63.4047Z" fill="#CC8B09"/>
<path d="M76.4675 57.8756V56.3556L73.6963 57.3578L76.4675 57.8756Z" fill="#CC8B09"/>
<path d="M64.9893 57.8339L65.9102 56.9485L69.1587 59.1952L68.9578 59.855C68.9578 59.855 66.5298 58.8361 66.4461 58.7693L64.9893 57.8339Z" fill="#CC8B09"/>
<path d="M56.4824 53.0565L60.7942 55.4953L61.6733 54.8522C61.6733 54.8522 61.1375 54.2342 61.0956 54.1757C60.7078 53.7345 60.2529 53.3569 59.7476 53.0565C59.4295 52.9981 57.3783 52.0793 57.3783 52.0793L56.4824 53.0565Z" fill="#CC8B09"/>
<path d="M63.6578 51.5031V49.9913L61.6735 49.3482L61.2549 50.5342L61.3554 51.0687L63.6578 51.5031Z" fill="#CC8B09"/>
<path d="M50.4883 50.4089V48.9056L52.7823 49.1478L52.0455 50.6094L50.4883 50.4089Z" fill="#CC8B09"/>
<path d="M50.5723 55.5204V53.9586H53.2096L52.5649 55.3533L51.4262 56.6061L50.5723 55.5204Z" fill="#CC8B09"/>
<path fill-rule="evenodd" clip-rule="evenodd" d="M63.6576 49.9913C63.3154 49.9904 62.9737 50.0184 62.6362 50.0749C62.1757 50.1417 61.665 50.2335 61.0957 50.3505C60.5263 50.4674 59.9403 50.6177 59.3207 50.8015C58.7246 50.9814 58.1426 51.2047 57.5793 51.4696L62.0501 54.0504L62.8873 53.7664C64.026 53.3822 65.0977 53.0649 66.1107 52.806C67.0582 52.5508 68.0284 52.3885 69.0075 52.3215C69.902 52.268 70.7997 52.3298 71.6783 52.5053C72.5636 52.7001 73.4116 53.0357 74.19 53.4992C74.9654 53.8813 75.6286 54.4567 76.1157 55.1696C76.443 55.6892 76.5457 56.3188 76.4004 56.9151C76.2102 57.5709 75.8491 58.1646 75.3538 58.6356C74.7396 59.2522 74.0538 59.7933 73.3109 60.2476L76.1576 61.918L74.5919 62.7949L71.7202 61.1245C70.3516 61.7963 68.9218 62.3361 67.4503 62.7365C65.9094 63.1604 64.3354 63.4538 62.745 63.6134L61.2464 60.9324C61.6665 60.9216 62.0857 60.8882 62.5022 60.8322C63.0632 60.7654 63.6827 60.6652 64.3776 60.5148C65.0725 60.3645 65.7926 60.1808 66.5628 59.9553C67.311 59.7315 68.0414 59.4523 68.748 59.1201L64.2939 56.556L63.7162 56.7564L63.105 56.9402C61.9831 57.3077 60.9617 57.6 60.024 57.7754C59.1636 57.9747 58.2861 58.0922 57.4034 58.1262C56.6244 58.1494 55.8454 58.0765 55.0843 57.909C54.3329 57.7363 53.6108 57.4549 52.941 57.0738C52.2043 56.6918 51.5655 56.146 51.0739 55.4786C50.7161 54.9784 50.539 54.3718 50.5716 53.7581C50.6371 53.1184 50.8938 52.5132 51.3084 52.0209C51.8223 51.3754 52.4321 50.812 53.1168 50.3505L50.4795 48.8304L52.0284 47.9367L54.6489 49.4401C55.8745 48.8334 57.1632 48.3629 58.4919 48.037C59.7544 47.7138 61.0387 47.4821 62.3348 47.3438L63.6576 49.9913ZM56.0471 54.6768C56.6353 55.0137 57.315 55.1569 57.9895 55.086C58.899 54.9875 59.7947 54.7886 60.6603 54.4931L56.4741 52.0793C54.9336 53.0816 54.7913 53.9474 56.0471 54.6768ZM68.6559 55.5204C69.376 55.4154 70.1108 55.5474 70.749 55.8962C71.9546 56.5894 71.67 57.4831 69.9118 58.5605L65.7256 56.1635C66.6815 55.8635 67.6621 55.6483 68.6559 55.5204Z" fill="#F9CA06"/>
<ellipse cx="63.2225" cy="51.4112" rx="38.9315" ry="22.4251" fill="#DD990E"/>
<path d="M24.3076 51.7536V41.5308L32.0018 48.371L24.3076 51.7536Z" fill="#DD990E"/>
<path d="M102.154 41.798V51.4112L98.2186 55.5788L96.293 44.5709L102.154 41.798Z" fill="#DD990E"/>
<ellipse cx="63.2225" cy="41.798" rx="38.9315" ry="22.4251" fill="#F9CB07"/>
<path d="M91.0442 42.4996C90.6507 46.2747 87.9548 50.0164 82.9398 52.8811C72.0557 59.1451 54.4067 59.1451 43.5226 52.8811C38.4992 49.9913 35.8033 46.2747 35.4182 42.4996C34.9493 38.073 37.6536 33.563 43.5226 30.1888C54.4067 23.9164 72.0473 23.9164 82.9398 30.1888C88.8255 33.563 91.5047 38.073 91.0442 42.4996Z" fill="#CC8B09"/>
<path d="M91.044 42.4996C90.6505 46.2747 87.9546 50.0164 82.9395 52.8811C72.0555 59.1451 54.4065 59.1451 43.5224 52.8811C38.499 49.9913 35.8031 46.2747 35.418 42.4996C35.8031 38.7161 38.499 34.9828 43.5224 32.1097C54.4065 25.8374 72.0471 25.8374 82.9395 32.1097C87.9881 34.9995 90.6505 38.7161 91.044 42.4996Z" fill="#E8A30A"/>
<path fill-rule="evenodd" clip-rule="evenodd" d="M62.8211 37.2462C62.4791 37.2415 62.1373 37.2666 61.7997 37.3214C61.3392 37.3882 60.8285 37.48 60.2592 37.597C59.6898 37.7139 59.0954 37.8726 58.4842 38.0563C57.8856 38.2334 57.3008 38.4539 56.7344 38.7161L61.1969 41.2969L62.0341 41.0129C63.1727 40.6371 64.2444 40.3197 65.2575 40.0525C66.205 39.7992 67.1754 39.6397 68.1543 39.5764C69.0456 39.5159 69.9411 39.5749 70.8167 39.7518C71.7011 39.9495 72.5487 40.2849 73.3284 40.7457C74.1017 41.131 74.7642 41.7057 75.2541 42.4161C75.577 42.9374 75.6793 43.5651 75.5387 44.1616C75.3493 44.8177 74.9881 45.4116 74.4922 45.8822C73.875 46.4987 73.1864 47.0399 72.441 47.4941L75.2876 49.1645L73.7554 50.0414L70.8837 48.371C69.5171 49.0472 68.0868 49.5872 66.6138 49.983C65.0702 50.4077 63.4934 50.7011 61.9001 50.8599L60.4015 48.179C60.6778 48.179 61.0964 48.179 61.6573 48.0871C61.7951 48.0645 61.9368 48.0425 62.0824 48.0198C62.5301 47.9502 63.0148 47.8748 63.5328 47.7614C64.2193 47.611 64.9561 47.4273 65.7179 47.2018C66.4697 46.9803 67.203 46.7011 67.9115 46.3666L63.4574 43.8025L62.8713 44.003L62.2685 44.1951C61.1466 44.5625 60.1168 44.8465 59.1875 45.0303C58.3243 45.2302 57.4441 45.3476 56.5586 45.381C55.7821 45.4089 55.0054 45.3359 54.2478 45.1639C53.494 44.9902 52.7693 44.7089 52.0961 44.3287C51.3653 43.9416 50.7303 43.3966 50.2374 42.7335C49.8741 42.2355 49.6938 41.6279 49.7267 41.0129C49.7999 40.3753 50.0557 39.7722 50.4635 39.2757C50.9787 38.6284 51.5916 38.0649 52.2803 37.6053L49.6514 36.1187L51.2003 35.225L53.8124 36.7367C55.0378 36.1273 56.3265 35.654 57.6554 35.3252C58.9182 35.0035 60.2024 34.7718 61.4983 34.632L62.8211 37.2462ZM55.2106 41.9233C55.7991 42.2599 56.4778 42.4058 57.153 42.3409C58.0589 42.2372 58.9513 42.0385 59.8154 41.7479L55.6292 39.3258C54.0887 40.3364 53.9548 41.1967 55.2106 41.9651V41.9233ZM67.811 42.7752C68.533 42.6659 69.2709 42.7949 69.9125 43.1427C71.1181 43.8443 70.8335 44.7296 69.0753 45.8153L64.8891 43.41C65.8423 43.1123 66.8201 42.8999 67.811 42.7752Z" fill="#CC8B09"/>
<path d="M60.4092 48.1957C60.451 48.0871 60.4092 46.6923 60.4092 46.6923L62.0837 47.7864L61.3469 48.9306L60.4092 48.1957Z" fill="#CC8B09"/>
<path d="M75.3119 49.1478V47.6444L71.6113 47.9284L73.7379 49.3733L75.3119 49.1478Z" fill="#CC8B09"/>
<path d="M75.6306 43.6271V42.0987L72.8594 43.1009L75.6306 43.6271Z" fill="#CC8B09"/>
<path d="M64.1436 43.5436L65.0729 42.6583L68.3214 44.905L68.1204 45.5648C68.1204 45.5648 65.6924 44.5458 65.6087 44.4874C65.525 44.4289 64.1436 43.5436 64.1436 43.5436Z" fill="#CC8B09"/>
<path d="M55.6367 38.7997L59.9485 41.2384L60.836 40.6037C60.836 40.6037 60.2918 39.9773 60.2499 39.9188C59.8654 39.4776 59.4133 39.0998 58.9103 38.7997C58.5922 38.7412 56.5409 37.8225 56.5409 37.8225L55.6367 38.7997Z" fill="#CC8B09"/>
<path d="M62.8204 37.2462V35.7345L60.8362 35.0914L60.4092 36.2774L60.518 36.8202L62.8204 37.2462Z" fill="#CC8B09"/>
<path d="M49.6514 36.1521V34.6487L51.9454 34.8993L51.2003 36.3609L49.6514 36.1521Z" fill="#CC8B09"/>
<path d="M49.7344 41.2635V39.7017H52.3633L51.727 41.1048L50.58 42.3576L49.7344 41.2635Z" fill="#CC8B09"/>
<path fill-rule="evenodd" clip-rule="evenodd" d="M62.8207 35.7345C62.4785 35.7333 62.1367 35.7613 61.7993 35.818C61.3388 35.8848 60.8281 35.9767 60.2587 36.0936C59.6894 36.2106 59.095 36.3692 58.4838 36.553C57.8852 36.7301 57.3003 36.9506 56.734 37.2128L61.1965 39.7936L62.0337 39.5096C63.1723 39.1338 64.244 38.808 65.2571 38.5491C66.2037 38.2918 67.1745 38.1322 68.1539 38.0731C69.0452 38.0126 69.9407 38.0716 70.8163 38.2484C71.702 38.4419 72.5502 38.7776 73.328 39.2423C74.1012 39.6276 74.7638 40.2024 75.2537 40.9127C75.5774 41.4337 75.6799 42.0618 75.5383 42.6583C75.3467 43.3134 74.9858 43.9068 74.4918 44.3788C73.8746 44.9954 73.186 45.5365 72.4405 45.9907L75.2872 47.6611L73.755 48.5381L70.8833 46.8677C69.5151 47.5403 68.0852 48.0801 66.6134 48.4796C65.0698 48.9043 63.493 49.1977 61.8997 49.3566L60.4011 46.6756C60.8212 46.6648 61.2404 46.6313 61.6569 46.5754C62.2874 46.5041 62.9135 46.3982 63.5323 46.258C64.2272 46.1077 64.9556 45.9239 65.7175 45.6984C66.468 45.4732 67.2011 45.1941 67.9111 44.8632L63.457 42.2992L62.8709 42.4996L62.2681 42.6834C61.1462 43.0508 60.1164 43.3432 59.1871 43.5186C58.3239 43.7185 57.4436 43.8359 56.5582 43.8693C55.7817 43.8972 55.0049 43.8242 54.2474 43.6522C53.4926 43.4818 52.7674 43.2003 52.0957 42.817C51.3614 42.4349 50.7253 41.889 50.237 41.2218C49.8718 40.7247 49.6913 40.1165 49.7263 39.5012C49.7995 38.8636 50.0553 38.2605 50.4631 37.764C50.9781 37.1165 51.591 36.5529 52.2799 36.0936L49.6426 34.5736L51.1915 33.6799L53.8036 35.1833C55.0308 34.5802 56.3191 34.1098 57.6466 33.7801C58.9094 33.4584 60.1936 33.2267 61.4895 33.0869L62.8207 35.7345ZM55.2102 40.42C55.7987 40.7566 56.4774 40.9025 57.1526 40.8376C58.0593 40.7342 58.9521 40.5326 59.815 40.2362L55.6288 37.8225C54.0939 38.8247 53.9543 39.6906 55.2102 40.42ZM67.8106 41.2635C68.5333 41.1639 69.2691 41.2955 69.9121 41.6394C71.1177 42.3326 70.833 43.2262 69.0749 44.3036L64.8887 41.9066C65.8428 41.6107 66.8202 41.3956 67.8106 41.2635Z" fill="#F9CA06"/>
<path d="M83.6012 40.6371C84.8467 42.839 86.3534 44.8832 88.0888 46.7257C88.5744 47.2853 92.275 45.8905 91.5214 45.4646C90.7679 45.0386 88.2981 41.6728 87.0757 39.4094C86.0475 36.7052 85.1754 33.9445 84.4635 31.1409C83.6933 28.368 83.0402 24.309 82.4793 22.388C82.1802 20.9468 81.0636 19.8133 79.6243 19.4899C78.2847 19.1809 77.414 19.5483 77.6568 21.1603C78.0838 24.0083 80.3108 35.0496 83.6012 40.6371Z" fill="#FFCEA9"/>
<path d="M81.4658 83.8921C82.6212 84.8275 84.3292 83.9756 84.4129 84.0591C85.7679 85.3159 87.1905 86.4981 88.6744 87.6004C89.3944 88.1683 90.5247 88.9283 90.3489 90.0141C89.9889 91.9518 86.866 91.3588 85.6939 90.7658C84.5217 90.1728 83.5589 89.1789 82.4454 88.494C81.65 88.0013 80.8714 87.7424 80.7709 86.7485C80.6369 86.1388 81.29 83.867 81.4658 83.8921Z" fill="#38226D"/>
<path d="M80.7293 86.3392C80.88 87.2997 81.6503 87.567 82.4038 88.0514C83.5341 88.753 84.5304 89.7636 85.7109 90.3565C86.8914 90.9495 89.5036 91.4507 90.2655 90.0642C89.8552 91.9351 86.7909 91.3504 85.6272 90.7658C84.4634 90.1812 83.4922 89.1789 82.3787 88.494C81.5833 88.0013 80.8047 87.7424 80.7042 86.7485C80.6927 86.6116 80.7011 86.4737 80.7293 86.3392Z" fill="#9C73FF"/>
<path d="M93.1873 77.152C94.3427 78.0958 96.3688 77.0685 96.4525 77.152C97.6534 78.3701 98.9254 79.5163 100.262 80.5847C100.982 81.1526 102.112 81.9127 101.936 82.9984C101.576 84.9361 98.4535 84.3431 97.2814 83.7501C96.1092 83.1571 95.1464 82.1716 94.0329 81.4784C93.2375 80.9856 92.4505 80.735 92.3584 79.7328C92.4075 78.8157 92.693 77.9268 93.1873 77.152Z" fill="#38226D"/>
<path d="M92.3332 79.4655C92.4839 80.426 93.2542 80.6849 94.0077 81.1777C95.138 81.8793 96.1343 82.8899 97.3148 83.4829C98.4953 84.0758 101.116 84.577 101.878 83.1905C101.459 85.0614 98.3948 84.4767 97.2311 83.8838C96.0673 83.2908 95.0961 82.3052 93.9826 81.612C93.1872 81.1276 92.4086 80.8687 92.3081 79.8664C92.301 79.7323 92.3094 79.5978 92.3332 79.4655Z" fill="#9C73FF"/>
<path d="M66.0109 46.9763C64.7299 54.9608 68.2882 57.9341 72.9097 59.6379C76.2587 60.8573 80.9807 62.7365 80.9807 62.7365C80.9807 62.7365 80.9137 64.4821 80.8802 68.4159C80.8802 71.8819 81.2988 84.5268 81.2988 84.5268C82.4171 85.0832 83.7356 85.0676 84.8404 84.4851C84.8404 84.4851 86.699 74.7968 87.1009 70.4287C87.6367 64.5071 88.5493 60.6318 88.2395 59.3539C87.9716 58.2348 81.483 55.0527 79.4234 53.3405L93.0118 57.8339C92.7446 59.3055 92.6129 60.7983 92.6183 62.2938C92.7439 66.996 93.0034 77.1687 93.0034 77.1687C93.0034 77.1687 94.8705 78.5134 96.4612 77.1687C96.4612 77.1687 99.8855 57.0237 99.4669 54.3594C99.0734 51.8538 87.0925 46.6589 84.9827 44.8716C84.2385 44.2648 83.2687 44.0062 82.3203 44.1617L66.0109 46.9763Z" fill="#8C50FF"/>
<path d="M98.6118 50.2586L89.4775 44.9968C89.3139 44.9045 89.1137 44.9045 88.9501 44.9968L72.917 54.2258L82.3192 59.6462L98.6118 50.2586Z" fill="#F4F4F4"/>
<path d="M81.9008 57.7086L81.2059 58.1095C81.1473 58.1095 81.1557 58.193 81.2059 58.2348L81.8673 58.619C81.9361 58.6519 82.0162 58.6519 82.085 58.619L82.7883 58.2181C82.8385 58.2181 82.8385 58.1262 82.7883 58.0928L82.1185 57.7086C82.0507 57.6714 81.9686 57.6714 81.9008 57.7086Z" fill="#3A2C6D"/>
<path d="M82.8884 57.1407L82.1851 57.5415C82.1349 57.5415 82.1349 57.6334 82.1851 57.6668L82.8549 58.051C82.9237 58.084 83.0038 58.084 83.0726 58.051L83.7675 57.6501C83.8261 57.6501 83.8177 57.5583 83.7675 57.5248L83.1061 57.1407C83.0383 57.1035 82.9562 57.1035 82.8884 57.1407Z" fill="#3A2C6D"/>
<path d="M83.8852 56.5644L83.1903 56.9653C83.1317 56.9653 83.1401 57.0571 83.1903 57.0905L83.8601 57.4747C83.9279 57.5119 84.01 57.5119 84.0778 57.4747L84.7727 57.0738C84.8313 57.0738 84.8229 56.982 84.7727 56.9486L84.1029 56.5644C84.0341 56.5314 83.954 56.5314 83.8852 56.5644Z" fill="#3A2C6D"/>
<path d="M84.8559 56.0048L84.161 56.4057C84.1024 56.4057 84.1108 56.4975 84.161 56.5309L84.8224 56.9151C84.8941 56.9484 84.9768 56.9484 85.0485 56.9151L85.7434 56.5142C85.802 56.5142 85.7936 56.4224 85.7434 56.389L85.082 56.0048C85.0112 55.9676 84.9267 55.9676 84.8559 56.0048Z" fill="#3A2C6D"/>
<path d="M85.8442 55.4369L85.1493 55.8378C85.0907 55.8378 85.099 55.9296 85.1493 55.963L85.8107 56.3472C85.8795 56.3802 85.9596 56.3802 86.0284 56.3472L86.7317 55.9463C86.7819 55.9463 86.7819 55.8545 86.7317 55.821L86.0619 55.4369C85.9941 55.3997 85.912 55.3997 85.8442 55.4369Z" fill="#3A2C6D"/>
<path d="M86.8321 54.8689L86.1288 55.2698C86.0785 55.2698 86.1288 55.3617 86.1288 55.3951L86.7986 55.7793C86.8674 55.8123 86.9475 55.8123 87.0162 55.7793L87.7111 55.3784C87.7698 55.3784 87.7614 55.2865 87.7111 55.2531L87.0497 54.8689C86.9819 54.8317 86.8998 54.8317 86.8321 54.8689Z" fill="#3A2C6D"/>
<path d="M87.812 54.301L87.117 54.7019C87.0584 54.7019 87.0668 54.7937 87.117 54.8272L87.7785 55.2113C87.8501 55.2446 87.9329 55.2446 88.0045 55.2113L88.6994 54.8104C88.758 54.8104 88.7497 54.7186 88.6994 54.6852L88.038 54.301C87.9673 54.2639 87.8827 54.2639 87.812 54.301Z" fill="#3A2C6D"/>
<path d="M88.8246 53.733L88.1297 54.1339C88.0711 54.1339 88.0795 54.2258 88.1297 54.2592L88.7912 54.6434C88.8628 54.6767 88.9456 54.6767 89.0172 54.6434L89.7121 54.2425C89.7707 54.2425 89.7624 54.1506 89.7121 54.1172L89.0507 53.733C88.9799 53.6959 88.8954 53.6959 88.8246 53.733Z" fill="#3A2C6D"/>
<path d="M89.7875 53.1651L89.0926 53.566C89.034 53.566 89.0424 53.6579 89.0926 53.6913L89.7541 54.0755C89.8228 54.1085 89.9029 54.1085 89.9717 54.0755L90.675 53.6746C90.7252 53.6746 90.7252 53.5827 90.675 53.5493L90.0052 53.1651C89.9374 53.128 89.8553 53.128 89.7875 53.1651Z" fill="#3A2C6D"/>
<path d="M90.776 52.5972L90.0727 52.9981C90.0225 52.9981 90.0308 53.0899 90.0727 53.1233L90.7425 53.5075C90.8113 53.5405 90.8914 53.5405 90.9602 53.5075L91.6551 53.1066C91.7137 53.1066 91.7053 53.0148 91.6551 52.9813L90.9853 52.5972C90.9197 52.563 90.8415 52.563 90.776 52.5972Z" fill="#3A2C6D"/>
<path d="M91.7553 52.0292L91.0604 52.4301C91.0018 52.4301 91.0102 52.522 91.0604 52.5554L91.7302 52.9396C91.798 52.9767 91.8801 52.9767 91.9479 52.9396L92.6428 52.5387C92.7014 52.5387 92.693 52.4468 92.6428 52.4134L91.9814 52.0292C91.9106 51.9921 91.8261 51.9921 91.7553 52.0292Z" fill="#3A2C6D"/>
<path d="M92.7426 51.4613L92.0477 51.8622C91.9891 51.8622 91.9975 51.9541 92.0477 51.9875L92.7091 52.3717C92.7799 52.4088 92.8644 52.4088 92.9352 52.3717L93.6301 51.9708C93.6887 51.9708 93.6803 51.8789 93.6301 51.8455L92.9687 51.4613C92.8979 51.4242 92.8134 51.4242 92.7426 51.4613Z" fill="#3A2C6D"/>
<path d="M93.7309 50.8934L93.036 51.2943C92.9774 51.2943 92.9858 51.3861 93.036 51.4195L93.6974 51.8037C93.7682 51.8409 93.8527 51.8409 93.9235 51.8037L94.6184 51.4028C94.6686 51.4028 94.6686 51.311 94.6184 51.2776L93.9486 50.8934C93.8808 50.8562 93.7987 50.8562 93.7309 50.8934Z" fill="#3A2C6D"/>
<path d="M95.188 50.0498L94.0243 50.7263C93.9657 50.7263 93.974 50.8182 94.0243 50.8516L94.6941 51.2358C94.7618 51.2729 94.844 51.2729 94.9117 51.2358L96.0839 50.5593C96.1425 50.5593 96.1341 50.4757 96.0839 50.434L95.4225 50.0498C95.3485 50.0139 95.262 50.0139 95.188 50.0498Z" fill="#3A2C6D"/>
<path d="M82.4028 56.3138L81.7079 56.7147C81.6493 56.7147 81.6576 56.8066 81.7079 56.84L82.3693 57.2242C82.44 57.2613 82.5246 57.2613 82.5953 57.2242L83.2902 56.8233C83.3489 56.8233 83.3405 56.7314 83.2902 56.698L82.6288 56.3138C82.5572 56.2805 82.4744 56.2805 82.4028 56.3138Z" fill="#3A2C6D"/>
<path d="M83.3911 55.7459L82.6961 56.1468C82.6375 56.1468 82.6459 56.2386 82.6961 56.272L83.3576 56.6562C83.4283 56.6934 83.5129 56.6934 83.5836 56.6562L84.2785 56.2553C84.3371 56.2553 84.3288 56.1635 84.2785 56.1301L83.6171 55.7459C83.5464 55.7087 83.4618 55.7087 83.3911 55.7459Z" fill="#3A2C6D"/>
<path d="M84.3793 55.1779L83.6844 55.5788C83.6258 55.5788 83.6342 55.6707 83.6844 55.7041L84.3458 56.0883C84.4175 56.1216 84.5002 56.1216 84.5719 56.0883L85.2668 55.6874C85.3254 55.6874 85.317 55.5955 85.2668 55.5621L84.6054 55.1779C84.5346 55.1408 84.4501 55.1408 84.3793 55.1779Z" fill="#3A2C6D"/>
<path d="M85.3666 54.61L84.6717 55.0109C84.6131 55.0109 84.6215 55.0944 84.6717 55.1362L85.3332 55.5204C85.4048 55.5536 85.4875 55.5536 85.5592 55.5204L86.2541 55.1195C86.3127 55.1195 86.3043 55.0276 86.2541 54.9942L85.5927 54.61C85.5219 54.5729 85.4374 54.5729 85.3666 54.61Z" fill="#3A2C6D"/>
<path d="M86.3129 54.0421L85.618 54.443C85.5594 54.443 85.5678 54.5348 85.618 54.5682L86.2794 54.9524C86.3502 54.9896 86.4347 54.9896 86.5055 54.9524L87.2004 54.5515C87.259 54.5515 87.2506 54.468 87.2004 54.4263L86.539 54.0421C86.4673 54.0088 86.3846 54.0088 86.3129 54.0421Z" fill="#3A2C6D"/>
<path d="M87.3344 53.4741L86.6395 53.875C86.5809 53.875 86.5893 53.9669 86.6395 54.0003L87.3009 54.3845C87.3717 54.4216 87.4562 54.4216 87.527 54.3845L88.2219 53.9836C88.2805 53.9836 88.2721 53.8917 88.2219 53.8583L87.5605 53.4741C87.4888 53.4409 87.4061 53.4409 87.3344 53.4741Z" fill="#3A2C6D"/>
<path d="M88.3227 52.9062L87.6278 53.3071C87.5692 53.3071 87.5776 53.399 87.6278 53.4324L88.2892 53.8166C88.36 53.8537 88.4445 53.8537 88.5153 53.8166L89.2102 53.4157C89.2688 53.4157 89.2604 53.3238 89.2102 53.2904L88.5488 52.9062C88.478 52.8691 88.3935 52.8691 88.3227 52.9062Z" fill="#3A2C6D"/>
<path d="M89.31 52.3382L88.6151 52.7391C88.5565 52.7391 88.5649 52.831 88.6151 52.8644L89.2765 53.2486C89.3482 53.2819 89.4309 53.2819 89.5026 53.2486L90.1975 52.8477C90.2561 52.8477 90.2477 52.7558 90.1975 52.7224L89.5361 52.3382C89.4653 52.3011 89.3808 52.3011 89.31 52.3382Z" fill="#3A2C6D"/>
<path d="M90.2983 51.7703L89.6034 52.1712C89.5448 52.1712 89.5531 52.2547 89.6034 52.2965L90.2648 52.6807C90.3365 52.7139 90.4192 52.7139 90.4908 52.6807L91.1858 52.2798C91.2444 52.2798 91.236 52.1879 91.1858 52.1545L90.5243 51.7703C90.4536 51.7332 90.369 51.7332 90.2983 51.7703Z" fill="#3A2C6D"/>
<path d="M91.2866 51.2024L90.5917 51.6033C90.5331 51.6033 90.5414 51.6868 90.5917 51.7286L91.2531 52.1127C91.3247 52.146 91.4075 52.146 91.4791 52.1127L92.174 51.7118C92.2326 51.7118 92.2243 51.62 92.174 51.5866L91.5126 51.2024C91.4419 51.1652 91.3573 51.1652 91.2866 51.2024Z" fill="#3A2C6D"/>
<path d="M92.2739 50.6261L91.579 51.0354C91.5204 51.0354 91.5287 51.1189 91.579 51.1606L92.2404 51.5448C92.312 51.5781 92.3948 51.5781 92.4664 51.5448L93.1613 51.1439C93.2199 51.1439 93.2116 51.0521 93.1613 51.0103L92.4999 50.6345C92.4295 50.5985 92.3468 50.5955 92.2739 50.6261Z" fill="#3A2C6D"/>
<path d="M93.2621 50.0582L92.5672 50.4591C92.5086 50.4591 92.517 50.5509 92.5672 50.5927L93.2287 50.9769C93.3003 51.0101 93.3831 51.0101 93.4547 50.9769L94.1496 50.576C94.2082 50.576 94.1999 50.4841 94.1496 50.4424L93.4798 50.0582C93.411 50.0252 93.3309 50.0252 93.2621 50.0582Z" fill="#3A2C6D"/>
<path d="M81.4156 56.8817L80.2518 57.5582C80.1932 57.5582 80.2016 57.6501 80.2518 57.6835L80.9216 58.0677C80.9904 58.1007 81.0705 58.1007 81.1393 58.0677L82.3114 57.3912C82.37 57.3912 82.3617 57.3077 82.3114 57.2659L81.65 56.8817C81.576 56.8458 81.4896 56.8458 81.4156 56.8817Z" fill="#3A2C6D"/>
<path d="M95.1456 50.0164L94.4507 50.4173C94.3848 50.4501 94.3073 50.4501 94.2414 50.4173L93.5381 50.0081C93.4795 50.0081 93.4795 49.9245 93.5381 49.8911H93.5883C93.6469 49.8911 93.6469 49.816 93.5883 49.7826L92.8516 49.3566C92.793 49.3566 92.793 49.2731 92.8516 49.2397L93.2953 48.9808C93.3579 48.9466 93.4336 48.9466 93.4962 48.9808L94.1912 49.3817L94.3335 49.4652L94.4423 49.5236L94.5428 49.5821L95.1456 49.9329C95.1569 49.9439 95.1632 49.9589 95.1632 49.9747C95.1632 49.9904 95.1569 50.0054 95.1456 50.0164Z" fill="#3A2C6D"/>
<path d="M78.0834 55.5037L77.3885 55.9046C77.3299 55.9046 77.3383 55.9964 77.3885 56.0298L78.0499 56.414C78.1177 56.4512 78.1998 56.4512 78.2676 56.414L78.9709 56.0131C79.0211 56.0131 79.0128 55.9213 78.9709 55.8879L78.3011 55.5037C78.2333 55.4665 78.1512 55.4665 78.0834 55.5037Z" fill="#3A2C6D"/>
<path d="M79.0629 54.9357L78.368 55.3366C78.3094 55.3366 78.3178 55.4285 78.368 55.4619L79.0294 55.8461C79.1002 55.8832 79.1847 55.8832 79.2555 55.8461L79.9504 55.4452C80.009 55.4452 80.0006 55.3617 79.9504 55.3199L79.289 54.9357C79.2173 54.9025 79.1346 54.9025 79.0629 54.9357Z" fill="#3A2C6D"/>
<path d="M80.0504 54.3678L79.3471 54.7687C79.2969 54.7687 79.3052 54.8605 79.3471 54.9023L80.0169 55.2781C80.0857 55.3111 80.1658 55.3111 80.2346 55.2781L80.9295 54.8689C80.9881 54.8689 80.9797 54.7854 80.9295 54.7436L80.2681 54.3594C80.198 54.329 80.1179 54.3321 80.0504 54.3678Z" fill="#3A2C6D"/>
<path d="M88.4226 49.5487L87.7193 49.9496C87.6691 49.9496 87.6691 50.0414 87.7193 50.0748L88.3891 50.459C88.4569 50.4962 88.539 50.4962 88.6068 50.459L89.3017 50.0581C89.3603 50.0581 89.3519 49.9663 89.3017 49.9329L88.6403 49.5487C88.5715 49.5157 88.4914 49.5157 88.4226 49.5487Z" fill="#3A2C6D"/>
<path d="M89.4028 48.9807L88.7079 49.3816C88.6493 49.3816 88.6576 49.4735 88.7079 49.5069L89.3693 49.8911C89.44 49.9282 89.5246 49.9282 89.5953 49.8911L90.2902 49.4902C90.3489 49.4902 90.3405 49.4067 90.2902 49.3649L89.6205 48.9807C89.5517 48.9477 89.4716 48.9477 89.4028 48.9807Z" fill="#3A2C6D"/>
<path d="M90.3823 48.4128L89.6874 48.8137C89.6288 48.8137 89.6371 48.9056 89.6874 48.9473L90.3571 49.3232C90.4249 49.3603 90.507 49.3603 90.5748 49.3232L91.2697 48.9223C91.3283 48.9223 91.32 48.8304 91.2697 48.7886L90.6083 48.4045C90.5354 48.3738 90.4527 48.3769 90.3823 48.4128Z" fill="#3A2C6D"/>
<path d="M91.3364 47.8532L90.6415 48.2541C90.5829 48.2541 90.5912 48.3377 90.6415 48.3794L91.3029 48.7636C91.3717 48.7966 91.4518 48.7966 91.5206 48.7636L92.2238 48.3627C92.2741 48.3627 92.2741 48.2708 92.2238 48.2291L91.554 47.8532C91.4863 47.8161 91.4042 47.8161 91.3364 47.8532Z" fill="#3A2C6D"/>
<path d="M81.2897 53.6579L80.3436 54.2091C80.285 54.2091 80.2934 54.2926 80.3436 54.3344L81.005 54.7186C81.0767 54.7518 81.1594 54.7518 81.2311 54.7186L82.1772 54.1674C82.2358 54.1674 82.2274 54.0755 82.1772 54.0421L81.5157 53.6579C81.4441 53.6246 81.3614 53.6246 81.2897 53.6579Z" fill="#3A2C6D"/>
<path d="M87.4352 50.1166L86.4891 50.6595C86.4305 50.6595 86.4389 50.7514 86.4891 50.7931L87.1505 51.169C87.2183 51.2061 87.3004 51.2061 87.3682 51.169L88.3227 50.6261C88.3813 50.6261 88.3729 50.5342 88.3227 50.5008L87.6612 50.1166C87.5905 50.0795 87.506 50.0795 87.4352 50.1166Z" fill="#3A2C6D"/>
<path d="M86.204 50.8265L81.5741 53.4908C81.5155 53.4908 81.5238 53.5827 81.5741 53.6245L82.2439 54.0003C82.3117 54.0375 82.3938 54.0375 82.4615 54.0003L87.0915 51.336C87.1501 51.336 87.1417 51.2441 87.0915 51.2107L86.4301 50.8265C86.359 50.7908 86.2751 50.7908 86.204 50.8265Z" fill="#3A2C6D"/>
<path d="M81.7163 55.6122L81.0213 56.0131C80.9627 56.0131 80.9711 56.0966 81.0213 56.1384L81.6828 56.5226C81.7544 56.5559 81.8372 56.5559 81.9088 56.5226L82.6037 56.1217C82.6623 56.1217 82.654 56.0298 82.6037 55.9881L81.9423 55.6122C81.8715 55.5751 81.787 55.5751 81.7163 55.6122Z" fill="#3A2C6D"/>
<path d="M82.7045 55.0443L82.0096 55.4452C81.951 55.4452 81.9594 55.5287 82.0096 55.5705L82.671 55.9547C82.7398 55.9877 82.8199 55.9877 82.8887 55.9547L83.592 55.5538C83.6422 55.5538 83.6422 55.4619 83.592 55.4285L82.9222 55.0443C82.8544 55.0072 82.7723 55.0072 82.7045 55.0443Z" fill="#3A2C6D"/>
<path d="M83.6921 54.4931L82.9888 54.894C82.9386 54.894 82.9386 54.9858 82.9888 55.0192L83.6586 55.4034C83.7274 55.4364 83.8075 55.4364 83.8763 55.4034L84.5712 55.0025C84.6298 55.0025 84.6215 54.9107 84.5712 54.8773L83.9098 54.4931C83.842 54.4559 83.7599 54.4559 83.6921 54.4931Z" fill="#3A2C6D"/>
<path d="M84.6391 53.9084L83.9442 54.3093C83.8856 54.3093 83.894 54.4012 83.9442 54.4346L84.6056 54.8188C84.6764 54.8559 84.7609 54.8559 84.8317 54.8188L85.5266 54.4179C85.5852 54.4179 85.5768 54.326 85.5266 54.2926L84.8652 53.9084C84.7944 53.8713 84.7099 53.8713 84.6391 53.9084Z" fill="#3A2C6D"/>
<path d="M85.6596 53.3405L84.9647 53.7414C84.9061 53.7414 84.9145 53.8332 84.9647 53.8667L85.6261 54.2508C85.6939 54.288 85.776 54.288 85.8438 54.2508L86.5471 53.85C86.5973 53.85 86.5889 53.7581 86.5471 53.7247L85.8773 53.3405C85.8085 53.3075 85.7284 53.3075 85.6596 53.3405Z" fill="#3A2C6D"/>
<path d="M86.6401 52.7726L85.9452 53.1735C85.8866 53.1735 85.8949 53.2653 85.9452 53.2987L86.615 53.6829C86.6827 53.7201 86.7649 53.7201 86.8326 53.6829L87.5276 53.282C87.5862 53.282 87.5778 53.1902 87.5276 53.1568L86.8661 52.7726C86.7945 52.7393 86.7117 52.7393 86.6401 52.7726Z" fill="#3A2C6D"/>
<path d="M87.6274 52.2046L86.9325 52.6055C86.8739 52.6055 86.8822 52.6974 86.9325 52.7308L87.5939 53.115C87.6647 53.1521 87.7492 53.1521 87.8199 53.115L88.5149 52.7141C88.5735 52.7141 88.5651 52.6306 88.5149 52.5888L87.8534 52.2046C87.7818 52.1714 87.699 52.1714 87.6274 52.2046Z" fill="#3A2C6D"/>
<path d="M88.6158 51.6367L87.9125 52.0376C87.8623 52.0376 87.8707 52.1294 87.9125 52.1712L88.5823 52.547C88.6501 52.5842 88.7322 52.5842 88.8 52.547L89.4949 52.1461C89.5535 52.1461 89.5451 52.0626 89.4949 52.0209L88.8251 51.6367C88.7587 51.6063 88.6823 51.6063 88.6158 51.6367Z" fill="#3A2C6D"/>
<path d="M89.5952 51.0688L88.9003 51.4697C88.8416 51.4697 88.85 51.5615 88.9003 51.6033L89.5617 51.9791C89.6333 52.0124 89.7161 52.0124 89.7877 51.9791L90.4826 51.5782C90.5412 51.5782 90.5329 51.4864 90.4826 51.4446L89.8212 51.0604C89.7483 51.0298 89.6656 51.0328 89.5952 51.0688Z" fill="#3A2C6D"/>
<path d="M90.5834 50.5008L89.8885 50.9017C89.8299 50.9017 89.8383 50.9936 89.8885 51.0353L90.5499 51.4195C90.6187 51.4525 90.6988 51.4525 90.7676 51.4195L91.4709 51.0186C91.5211 51.0186 91.5211 50.9268 91.4709 50.885L90.8011 50.5008C90.7323 50.4678 90.6522 50.4678 90.5834 50.5008Z" fill="#3A2C6D"/>
<path d="M91.571 49.9329L90.8678 50.3338C90.8175 50.3338 90.8175 50.4257 90.8678 50.4674L91.5375 50.8516C91.6063 50.8846 91.6864 50.8846 91.7552 50.8516L92.4501 50.4507C92.5087 50.4507 92.5004 50.3588 92.4501 50.3171L91.7887 49.9412C91.7212 49.9056 91.6411 49.9025 91.571 49.9329Z" fill="#3A2C6D"/>
<path d="M92.5502 49.3733L91.8553 49.7742C91.7967 49.7742 91.8051 49.8577 91.8553 49.8995L92.5167 50.2837C92.5884 50.3169 92.6711 50.3169 92.7428 50.2837L93.4377 49.8828C93.4963 49.8828 93.4879 49.7909 93.4377 49.7491L92.7763 49.3733C92.7055 49.3362 92.621 49.3362 92.5502 49.3733Z" fill="#3A2C6D"/>
<path d="M80.7368 56.1635L79.2967 56.9987C79.2381 56.9987 79.2465 57.0905 79.2967 57.124L79.9582 57.5081C80.0269 57.5411 80.107 57.5411 80.1758 57.5081L81.6159 56.6729C81.6745 56.6729 81.6661 56.5811 81.6159 56.5393L80.9461 56.1635C80.8796 56.1331 80.8032 56.1331 80.7368 56.1635Z" fill="#3A2C6D"/>
<path d="M80.2768 55.3283L79.5819 55.7292C79.5233 55.7292 79.5317 55.821 79.5819 55.8628L80.2517 56.247C80.3205 56.28 80.4006 56.28 80.4694 56.247L81.1726 55.8461C81.2229 55.8461 81.2145 55.7542 81.1726 55.7124L80.5029 55.3283C80.4318 55.2925 80.3479 55.2925 80.2768 55.3283Z" fill="#3A2C6D"/>
<path d="M81.2895 54.7687L80.5946 55.1779C80.536 55.1779 80.5444 55.2615 80.5946 55.3032L81.256 55.6874C81.3277 55.7207 81.4104 55.7207 81.4821 55.6874L82.1267 55.3283C82.1853 55.3283 82.177 55.2364 82.1267 55.1946L81.4653 54.8188C81.4144 54.782 81.3522 54.7643 81.2895 54.7687Z" fill="#3A2C6D"/>
<path d="M82.2446 54.2091L81.5497 54.61C81.4911 54.61 81.4994 54.6935 81.5497 54.7353L82.2111 55.1195C82.2827 55.1527 82.3655 55.1527 82.4371 55.1195L83.132 54.7186C83.1906 54.7186 83.1823 54.6267 83.132 54.5933L82.4623 54.2091C82.3945 54.172 82.3124 54.172 82.2446 54.2091Z" fill="#3A2C6D"/>
<path d="M83.2322 53.6579L82.5289 54.0588C82.4787 54.0588 82.4787 54.1423 82.5289 54.184L83.1987 54.5682C83.2675 54.6012 83.3476 54.6012 83.4164 54.5682L84.1113 54.1673C84.1699 54.1673 84.1615 54.0755 84.1113 54.0421L83.4498 53.6579C83.3821 53.6207 83.2999 53.6207 83.2322 53.6579Z" fill="#3A2C6D"/>
<path d="M84.2114 53.0732L83.5165 53.4741C83.4579 53.4741 83.4662 53.566 83.5165 53.5994L84.1779 53.9836C84.2495 54.0169 84.3323 54.0169 84.4039 53.9836L85.0988 53.5827C85.1574 53.5827 85.1491 53.4908 85.0988 53.4574L84.4374 53.0732C84.3667 53.0361 84.2821 53.0361 84.2114 53.0732Z" fill="#3A2C6D"/>
<path d="M85.1996 52.5053L84.5047 52.9062C84.4461 52.9062 84.4545 52.9981 84.5047 53.0315L85.1662 53.4157C85.2339 53.4528 85.3161 53.4528 85.3838 53.4157L86.0871 53.0148C86.1374 53.0148 86.129 52.9229 86.0871 52.8895L85.4173 52.5053C85.3495 52.4682 85.2674 52.4682 85.1996 52.5053Z" fill="#3A2C6D"/>
<path d="M86.1791 51.9374L85.4842 52.3383C85.4256 52.3383 85.434 52.4301 85.4842 52.4635L86.1457 52.8477C86.2164 52.8849 86.301 52.8849 86.3717 52.8477L87.0666 52.4468C87.1252 52.4468 87.1168 52.355 87.0666 52.3216L86.4052 51.9374C86.3335 51.9041 86.2508 51.9041 86.1791 51.9374Z" fill="#3A2C6D"/>
<path d="M87.1498 51.3694L86.4549 51.7703C86.3963 51.7703 86.4047 51.8622 86.4549 51.8956L87.1164 52.2798C87.1871 52.3169 87.2717 52.3169 87.3424 52.2798L88.0373 51.8789C88.0959 51.8789 88.0876 51.7954 88.0373 51.7536L87.3675 51.3694C87.2987 51.3364 87.2186 51.3364 87.1498 51.3694Z" fill="#3A2C6D"/>
<path d="M88.155 50.8015L87.4517 51.2024C87.4015 51.2024 87.4015 51.2942 87.4517 51.336L88.1215 51.7118C88.1893 51.749 88.2714 51.749 88.3392 51.7118L89.0341 51.311C89.0927 51.311 89.0844 51.2274 89.0341 51.1857L88.3727 50.8015C88.3039 50.7685 88.2238 50.7685 88.155 50.8015Z" fill="#3A2C6D"/>
<path d="M89.1342 50.2335L88.4393 50.6344C88.3807 50.6344 88.3891 50.7263 88.4393 50.7681L89.1007 51.1439C89.1724 51.1772 89.2551 51.1772 89.3268 51.1439L90.0217 50.743C90.0803 50.743 90.0719 50.6511 90.0217 50.6094L89.3603 50.2252C89.2874 50.1946 89.2046 50.1976 89.1342 50.2335Z" fill="#3A2C6D"/>
<path d="M90.1225 49.6656L89.4276 50.0665C89.369 50.0665 89.3774 50.1584 89.4276 50.2001L90.089 50.5843C90.1578 50.6173 90.2379 50.6173 90.3067 50.5843L91.01 50.1834C91.0602 50.1834 91.0602 50.0916 91.01 50.0498L90.3402 49.6656C90.2714 49.6326 90.1913 49.6326 90.1225 49.6656Z" fill="#3A2C6D"/>
<path d="M92.3244 48.3961L90.4071 49.4819C90.3485 49.4819 90.3569 49.5654 90.4071 49.6071L91.0769 49.9913C91.1457 50.0243 91.2258 50.0243 91.2946 49.9913L93.2118 48.8889C93.2704 48.8889 93.2621 48.797 93.2118 48.7552L92.542 48.3794C92.4707 48.3516 92.3906 48.3577 92.3244 48.3961Z" fill="#3A2C6D"/>
<path d="M79.2887 55.9046L78.3426 56.4558C78.284 56.4558 78.2924 56.5477 78.3426 56.5811L79.0041 56.9653C79.0728 56.9983 79.1529 56.9983 79.2217 56.9653L80.1762 56.414C80.2348 56.414 80.2264 56.3305 80.1762 56.2887L79.5148 55.9046C79.4431 55.8713 79.3604 55.8713 79.2887 55.9046Z" fill="#3A2C6D"/>
<path d="M96.1842 50.6178L82.1939 58.6691C82.1437 58.6691 82.1437 58.7526 82.1939 58.7944L82.5288 58.9864C82.5976 59.0194 82.6777 59.0194 82.7465 58.9864L96.7367 50.9351C96.787 50.9351 96.787 50.8433 96.7367 50.8015L96.4018 50.6094C96.3318 50.579 96.2517 50.5821 96.1842 50.6178Z" fill="#3A2C6D"/>
<path d="M79.8164 50.9769L79.9085 51.0354L82.3281 52.4218L86.6231 49.9496L86.7069 49.8995L84.2035 48.4546L79.8164 50.9769Z" fill="#BFBFBF"/>
<path d="M79.9082 51.0354L82.3278 52.4218L86.6228 49.9496L84.2032 48.5548L79.9082 51.0354Z" fill="#E5E5E5"/>
<path d="M72.9173 54.2258V54.443C72.9087 54.7598 73.0806 55.0541 73.361 55.203L81.8757 60.1056C82.0098 60.1851 82.1635 60.2256 82.3195 60.2225C82.4726 60.224 82.6232 60.1836 82.7548 60.1056L98.1684 51.2358C98.4365 51.0755 98.6014 50.7875 98.6037 50.4758V50.2586L82.3195 59.6379L72.9173 54.2258Z" fill="#E5E5E5"/>
<path d="M82.5703 59.7715C82.8668 59.8838 83.1979 59.8593 83.4745 59.7047L98.8127 50.8683C99.0812 50.7122 99.2678 50.4467 99.3234 50.1417L100.998 40.1193C101.002 40.0637 101.002 40.0079 100.998 39.9523C101.001 39.6726 100.889 39.4038 100.688 39.2089L84.7806 48.3961C84.5824 48.5104 84.4446 48.7059 84.4039 48.9306L82.5703 59.7715Z" fill="#F4F4F4"/>
<path d="M82.3281 59.6462L82.4286 59.7047L82.5709 59.7715L84.3877 48.9557C84.4284 48.7309 84.5662 48.5354 84.7645 48.4212L100.672 39.234C100.61 39.172 100.539 39.1186 100.463 39.0753L84.4882 48.2625C84.2871 48.3776 84.1487 48.5771 84.1114 48.8054L82.3281 59.6462Z" fill="#E5E5E5"/>
<path d="M70.7413 16.9091C70.7413 16.9091 70.9422 20.7176 70.8585 21.0851C70.7748 21.4526 69.1087 22.5383 68.6231 22.9392C68.1375 23.3401 71.252 26.4053 72.8093 27.1152C74.3665 27.8251 79.1304 25.9794 79.2141 23.6241C79.2979 21.2688 78.3769 19.2894 77.6569 19.1892C76.9369 19.089 70.7413 16.9091 70.7413 16.9091Z" fill="#FFCEA9"/>
<path d="M70.314 21.6781C70.314 21.6781 73.0853 25.7873 76.945 26.1715C78.159 24.9771 78.2678 20.7176 76.5849 19.3562C76.5849 19.3562 78.1338 18.1118 79.1888 18.354C80.3291 19.0394 81.178 20.118 81.5749 21.3858C82.5628 24.2134 83.0335 27.1951 82.9647 30.1888C82.8977 34.2228 82.9647 44.3872 82.9647 44.3872C82.5088 46.8267 81.0276 48.9548 78.8957 50.2336C76.1145 51.8006 72.8391 52.2516 69.7363 51.4947C68.1749 51.1629 66.9032 50.0369 66.3874 48.5297C66.5632 45.7068 67.6851 39.8854 67.2246 36.3275C66.7642 32.7695 66.0023 30.122 65.8097 27.2489C65.6171 24.3758 66.1865 24.4259 67.6349 23.4069C68.4867 22.7694 69.3819 22.1918 70.314 21.6781Z" fill="#F4F4F4"/>
<path d="M74.7515 54.443C74.0581 53.9863 73.3367 53.5734 72.5914 53.2069C71.888 52.99 71.2494 52.6026 70.7328 52.0793C70.0546 51.4195 68.9411 48.9139 68.1541 46.4668C67.3572 43.7126 67.04 40.8424 67.2164 37.9812C67.5513 34.5569 68.7904 29.7545 69.1085 27.7834C69.4267 25.8123 68.782 25.0272 67.861 24.3006C66.781 23.4654 65.2907 23.8245 64.5121 26.5891C63.4877 30.409 62.8924 34.3307 62.7372 38.2818C62.7029 41.22 63.1556 44.1436 64.0767 46.9345C64.9022 49.322 66.0125 51.6017 67.3838 53.7247C67.769 54.3678 67.8862 54.9357 68.4639 56.2303C69.0221 57.5277 69.8833 58.6732 70.9756 59.5711C71.9468 60.2726 72.3989 60.3645 72.65 60.2309C72.9012 60.0973 72.8845 59.7548 72.4742 59.3957C71.7872 58.8618 71.2029 58.2081 70.7495 57.4664C70.7495 57.4664 71.5868 58.3016 72.1477 58.7776C72.6394 59.1885 73.1826 59.5339 73.7636 59.8049C74.3329 60.0555 75.1199 59.5794 74.718 59.1952C74.3161 58.811 73.8808 58.6273 73.1022 57.9341C72.6699 57.5655 72.2821 57.1478 71.9468 56.6896C72.5177 57.119 73.1225 57.5016 73.7552 57.8339C74.2569 58.144 74.8398 58.2981 75.4297 58.2765C75.7227 58.2765 76.0911 57.8506 75.5301 57.4413C74.7582 57.0471 74.0383 56.559 73.3868 55.9881C72.7673 55.37 72.4156 54.8522 72.5914 54.8438C72.7673 54.8355 73.1022 55.2113 73.8222 55.4452C74.5422 55.679 75.3292 55.4452 75.4213 55.0694C75.5134 54.6935 75.4297 54.777 74.7515 54.443Z" fill="#FFCEA9"/>
<path d="M79.3731 11.213C78.9126 8.25643 76.7861 6.02645 73.7301 6.20184C71.1971 6.31356 69.0233 8.03753 68.3432 10.4742C67.663 12.9108 68.6306 15.5074 70.7412 16.9091C70.8505 17.3573 71.0106 17.7916 71.2184 18.2037C72.2985 19.4648 75.5553 20.2415 76.493 20.1079C77.6355 20.0029 78.5996 19.2164 78.9294 18.1201C79.9341 15.7649 79.6159 12.6663 79.3731 11.213Z" fill="#FFCEA9"/>
<path d="M70.7412 16.9091L71.0259 14.3367C71.0259 14.3367 68.916 8.89119 73.8976 9.93519C77.1879 10.6284 78.0084 10.9291 79.0131 8.72415C80.0178 6.51922 76.5014 4.54815 72.3152 5.09103C69.3304 5.40645 67.0813 7.94367 67.1327 10.9374C67.2164 12.541 67.6518 15.8233 70.7412 16.9091Z" fill="#3A2C6D"/>
<path d="M62.2178 31.6587C62.2178 31.6587 64.9304 34.3564 68.1538 33.5797C68.6143 33.2707 69.711 26.9649 69.711 26.9649C69.711 26.9649 69.711 23.4654 67.0319 23.5573C64.3527 23.6492 62.2178 31.6587 62.2178 31.6587Z" fill="#EDEDED"/>
<path d="M82.7467 26.4304C83.5074 26.3968 84.2264 26.074 84.7561 25.5284C84.6473 24.1169 82.8388 18.7549 79.1885 18.354C80.185 19.0439 80.975 19.9907 81.4741 21.0935C82.0355 22.8371 82.461 24.6214 82.7467 26.4304Z" fill="#EDEDED"/>
<rect width="124" height="124" fill="white" style="mix-blend-mode:color"/>
</svg>
