<svg width="124" height="124" viewBox="0 0 124 124" fill="none" xmlns="http://www.w3.org/2000/svg">
<path opacity="0.4" d="M90.4054 91.6094L53.0581 70.0152L57.7395 67.297L95.0963 88.8817L90.4054 91.6094Z" fill="#D6D8E5"/>
<path d="M104.837 83.4643L67.3386 61.7754L72.0295 18.9468L100.156 35.2088L104.837 83.4643Z" fill="#C65555"/>
<path d="M95.0962 88.8818L57.5881 67.2023L62.279 24.3738L90.4053 40.6357L95.0962 88.8818Z" fill="#FF6C6C"/>
<path d="M95.0961 88.8818L104.837 83.4643L100.156 35.2088L90.4053 40.6358L95.0961 88.8818Z" fill="#DD6262"/>
<path d="M62.2791 24.3738L72.0296 18.9468L70.8853 29.3462L62.2791 24.3738Z" fill="#C65555"/>
<path d="M83.3689 36.4684L81.6382 35.4645C81.6382 31.4203 79.2644 26.7605 76.342 25.0462C73.4197 23.332 71.0553 25.2735 71.0553 29.3177L69.3152 28.3138C69.3152 23.171 72.474 20.8032 76.342 23.0384C80.2101 25.2735 83.3689 31.3256 83.3689 36.4684Z" fill="#20232D"/>
<path d="M92.5049 30.871L90.7742 29.867C90.7742 25.8228 88.4004 21.163 85.478 19.4488C82.5557 17.7345 80.1913 19.6761 80.1913 23.7203L78.4512 22.7163C78.4512 17.5735 81.6099 15.2057 85.478 17.4409C89.3461 19.6761 92.5049 25.7755 92.5049 30.871Z" fill="#20232D"/>
<path opacity="0.4" d="M56.8126 119L3 87.9062L9.75258 83.9757L63.5652 115.079L56.8126 119Z" fill="#D6D8E5"/>
<path d="M77.6 107.265L23.5793 76.0294L30.3319 14.3344L70.8474 37.766L77.6 107.265Z" fill="#C65555"/>
<path d="M63.5653 115.079L9.53516 83.8431L16.2877 22.1481L56.8127 45.5702L63.5653 115.079Z" fill="#FF6C6C"/>
<path d="M63.5651 115.079L77.5999 107.265L70.8473 37.766L56.8125 45.5702L63.5651 115.079Z" fill="#DD6262"/>
<path d="M16.2876 22.148L30.3318 14.3344L28.6863 29.3177L16.2876 22.148Z" fill="#C65555"/>
<path d="M46.6743 39.575L44.1776 38.088C44.1776 32.2632 40.754 25.5482 36.5549 23.1236C32.3558 20.699 28.9228 23.4456 28.9228 29.2704L26.426 27.8307C26.426 20.4148 30.9656 17.0052 36.5549 20.2538C42.1442 23.5024 46.6743 32.159 46.6743 39.575Z" fill="#20232D"/>
<path d="M59.8484 31.515L57.3516 30.0659C57.3516 24.2412 53.9281 17.5261 49.729 15.0921C45.5299 12.658 42.0969 15.4236 42.0969 21.2483L39.6001 19.8087C39.6001 12.3833 44.1491 8.98318 49.729 12.2318C55.3088 15.4804 59.8484 24.0897 59.8484 31.515Z" fill="#20232D"/>
<path opacity="0.4" d="M98.4156 117.949L80.1628 107.464L100.704 95.5873L118.957 106.081L98.4156 117.949Z" fill="#D6D8E5"/>
<path d="M101.423 93.8352L81.8464 82.5172L101.423 71.1992L121 82.5172L101.423 93.8352Z" fill="#EFDA86"/>
<path d="M119.676 105.655L101.423 116.206V95.0948L119.676 84.5439V105.655Z" fill="#D1B66B"/>
<path d="M101.423 116.206L83.1704 105.655V84.5439L101.423 95.0948V116.206Z" fill="#E2C979"/>
<path opacity="0.1" d="M83.1704 84.5439V90.0656L101.423 100.503V95.1232L83.1704 84.5439Z" fill="black"/>
<path opacity="0.1" d="M119.676 84.5439V90.4634L101.423 100.503V95.1232L119.676 84.5439Z" fill="black"/>
<path d="M81.8464 82.5172V88.3703L101.423 99.5368V93.8352L81.8464 82.5172Z" fill="#E2C979"/>
<path d="M101.423 99.5368L121 88.8249V82.5172L101.423 93.8352V99.5368Z" fill="#D1B66B"/>
</svg>
