<svg width="124" height="124" viewBox="0 0 124 124" fill="none" xmlns="http://www.w3.org/2000/svg">
<path opacity="0.4" d="M90.4049 91.6095L53.0576 70.0152L57.739 67.297L95.0958 88.8818L90.4049 91.6095Z" fill="#D6D8E5"/>
<path d="M104.837 83.4642L67.3389 61.7753L72.0297 18.9468L100.156 35.2088L104.837 83.4642Z" fill="#C65555"/>
<path d="M95.0959 88.8818L57.5879 67.2023L62.2788 24.3738L90.4051 40.6357L95.0959 88.8818Z" fill="#FF6C6C"/>
<path d="M95.0961 88.8818L104.837 83.4643L100.156 35.2088L90.4053 40.6357L95.0961 88.8818Z" fill="#DD6262"/>
<path d="M62.2793 24.3738L72.0299 18.9468L70.8855 29.3461L62.2793 24.3738Z" fill="#C65555"/>
<path d="M83.3691 36.4684L81.6384 35.4645C81.6384 31.4203 79.2646 26.7605 76.3423 25.0462C73.4199 23.332 71.0556 25.2735 71.0556 29.3177L69.3154 28.3138C69.3154 23.171 72.4742 20.8032 76.3423 23.0384C80.2104 25.2735 83.3691 31.3256 83.3691 36.4684Z" fill="#20232D"/>
<path d="M92.5049 30.871L90.7742 29.8671C90.7742 25.8229 88.4004 21.1631 85.478 19.4488C82.5557 17.7345 80.1913 19.6761 80.1913 23.7203L78.4512 22.7163C78.4512 17.5735 81.6099 15.2057 85.478 17.4409C89.3461 19.6761 92.5049 25.7755 92.5049 30.871Z" fill="#20232D"/>
<path opacity="0.4" d="M56.8126 119L3 87.9062L9.75258 83.9757L63.5652 115.079L56.8126 119Z" fill="#D6D8E5"/>
<path d="M77.5998 107.265L23.5791 76.0294L30.3317 14.3344L70.8472 37.766L77.5998 107.265Z" fill="#C65555"/>
<path d="M63.5653 115.079L9.53516 83.8431L16.2877 22.1481L56.8127 45.5702L63.5653 115.079Z" fill="#FF6C6C"/>
<path d="M63.5651 115.079L77.5999 107.265L70.8473 37.766L56.8125 45.5702L63.5651 115.079Z" fill="#DD6262"/>
<path d="M16.2881 22.1481L30.3323 14.3344L28.6867 29.3177L16.2881 22.1481Z" fill="#C65555"/>
<path d="M46.6741 39.575L44.1773 38.088C44.1773 32.2633 40.7537 25.5482 36.5547 23.1236C32.3556 20.699 28.9225 23.4456 28.9225 29.2704L26.4258 27.8308C26.4258 20.4149 30.9653 17.0052 36.5547 20.2539C42.144 23.5025 46.6741 32.1591 46.6741 39.575Z" fill="#20232D"/>
<path d="M59.8489 31.515L57.3521 30.0659C57.3521 24.2412 53.9285 17.5261 49.7295 15.0921C45.5304 12.658 42.0973 15.4236 42.0973 21.2483L39.6006 19.8087C39.6006 12.3833 44.1496 8.98318 49.7295 12.2318C55.3093 15.4804 59.8489 24.0897 59.8489 31.515Z" fill="#20232D"/>
<path opacity="0.4" d="M98.4159 117.949L80.1631 107.464L100.705 95.5873L118.957 106.081L98.4159 117.949Z" fill="#D6D8E5"/>
<path d="M101.424 93.8352L81.8467 82.5171L101.424 71.1991L121 82.5171L101.424 93.8352Z" fill="#EFDA86"/>
<path d="M119.676 105.655L101.423 116.206V95.0948L119.676 84.544V105.655Z" fill="#D1B66B"/>
<path d="M101.423 116.206L83.1699 105.655V84.544L101.423 95.0948V116.206Z" fill="#E2C979"/>
<path opacity="0.1" d="M83.1699 84.544V90.0657L101.423 100.503V95.1232L83.1699 84.544Z" fill="black"/>
<path opacity="0.1" d="M119.676 84.544V90.4634L101.423 100.503V95.1232L119.676 84.544Z" fill="black"/>
<path d="M81.8467 82.5172V88.3703L101.424 99.5368V93.8352L81.8467 82.5172Z" fill="#E2C979"/>
<path d="M101.423 99.5368L121 88.8249V82.5172L101.423 93.8352V99.5368Z" fill="#D1B66B"/>
<rect width="124" height="124" fill="white" style="mix-blend-mode:color"/>
</svg>
