<svg width="124" height="124" viewBox="0 0 124 124" fill="none" xmlns="http://www.w3.org/2000/svg">
<ellipse opacity="0.3" cx="57.9315" cy="98.5749" rx="38.9315" ry="22.4251" fill="#D6D8E5"/>
<ellipse cx="61.5399" cy="92.503" rx="38.9315" ry="22.4251" fill="#DD990E"/>
<path d="M22.6252 92.837V82.6226L30.3195 89.4545L22.6252 92.837Z" fill="#DD990E"/>
<path d="M100.471 82.8898V92.503L96.5448 96.6623L94.6191 85.6627L100.471 82.8898Z" fill="#DD990E"/>
<ellipse cx="61.5399" cy="82.8898" rx="38.9315" ry="22.4251" fill="#F9CB07"/>
<path d="M89.3613 83.583C88.9678 87.3581 86.2719 91.0998 81.2569 93.9729C70.3728 100.237 52.7238 100.237 41.8398 93.9729C36.8163 91.0831 34.1204 87.3581 33.7353 83.583C33.2665 79.1648 35.9707 74.6464 41.8398 71.2805C52.7238 64.9998 70.3728 64.9998 81.2569 71.2805C87.151 74.6464 89.8302 79.1648 89.3613 83.583Z" fill="#CC8B09"/>
<path d="M89.3614 83.583C88.9679 87.3581 86.272 91.0998 81.2569 93.9729C70.3728 100.237 52.7239 100.237 41.8398 93.9729C36.8164 91.0831 34.1205 87.3581 33.7354 83.583C34.1205 79.8079 36.8164 76.0662 41.8398 73.2015C52.7239 66.9208 70.3728 66.9208 81.2569 73.2015C86.3138 76.0913 88.9679 79.8079 89.3614 83.583Z" fill="#E8A30A"/>
<path fill-rule="evenodd" clip-rule="evenodd" d="M61.138 78.3296C60.7958 78.3285 60.4541 78.3564 60.1166 78.4132C59.6561 78.48 59.1454 78.5719 58.5761 78.6888C58.0067 78.8057 57.4123 78.9644 56.8011 79.1481C56.2052 79.3252 55.6232 79.5458 55.0597 79.808L59.5221 82.3887L60.3594 82.1048C61.498 81.7289 62.5697 81.4032 63.5827 81.1443C64.5294 80.8869 65.5002 80.7274 66.4796 80.6682C67.3709 80.6077 68.2664 80.6667 69.142 80.8436C70.0421 81.0327 70.9049 81.3685 71.6956 81.8375C72.4688 82.2228 73.1314 82.7975 73.6212 83.5079C73.945 84.0288 74.0474 84.657 73.9059 85.2535C73.7143 85.9086 73.3533 86.5019 72.8593 86.974C72.2434 87.5886 71.5578 88.1295 70.8165 88.5859L73.6631 90.2563L72.0807 91.1333L69.209 89.4629C67.8419 90.1382 66.4118 90.6781 64.9391 91.0748C63.3982 91.4987 61.8242 91.7921 60.2338 91.9518L58.7268 89.2708C59.1469 89.2599 59.5661 89.2265 59.9826 89.1705C60.6131 89.0993 61.2392 88.9933 61.858 88.8532C62.5529 88.7028 63.2813 88.5191 64.0516 88.2936C64.7988 88.067 65.5291 87.7879 66.2368 87.4584L61.7827 84.8943L61.205 85.0948L60.5938 85.2785C59.4719 85.646 58.4505 85.9383 57.5128 86.1137C56.6496 86.3136 55.7693 86.4311 54.8838 86.4645C54.1074 86.492 53.3307 86.419 52.5731 86.2473C51.8183 86.0769 51.0931 85.7954 50.4214 85.4121C49.6871 85.0301 49.051 84.4842 48.5627 83.8169C48.196 83.321 48.0179 82.7112 48.0604 82.0964C48.1258 81.4567 48.3825 80.8515 48.7971 80.3592C49.3068 79.7098 49.9173 79.1458 50.6056 78.6888L47.9683 77.1687L49.5172 76.2751L52.1293 77.7784C53.356 77.1743 54.6445 76.7039 55.9722 76.3753C57.2351 76.0536 58.5193 75.8219 59.8152 75.6821L61.138 78.3296ZM53.5275 83.0151C54.1164 83.3507 54.7948 83.4965 55.4699 83.4327C56.3761 83.3264 57.2686 83.1249 58.1323 82.8314L53.9461 80.4176C52.4056 81.4199 52.2717 82.2885 53.5275 83.0151ZM66.1279 83.8587C66.8507 83.7585 67.5866 83.8901 68.2294 84.2345C69.435 84.9277 69.1504 85.8214 67.3922 86.8988L63.206 84.5018C64.1601 84.2059 65.1376 83.9907 66.1279 83.8587Z" fill="#CC8B09"/>
<path d="M58.7268 89.2875C58.7519 88.7867 58.7519 88.2849 58.7268 87.7841L60.4431 88.8782L59.698 90.0141L58.7268 89.2875Z" fill="#CC8B09"/>
<path d="M73.6379 90.2396V88.7362L69.929 89.0202L72.0555 90.4651L73.6379 90.2396Z" fill="#CC8B09"/>
<path d="M73.9478 84.7106V83.1905L71.1765 84.1927L73.9478 84.7106Z" fill="#CC8B09"/>
<path d="M62.4692 84.6354L63.3902 83.7501L66.6387 85.9967L66.4377 86.6566C66.4377 86.6566 64.0098 85.6293 63.926 85.5708L62.4692 84.6354Z" fill="#CC8B09"/>
<path d="M53.9546 79.8915L58.2747 82.3303L59.1538 81.6872C59.1538 81.6872 58.6096 81.0691 58.5761 81.0107C58.1864 80.5714 57.7319 80.194 57.2282 79.8915C56.91 79.8247 54.8588 78.9143 54.8588 78.9143L53.9546 79.8915Z" fill="#CC8B09"/>
<path d="M61.138 78.3296V76.8263L59.1537 76.1832L58.7351 77.3691L58.8356 77.9037L61.138 78.3296Z" fill="#CC8B09"/>
<path d="M47.9683 77.2439V75.7405L50.2623 75.9827L49.5255 77.4443L47.9683 77.2439Z" fill="#CC8B09"/>
<path d="M48.052 82.3553V80.7851H50.6893L50.0446 82.1882L48.8976 83.441L48.052 82.3553Z" fill="#CC8B09"/>
<path fill-rule="evenodd" clip-rule="evenodd" d="M61.138 76.8263C60.7958 76.8251 60.4541 76.8531 60.1166 76.9098C59.6561 76.9766 59.1454 77.0685 58.5761 77.1854C58.0067 77.3024 57.4123 77.4527 56.8011 77.6364C56.205 77.8163 55.623 78.0396 55.0597 78.3046L59.5305 80.877L60.3677 80.6014C61.5064 80.2172 62.578 79.8998 63.5911 79.6326C64.5395 79.3833 65.5095 79.2239 66.4879 79.1565C67.3796 79.1029 68.2745 79.1647 69.1504 79.3402C70.0488 79.5307 70.9109 79.8634 71.7039 80.3258C72.477 80.7114 73.1395 81.286 73.6296 81.9962C73.9542 82.5168 74.0567 83.1453 73.9142 83.7417C73.7208 84.3961 73.3602 84.989 72.8677 85.4623C72.2534 86.0763 71.5676 86.6146 70.8248 87.0658L73.6714 88.7362L72.0807 89.6299L69.209 87.9595C67.8417 88.632 66.4115 89.1691 64.9391 89.5631C63.3993 89.9938 61.825 90.29 60.2338 90.4484L58.7268 87.7674C59.1469 87.7566 59.5661 87.7231 59.9826 87.6672C60.5436 87.6004 61.1715 87.5001 61.858 87.3498C62.5446 87.1995 63.2813 87.0074 64.0516 86.7902C64.8001 86.5673 65.5306 86.2881 66.2368 85.955L61.7827 83.3993L61.205 83.5998L60.5938 83.7835C59.4719 84.151 58.4505 84.435 57.5128 84.6187C56.6496 84.8186 55.7693 84.9361 54.8838 84.9695C54.1073 85.0011 53.33 84.9281 52.5731 84.7523C51.8181 84.5824 51.0929 84.3009 50.4214 83.9171C49.6871 83.5351 49.051 82.9892 48.5627 82.3219C48.1973 81.8254 48.0194 81.216 48.0604 80.6014C48.1243 79.9613 48.3812 79.3557 48.7971 78.8642C49.3068 78.2147 49.9173 77.6508 50.6056 77.1938L47.9683 75.6737L49.5172 74.7801L52.1293 76.2834C53.3558 75.6767 54.6442 75.2035 55.9722 74.8719C57.2369 74.5582 58.5205 74.3267 59.8152 74.1787L61.138 76.8263ZM53.5275 81.5034C54.115 81.8426 54.7945 81.9887 55.4699 81.921C56.376 81.8182 57.2685 81.6194 58.1323 81.328L53.9461 78.9143C52.4056 79.9165 52.2717 80.7851 53.5275 81.5034ZM66.1279 82.3553C66.8508 82.2485 67.5888 82.3805 68.2294 82.7312C69.435 83.3937 69.1559 84.2818 67.3922 85.3954L63.206 82.9984C64.159 82.6985 65.1368 82.4833 66.1279 82.3553Z" fill="#F9CA06"/>
<ellipse cx="61.5399" cy="79.9249" rx="38.9315" ry="22.4251" fill="#DD990E"/>
<path d="M22.6252 80.259V70.0445L30.3195 76.8764L22.6252 80.259Z" fill="#DD990E"/>
<path d="M100.471 70.3118V79.9166L96.5448 84.0842L94.6191 73.0846L100.471 70.3118Z" fill="#DD990E"/>
<ellipse cx="61.5399" cy="70.3118" rx="38.9315" ry="22.4251" fill="#F9CB07"/>
<path d="M89.3613 71.005C88.9678 74.7801 86.2719 78.5218 81.2569 81.3948C70.3728 87.6588 52.7238 87.6588 41.8398 81.3948C36.8163 78.5051 34.1204 74.7801 33.7353 71.005C33.2665 66.5868 35.9707 62.0683 41.8398 58.6941C52.7238 52.4218 70.3728 52.4218 81.2569 58.6941C87.151 62.0683 89.8302 66.5868 89.3613 71.005Z" fill="#CC8B09"/>
<path d="M89.3614 71.005C88.9679 74.7801 86.272 78.5218 81.2569 81.3948C70.3728 87.6588 52.7239 87.6588 41.8398 81.3948C36.8164 78.505 34.1205 74.7801 33.7354 71.005C34.1205 67.2299 36.8164 63.4882 41.8398 60.6234C52.7239 54.3427 70.3728 54.3427 81.2569 60.6234C86.3138 63.5132 88.9679 67.2299 89.3614 71.005Z" fill="#E8A30A"/>
<path fill-rule="evenodd" clip-rule="evenodd" d="M61.138 65.7516C60.7958 65.7504 60.4541 65.7784 60.1166 65.8351C59.6561 65.9019 59.1454 65.9938 58.5761 66.1107C58.0067 66.2276 57.4123 66.3863 56.8011 66.5701C56.2052 66.7472 55.6232 66.9677 55.0597 67.2299L59.5305 69.8107L60.3677 69.5267C61.5064 69.1508 62.578 68.8251 63.5911 68.5662C64.5378 68.3089 65.5085 68.1493 66.4879 68.0901C67.3793 68.0297 68.2747 68.0887 69.1504 68.2655C70.0505 68.4546 70.9133 68.7904 71.7039 69.2594C72.4772 69.6447 73.1397 70.2194 73.6296 70.9298C73.9533 71.4508 74.0558 72.0789 73.9142 72.6754C73.7226 73.3305 73.3617 73.9238 72.8677 74.3959C72.2518 75.0105 71.5662 75.5515 70.8248 76.0078L73.6714 77.6782L72.0807 78.5552L69.209 76.8848C67.8419 77.5601 66.4118 78.1 64.9391 78.4967C63.3982 78.9207 61.8242 79.214 60.2338 79.3737L58.7268 76.6927C59.1469 76.6819 59.5661 76.6484 59.9826 76.5925C60.6131 76.5212 61.2392 76.4152 61.858 76.2751C62.5529 76.1248 63.2813 75.941 64.0516 75.7155C64.7988 75.4889 65.5291 75.2098 66.2368 74.8803L61.7827 72.3163L61.205 72.5167L60.5938 72.7004C59.4719 73.0679 58.4505 73.3603 57.5128 73.5356C56.6496 73.7356 55.7693 73.853 54.8838 73.8864C54.1074 73.9139 53.3307 73.8409 52.5731 73.6693C51.8183 73.4989 51.0931 73.2174 50.4214 72.8341C49.6871 72.452 49.051 71.9061 48.5627 71.2388C48.196 70.7429 48.0179 70.1331 48.0604 69.5183C48.1258 68.8787 48.3825 68.2734 48.7971 67.7811C49.3068 67.1317 49.9173 66.5678 50.6056 66.1107L47.9683 64.5907L49.5172 63.697L52.1293 65.2004C53.356 64.5963 54.6445 64.1258 55.9722 63.7972C57.2351 63.4755 58.5193 63.2438 59.8152 63.104L61.138 65.7516ZM53.5275 70.4371C54.1164 70.7726 54.7948 70.9185 55.4699 70.8547C56.3761 70.7484 57.2686 70.5468 58.1323 70.2533L53.9461 67.8396C52.4056 68.8418 52.2717 69.7104 53.5275 70.4371ZM66.1279 71.2806C66.8508 71.1738 67.5888 71.3058 68.2294 71.6564C69.435 72.3497 69.1504 73.2433 67.3922 74.3207L63.206 71.9237C64.1601 71.6278 65.1376 71.4127 66.1279 71.2806Z" fill="#CC8B09"/>
<path d="M58.7268 76.7094C58.777 76.6008 58.7268 75.1977 58.7268 75.1977L60.4431 76.3002L59.698 77.436L58.7268 76.7094Z" fill="#CC8B09"/>
<path d="M73.6379 77.6615V76.1581L69.929 76.4338L72.0555 77.887L73.6379 77.6615Z" fill="#CC8B09"/>
<path d="M73.9478 72.1325V70.6124L71.1765 71.6147L73.9478 72.1325Z" fill="#CC8B09"/>
<path d="M62.4692 72.0323L63.3902 71.147L66.6387 73.3937L66.4377 74.0535C66.4377 74.0535 64.0098 73.0262 63.926 72.9677L62.4692 72.0323Z" fill="#CC8B09"/>
<path d="M53.9546 67.3134L58.2747 69.7521L59.1538 69.109C59.1538 69.109 58.6096 68.491 58.5761 68.4325C58.1864 67.9933 57.7319 67.6159 57.2282 67.3134C56.91 67.2465 54.8588 66.3362 54.8588 66.3362L53.9546 67.3134Z" fill="#CC8B09"/>
<path d="M61.138 65.7516V64.2482L59.1537 63.6051L58.7351 64.7827L58.8356 65.3256L61.138 65.7516Z" fill="#CC8B09"/>
<path d="M47.9683 64.6658V63.1625L50.2623 63.4047L49.5255 64.8663L47.9683 64.6658Z" fill="#CC8B09"/>
<path d="M48.052 69.7772V68.207H50.6893L50.0446 69.6102L48.8976 70.863L48.052 69.7772Z" fill="#CC8B09"/>
<path fill-rule="evenodd" clip-rule="evenodd" d="M61.138 64.2482C60.7958 64.247 60.4541 64.275 60.1166 64.3317C59.6561 64.3986 59.1454 64.4904 58.5761 64.6074C58.0067 64.7243 57.4123 64.8746 56.8011 65.0584C56.205 65.2382 55.623 65.4616 55.0597 65.7265L59.5305 68.2989L60.3677 68.015C61.5064 67.6391 62.578 67.3218 63.5911 67.0545C64.5395 66.8052 65.5095 66.6458 66.4879 66.5784C67.3796 66.5249 68.2745 66.5866 69.1504 66.7622C70.0488 66.9526 70.9109 67.2854 71.7039 67.7477C72.477 68.1333 73.1395 68.708 73.6296 69.4181C73.9542 69.9387 74.0567 70.5672 73.9142 71.1637C73.7208 71.818 73.3602 72.4109 72.8677 72.8842C72.2534 73.4982 71.5676 74.0366 70.8248 74.4878L73.6714 76.1582L72.0807 77.0435L69.209 75.3731C67.8417 76.0456 66.4115 76.5827 64.9391 76.9767C63.3993 77.4073 61.825 77.7035 60.2338 77.862L58.7268 75.1726C59.147 75.1699 59.5665 75.1392 59.9826 75.0808C60.5436 75.0139 61.1715 74.9054 61.858 74.7634C62.5446 74.6214 63.2813 74.4209 64.0516 74.2038C64.7988 73.9771 65.529 73.698 66.2368 73.3686L61.7827 70.8129L61.205 71.0133L60.5938 71.1971C59.4719 71.5646 58.4505 71.8485 57.5128 72.0323C56.6496 72.2322 55.7693 72.3497 54.8838 72.3831C54.1073 72.4147 53.33 72.3416 52.5731 72.1659C51.8181 71.996 51.0929 71.7145 50.4214 71.3307C49.6871 70.9487 49.051 70.4028 48.5627 69.7355C48.1973 69.2389 48.0194 68.6296 48.0604 68.015C48.1243 67.3749 48.3812 66.7692 48.7971 66.2778C49.3068 65.6283 49.9173 65.0644 50.6056 64.6074L47.9683 63.0873L49.5172 62.1936L52.1293 63.697C53.3558 63.0903 54.6442 62.617 55.9722 62.2855C57.2369 61.9718 58.5205 61.7402 59.8152 61.5923L61.138 64.2482ZM53.5275 68.9253C54.115 69.2646 54.7945 69.4107 55.4699 69.3429C56.376 69.2401 57.2685 69.0413 58.1323 68.7499L53.9461 66.3362C52.4056 67.3385 52.2717 68.2071 53.5275 68.9253ZM66.1279 69.7772C66.8508 69.6705 67.5888 69.8025 68.2294 70.1531C69.435 70.8491 69.1559 71.7372 67.3922 72.8174L63.206 70.4203C64.159 70.1204 65.1368 69.9052 66.1279 69.7772Z" fill="#F9CA06"/>
<ellipse cx="64.0685" cy="65.668" rx="38.9315" ry="22.4251" fill="#DD990E"/>
<path d="M25.1453 66.0021V55.7876L32.8395 62.6195L25.1453 66.0021Z" fill="#DD990E"/>
<path d="M103 56.0549V65.668L99.065 69.8273L97.1394 58.8277L103 56.0549Z" fill="#DD990E"/>
<ellipse cx="64.0685" cy="56.0549" rx="38.9315" ry="22.4251" fill="#F9CB07"/>
<path d="M91.89 56.7481C91.4881 60.5315 88.7922 64.2649 83.7772 67.1379C72.8931 73.4019 55.2441 73.4019 44.36 67.1379C39.3366 64.2481 36.6407 60.5315 36.2556 56.7481C35.7867 52.3299 38.491 47.8114 44.36 44.4456C55.2441 38.1649 72.8931 38.1649 83.7772 44.4456C89.6629 47.8114 92.3505 52.3299 91.89 56.7481Z" fill="#CC8B09"/>
<path d="M91.8898 56.7481C91.4879 60.5315 88.792 64.2649 83.777 67.1379C72.8929 73.4019 55.2439 73.4019 44.3598 67.1379C39.3364 64.2481 36.6405 60.5315 36.2554 56.7481C36.6405 52.973 39.3448 49.2313 44.3598 46.3665C55.2439 40.0858 72.8929 40.0858 83.777 46.3665C88.8255 49.2563 91.4879 52.973 91.8898 56.7481Z" fill="#E8A30A"/>
<path fill-rule="evenodd" clip-rule="evenodd" d="M63.6583 51.5031C63.3163 51.4983 62.9745 51.5235 62.6369 51.5782C62.1764 51.645 61.6657 51.7369 61.0964 51.8538C60.5271 51.9708 59.941 52.1295 59.3214 52.3132C58.7255 52.4903 58.1435 52.7108 57.58 52.973L62.0508 55.5538L62.8881 55.2698C64.0267 54.894 65.0984 54.5682 66.1114 54.3093C67.0583 54.0526 68.0289 53.8931 69.0083 53.8333C69.9024 53.7726 70.8006 53.8316 71.6791 54.0086C72.5632 54.2072 73.4107 54.5425 74.1908 55.0025C74.964 55.3878 75.6266 55.9626 76.1164 56.6729C76.4438 57.1925 76.5464 57.8222 76.4011 58.4185C76.2128 59.0751 75.8514 59.6692 75.3545 60.139C74.7403 60.7555 74.0545 61.2967 73.3117 61.7509L76.1583 63.4213L74.5927 64.2983L71.7209 62.6279C70.3539 63.3033 68.9238 63.8432 67.451 64.2398C65.9101 64.6638 64.3361 64.9571 62.7457 65.1168L61.2471 62.4358C61.6672 62.425 62.0864 62.3915 62.5029 62.3356C63.1334 62.2636 63.7594 62.1577 64.3784 62.0182C65.0649 61.8679 65.7933 61.6841 66.5635 61.4586C67.3118 61.2348 68.0422 60.9556 68.7487 60.6234L64.2946 58.0594L63.7169 58.2598L63.1058 58.4436C61.9839 58.811 60.9624 59.1034 60.0247 59.2788C59.1643 59.4781 58.2868 59.5956 57.4042 59.6295C56.625 59.657 55.8455 59.584 55.085 59.4124C54.3325 59.2433 53.6099 58.9618 52.9417 58.5772C52.2074 58.1954 51.5691 57.6529 51.0747 56.9903C50.7162 56.4872 50.5391 55.8778 50.5723 55.2614C50.6379 54.6243 50.8947 54.0218 51.3091 53.5326C51.8232 52.8872 52.433 52.324 53.1175 51.8622L50.4802 50.3421L52.0291 49.4485L54.6497 50.9518C55.8768 50.3487 57.1651 49.8784 58.4926 49.5487C59.7551 49.2255 61.0395 48.9939 62.3355 48.8555L63.6583 51.5031ZM56.0479 56.1802C56.6367 56.5157 57.3151 56.6616 57.9902 56.5978C58.8999 56.4957 59.7956 56.2941 60.661 55.9964L56.4748 53.5827C54.9343 54.5849 54.792 55.4452 56.0479 56.1635V56.1802ZM68.6566 57.0237C69.3766 56.9242 70.1097 57.0558 70.7497 57.3996C71.9554 58.0928 71.6707 58.9864 69.9125 60.0638L65.7263 57.6668C66.6833 57.3708 67.6635 57.1557 68.6566 57.0237Z" fill="#CC8B09"/>
<path d="M61.2554 62.4525C61.2972 62.3439 61.2554 60.9492 61.2554 60.9492L62.9298 62.0433L62.1847 63.1875L61.2554 62.4525Z" fill="#CC8B09"/>
<path d="M76.1582 63.4046V61.9012L72.4492 62.1852L74.5842 63.6301L76.1582 63.4046Z" fill="#CC8B09"/>
<path d="M76.468 57.8756V56.3555L73.6968 57.3578L76.468 57.8756Z" fill="#CC8B09"/>
<path d="M64.9895 57.8339L65.9105 56.9485L69.1589 59.1952L68.958 59.855C68.958 59.855 66.53 58.8361 66.4463 58.7693L64.9895 57.8339Z" fill="#CC8B09"/>
<path d="M56.4832 53.0565L60.7949 55.4953L61.674 54.8522C61.674 54.8522 61.1382 54.2342 61.0963 54.1757C60.7085 53.7345 60.2537 53.3569 59.7484 53.0565C59.4302 52.9981 57.379 52.0793 57.379 52.0793L56.4832 53.0565Z" fill="#CC8B09"/>
<path d="M63.6582 51.503V49.9913L61.674 49.3482L61.2554 50.5342L61.3558 51.0687L63.6582 51.503Z" fill="#CC8B09"/>
<path d="M50.4885 50.4089V48.9056L52.7826 49.1478L52.0458 50.6094L50.4885 50.4089Z" fill="#CC8B09"/>
<path d="M50.5723 55.5203V53.9585H53.2096L52.5649 55.3533L51.4262 56.6061L50.5723 55.5203Z" fill="#CC8B09"/>
<path fill-rule="evenodd" clip-rule="evenodd" d="M63.6583 49.9913C63.3161 49.9904 62.9744 50.0184 62.6369 50.0749C62.1764 50.1417 61.6657 50.2335 61.0964 50.3505C60.5271 50.4674 59.941 50.6177 59.3214 50.8015C58.7253 50.9814 58.1433 51.2047 57.58 51.4696L62.0508 54.0504L62.8881 53.7664C64.0267 53.3822 65.0984 53.0649 66.1114 52.806C67.0589 52.5508 68.0292 52.3885 69.0083 52.3215C69.9028 52.268 70.8004 52.3298 71.6791 52.5053C72.5643 52.7001 73.4124 53.0357 74.1908 53.4992C74.9661 53.8813 75.6294 54.4567 76.1164 55.1696C76.4438 55.6892 76.5464 56.3188 76.4011 56.9151C76.2109 57.5709 75.8498 58.1646 75.3545 58.6356C74.7403 59.2522 74.0545 59.7933 73.3117 60.2476L76.1583 61.918L74.5927 62.7949L71.7209 61.1245C70.3523 61.7963 68.9225 62.3361 67.451 62.7365C65.9101 63.1604 64.3361 63.4538 62.7457 63.6134L61.2471 60.9324C61.6672 60.9216 62.0864 60.8882 62.5029 60.8322C63.0639 60.7654 63.6835 60.6652 64.3784 60.5148C65.0733 60.3645 65.7933 60.1808 66.5635 59.9553C67.3118 59.7315 68.0422 59.4523 68.7487 59.1201L64.2946 56.556L63.7169 56.7564L63.1058 56.9402C61.9839 57.3077 60.9624 57.6 60.0247 57.7754C59.1643 57.9747 58.2868 58.0922 57.4042 58.1262C56.6251 58.1494 55.8461 58.0765 55.085 57.909C54.3336 57.7363 53.6115 57.4549 52.9417 57.0738C52.205 56.6918 51.5662 56.146 51.0747 55.4786C50.7168 54.9784 50.5397 54.3718 50.5723 53.7581C50.6378 53.1184 50.8945 52.5132 51.3091 52.0209C51.823 51.3754 52.4329 50.812 53.1175 50.3505L50.4802 48.8304L52.0291 47.9367L54.6497 49.4401C55.8753 48.8334 57.164 48.3629 58.4926 48.037C59.7551 47.7138 61.0395 47.4821 62.3355 47.3438L63.6583 49.9913ZM56.0479 54.6768C56.636 55.0137 57.3157 55.1569 57.9902 55.086C58.8997 54.9875 59.7955 54.7886 60.661 54.4931L56.4748 52.0793C54.9343 53.0816 54.792 53.9474 56.0479 54.6768ZM68.6566 55.5204C69.3767 55.4154 70.1115 55.5474 70.7497 55.8962C71.9554 56.5894 71.6707 57.4831 69.9125 58.5605L65.7263 56.1635C66.6822 55.8635 67.6628 55.6483 68.6566 55.5204Z" fill="#F9CA06"/>
<ellipse cx="63.2228" cy="51.4112" rx="38.9315" ry="22.4251" fill="#DD990E"/>
<path d="M24.3081 51.7536V41.5308L32.0023 48.371L24.3081 51.7536Z" fill="#DD990E"/>
<path d="M102.154 41.798V51.4112L98.2193 55.5788L96.2937 44.5709L102.154 41.798Z" fill="#DD990E"/>
<ellipse cx="63.2228" cy="41.798" rx="38.9315" ry="22.4251" fill="#F9CB07"/>
<path d="M91.0442 42.4996C90.6507 46.2747 87.9548 50.0164 82.9398 52.8811C72.0557 59.1451 54.4067 59.1451 43.5226 52.8811C38.4992 49.9913 35.8033 46.2747 35.4182 42.4996C34.9493 38.073 37.6536 33.563 43.5226 30.1888C54.4067 23.9164 72.0473 23.9164 82.9398 30.1888C88.8255 33.563 91.5047 38.073 91.0442 42.4996Z" fill="#CC8B09"/>
<path d="M91.0442 42.4996C90.6507 46.2747 87.9548 50.0164 82.9398 52.8811C72.0557 59.1451 54.4067 59.1451 43.5227 52.8811C38.4992 49.9913 35.8033 46.2747 35.4182 42.4996C35.8033 38.7161 38.4992 34.9828 43.5227 32.1097C54.4067 25.8374 72.0473 25.8374 82.9398 32.1097C87.9883 34.9995 90.6507 38.7161 91.0442 42.4996Z" fill="#E8A30A"/>
<path fill-rule="evenodd" clip-rule="evenodd" d="M62.8209 37.2462C62.4788 37.2415 62.1371 37.2666 61.7994 37.3214C61.339 37.3882 60.8282 37.48 60.2589 37.597C59.6896 37.7139 59.0952 37.8726 58.484 38.0563C57.8853 38.2334 57.3005 38.4539 56.7341 38.7161L61.1966 41.2969L62.0339 41.0129C63.1725 40.6371 64.2442 40.3197 65.2572 40.0525C66.2048 39.7992 67.1751 39.6397 68.1541 39.5764C69.0454 39.5159 69.9408 39.5749 70.8165 39.7518C71.7008 39.9495 72.5484 40.2849 73.3282 40.7457C74.1014 41.131 74.764 41.7057 75.2538 42.4161C75.5767 42.9374 75.6791 43.5651 75.5385 44.1616C75.3491 44.8177 74.9879 45.4116 74.4919 45.8822C73.8747 46.4987 73.1861 47.0399 72.4407 47.4941L75.2873 49.1645L73.7552 50.0414L70.8835 48.371C69.5168 49.0472 68.0866 49.5872 66.6135 49.983C65.07 50.4077 63.4931 50.7011 61.8999 50.8599L60.4012 48.179C60.6775 48.179 61.0962 48.179 61.6571 48.0871C61.7948 48.0645 61.9365 48.0425 62.0822 48.0198C62.5299 47.9502 63.0145 47.8748 63.5325 47.7614C64.219 47.611 64.9558 47.4273 65.7177 47.2018C66.4694 46.9803 67.2028 46.7011 67.9113 46.3666L63.4572 43.8025L62.8711 44.003L62.2683 44.1951C61.1464 44.5625 60.1166 44.8465 59.1873 45.0303C58.3241 45.2302 57.4438 45.3476 56.5583 45.381C55.7819 45.4089 55.0051 45.3359 54.2476 45.1639C53.4938 44.9902 52.7691 44.7089 52.0959 44.3287C51.365 43.9416 50.73 43.3966 50.2372 42.7335C49.8739 42.2355 49.6936 41.6279 49.7265 41.0129C49.7997 40.3753 50.0555 39.7722 50.4632 39.2757C50.9784 38.6284 51.5913 38.0649 52.28 37.6053L49.6511 36.1187L51.2 35.225L53.8122 36.7367C55.0375 36.1273 56.3262 35.654 57.6551 35.3252C58.918 35.0035 60.2022 34.7718 61.498 34.632L62.8209 37.2462ZM55.2104 41.9233C55.7988 42.2599 56.4776 42.4058 57.1528 42.3409C58.0587 42.2372 58.9511 42.0385 59.8152 41.7479L55.629 39.3258C54.0885 40.3364 53.9545 41.1967 55.2104 41.9651V41.9233ZM67.8108 42.7752C68.5327 42.6659 69.2707 42.7949 69.9123 43.1427C71.1179 43.8443 70.8332 44.7296 69.075 45.8153L64.8888 43.41C65.842 43.1123 66.8199 42.8999 67.8108 42.7752Z" fill="#CC8B09"/>
<path d="M60.4097 48.1957C60.4515 48.0871 60.4097 46.6923 60.4097 46.6923L62.0841 47.7864L61.3474 48.9307L60.4097 48.1957Z" fill="#CC8B09"/>
<path d="M75.3124 49.1478V47.6444L71.6118 47.9284L73.7384 49.3733L75.3124 49.1478Z" fill="#CC8B09"/>
<path d="M75.6306 43.6271V42.0987L72.8594 43.1009L75.6306 43.6271Z" fill="#CC8B09"/>
<path d="M64.1438 43.5436L65.0731 42.6583L68.3216 44.905L68.1207 45.5648C68.1207 45.5648 65.6927 44.5458 65.609 44.4874C65.5252 44.4289 64.1438 43.5436 64.1438 43.5436Z" fill="#CC8B09"/>
<path d="M55.6375 38.7997L59.9492 41.2385L60.8367 40.6037C60.8367 40.6037 60.2925 39.9773 60.2506 39.9189C59.8661 39.4776 59.414 39.0999 58.911 38.7997C58.5929 38.7412 56.5417 37.8225 56.5417 37.8225L55.6375 38.7997Z" fill="#CC8B09"/>
<path d="M62.8209 37.2462V35.7345L60.8367 35.0914L60.4097 36.2774L60.5185 36.8202L62.8209 37.2462Z" fill="#CC8B09"/>
<path d="M49.6511 36.1521V34.6487L51.9452 34.8993L51.2 36.3609L49.6511 36.1521Z" fill="#CC8B09"/>
<path d="M49.7349 41.2635V39.7017H52.3638L51.7275 41.1048L50.5805 42.3576L49.7349 41.2635Z" fill="#CC8B09"/>
<path fill-rule="evenodd" clip-rule="evenodd" d="M62.8209 35.7345C62.4787 35.7333 62.137 35.7613 61.7995 35.818C61.339 35.8848 60.8283 35.9767 60.259 36.0936C59.6897 36.2106 59.0952 36.3692 58.484 36.553C57.8854 36.7301 57.3006 36.9506 56.7342 37.2128L61.1967 39.7936L62.0339 39.5096C63.1726 39.1338 64.2442 38.808 65.2573 38.5491C66.204 38.2918 67.1747 38.1322 68.1541 38.0731C69.0455 38.0126 69.9409 38.0716 70.8165 38.2484C71.7022 38.4419 72.5505 38.7776 73.3283 39.2423C74.1015 39.6276 74.7641 40.2024 75.2539 40.9127C75.5777 41.4337 75.6801 42.0618 75.5386 42.6583C75.347 43.3134 74.986 43.9068 74.492 44.3788C73.8748 44.9954 73.1862 45.5365 72.4408 45.9907L75.2874 47.6611L73.7553 48.5381L70.8835 46.8677C69.5153 47.5403 68.0854 48.0801 66.6136 48.4796C65.0701 48.9043 63.4932 49.1977 61.9 49.3566L60.4013 46.6756C60.8214 46.6648 61.2407 46.6313 61.6572 46.5754C62.2877 46.5041 62.9138 46.3982 63.5326 46.258C64.2275 46.1077 64.9559 45.9239 65.7178 45.6984C66.4682 45.4732 67.2013 45.1941 67.9113 44.8632L63.4572 42.2992L62.8712 42.4996L62.2684 42.6834C61.1465 43.0508 60.1167 43.3432 59.1873 43.5186C58.3242 43.7185 57.4439 43.8359 56.5584 43.8693C55.782 43.8972 55.0052 43.8242 54.2476 43.6522C53.4928 43.4818 52.7677 43.2003 52.0959 42.817C51.3616 42.4349 50.7256 41.889 50.2373 41.2218C49.8721 40.7247 49.6915 40.1165 49.7265 39.5012C49.7998 38.8636 50.0555 38.2605 50.4633 37.764C50.9783 37.1165 51.5912 36.5529 52.2801 36.0936L49.6428 34.5736L51.1917 33.6799L53.8039 35.1833C55.031 34.5802 56.3193 34.1098 57.6468 33.7801C58.9097 33.4584 60.1939 33.2267 61.4897 33.0869L62.8209 35.7345ZM55.2104 40.42C55.7989 40.7566 56.4776 40.9025 57.1528 40.8376C58.0596 40.7342 58.9523 40.5326 59.8153 40.2362L55.6291 37.8225C54.0941 38.8247 53.9546 39.6906 55.2104 40.42ZM67.8109 41.2635C68.5336 41.1639 69.2693 41.2955 69.9123 41.6394C71.118 42.3326 70.8333 43.2262 69.0751 44.3036L64.8889 41.9066C65.843 41.6107 66.8205 41.3956 67.8109 41.2635Z" fill="#F9CA06"/>
<path d="M83.6012 40.6371C84.8467 42.839 86.3534 44.8832 88.0888 46.7257C88.5744 47.2853 92.275 45.8905 91.5214 45.4646C90.7679 45.0386 88.2981 41.6728 87.0757 39.4094C86.0475 36.7052 85.1754 33.9445 84.4635 31.1409C83.6933 28.368 83.0402 24.309 82.4793 22.388C82.1802 20.9468 81.0636 19.8133 79.6243 19.4899C78.2847 19.1809 77.414 19.5483 77.6568 21.1603C78.0838 24.0083 80.3108 35.0496 83.6012 40.6371Z" fill="#FFCEA9"/>
<path d="M81.4663 83.8921C82.6217 84.8275 84.3296 83.9756 84.4134 84.0592C85.7683 85.3159 87.191 86.4981 88.6749 87.6004C89.3949 88.1683 90.5252 88.9284 90.3494 90.0141C89.9894 91.9518 86.8665 91.3588 85.6943 90.7658C84.5222 90.1728 83.5594 89.1789 82.4459 88.4941C81.6505 88.0013 80.8719 87.7424 80.7714 86.7485C80.6374 86.1388 81.2905 83.8671 81.4663 83.8921Z" fill="#38226D"/>
<path d="M80.7296 86.3392C80.8803 87.2997 81.6505 87.567 82.404 88.0514C83.5343 88.753 84.5306 89.7636 85.7111 90.3565C86.8916 90.9495 89.5038 91.4507 90.2657 90.0642C89.8555 91.9351 86.7912 91.3504 85.6274 90.7658C84.4636 90.1812 83.4925 89.1789 82.3789 88.494C81.5836 88.0013 80.8049 87.7424 80.7045 86.7485C80.6929 86.6116 80.7014 86.4737 80.7296 86.3392Z" fill="#9C73FF"/>
<path d="M93.1878 77.152C94.3431 78.0958 96.3693 77.0685 96.453 77.152C97.6539 78.3701 98.9259 79.5163 100.262 80.5847C100.982 81.1526 102.113 81.9127 101.937 82.9984C101.577 84.9361 98.454 84.3431 97.2818 83.7501C96.1097 83.1571 95.1469 82.1716 94.0334 81.4784C93.238 80.9856 92.451 80.735 92.3589 79.7328C92.408 78.8157 92.6935 77.9268 93.1878 77.152Z" fill="#38226D"/>
<path d="M92.3337 79.4655C92.4844 80.426 93.2547 80.6849 94.0082 81.1777C95.1385 81.8792 96.1348 82.8898 97.3153 83.4828C98.4958 84.0758 101.116 84.5769 101.878 83.1905C101.46 85.0614 98.3953 84.4767 97.2316 83.8837C96.0678 83.2907 95.0966 82.3052 93.9831 81.612C93.1877 81.1276 92.4091 80.8687 92.3086 79.8664C92.3015 79.7323 92.3099 79.5977 92.3337 79.4655Z" fill="#9C73FF"/>
<path d="M66.0109 46.9763C64.7299 54.9608 68.2882 57.9341 72.9097 59.6379C76.2587 60.8573 80.9807 62.7365 80.9807 62.7365C80.9807 62.7365 80.9137 64.4821 80.8802 68.4159C80.8802 71.8819 81.2988 84.5268 81.2988 84.5268C82.4171 85.0832 83.7356 85.0676 84.8404 84.4851C84.8404 84.4851 86.699 74.7968 87.1009 70.4287C87.6367 64.5071 88.5493 60.6318 88.2395 59.3539C87.9716 58.2348 81.483 55.0527 79.4234 53.3405L93.0118 57.8339C92.7446 59.3055 92.6129 60.7983 92.6183 62.2938C92.7439 66.996 93.0034 77.1687 93.0034 77.1687C93.0034 77.1687 94.8705 78.5134 96.4612 77.1687C96.4612 77.1687 99.8855 57.0237 99.4669 54.3594C99.0734 51.8538 87.0925 46.6589 84.9827 44.8716C84.2385 44.2648 83.2687 44.0062 82.3203 44.1617L66.0109 46.9763Z" fill="#8C50FF"/>
<path d="M98.6128 50.2587L89.4785 44.9969C89.3149 44.9046 89.1147 44.9046 88.9511 44.9969L72.918 54.2259L82.3201 59.6463L98.6128 50.2587Z" fill="#F4F4F4"/>
<path d="M81.9016 57.7086L81.2066 58.1095C81.148 58.1095 81.1564 58.1931 81.2066 58.2348L81.8681 58.619C81.9369 58.652 82.017 58.652 82.0857 58.619L82.789 58.2181C82.8393 58.2181 82.8393 58.1262 82.789 58.0928L82.1192 57.7086C82.0515 57.6715 81.9693 57.6715 81.9016 57.7086Z" fill="#3A2C6D"/>
<path d="M82.8896 57.1407L82.1864 57.5415C82.1361 57.5415 82.1361 57.6334 82.1864 57.6668L82.8561 58.051C82.9249 58.084 83.005 58.084 83.0738 58.051L83.7687 57.6501C83.8273 57.6501 83.819 57.5583 83.7687 57.5248L83.1073 57.1407C83.0395 57.1035 82.9574 57.1035 82.8896 57.1407Z" fill="#3A2C6D"/>
<path d="M83.8859 56.5644L83.191 56.9653C83.1324 56.9653 83.1408 57.0572 83.191 57.0906L83.8608 57.4748C83.9286 57.5119 84.0107 57.5119 84.0785 57.4748L84.7734 57.0739C84.832 57.0739 84.8236 56.982 84.7734 56.9486L84.1036 56.5644C84.0348 56.5314 83.9547 56.5314 83.8859 56.5644Z" fill="#3A2C6D"/>
<path d="M84.8571 56.0048L84.1622 56.4057C84.1036 56.4057 84.112 56.4976 84.1622 56.531L84.8236 56.9152C84.8953 56.9485 84.978 56.9485 85.0497 56.9152L85.7446 56.5143C85.8032 56.5143 85.7948 56.4224 85.7446 56.389L85.0832 56.0048C85.0124 55.9677 84.9279 55.9677 84.8571 56.0048Z" fill="#3A2C6D"/>
<path d="M85.8449 55.4369L85.15 55.8378C85.0914 55.8378 85.0998 55.9296 85.15 55.963L85.8114 56.3472C85.8802 56.3802 85.9603 56.3802 86.0291 56.3472L86.7324 55.9463C86.7826 55.9463 86.7826 55.8545 86.7324 55.821L86.0626 55.4369C85.9948 55.3997 85.9127 55.3997 85.8449 55.4369Z" fill="#3A2C6D"/>
<path d="M86.833 54.8689L86.1297 55.2698C86.0795 55.2698 86.1297 55.3617 86.1297 55.3951L86.7995 55.7793C86.8683 55.8123 86.9484 55.8123 87.0172 55.7793L87.7121 55.3784C87.7707 55.3784 87.7624 55.2865 87.7121 55.2531L87.0507 54.8689C86.9829 54.8318 86.9008 54.8318 86.833 54.8689Z" fill="#3A2C6D"/>
<path d="M87.8124 54.301L87.1175 54.7019C87.0589 54.7019 87.0673 54.7937 87.1175 54.8272L87.779 55.2113C87.8506 55.2446 87.9333 55.2446 88.005 55.2113L88.6999 54.8104C88.7585 54.8104 88.7501 54.7186 88.6999 54.6852L88.0385 54.301C87.9677 54.2639 87.8832 54.2639 87.8124 54.301Z" fill="#3A2C6D"/>
<path d="M88.8256 53.733L88.1307 54.1339C88.0721 54.1339 88.0805 54.2258 88.1307 54.2592L88.7921 54.6434C88.8638 54.6767 88.9465 54.6767 89.0182 54.6434L89.7131 54.2425C89.7717 54.2425 89.7633 54.1506 89.7131 54.1172L89.0517 53.733C88.9809 53.6959 88.8964 53.6959 88.8256 53.733Z" fill="#3A2C6D"/>
<path d="M89.7883 53.1651L89.0934 53.566C89.0348 53.566 89.0431 53.6579 89.0934 53.6913L89.7548 54.0755C89.8236 54.1085 89.9037 54.1085 89.9725 54.0755L90.6757 53.6746C90.726 53.6746 90.726 53.5827 90.6757 53.5493L90.006 53.1651C89.9382 53.128 89.8561 53.128 89.7883 53.1651Z" fill="#3A2C6D"/>
<path d="M90.7762 52.5972L90.0729 52.9981C90.0227 52.9981 90.0311 53.09 90.0729 53.1234L90.7427 53.5076C90.8115 53.5406 90.8916 53.5406 90.9604 53.5076L91.6553 53.1067C91.7139 53.1067 91.7055 53.0148 91.6553 52.9814L90.9855 52.5972C90.92 52.5631 90.8418 52.5631 90.7762 52.5972Z" fill="#3A2C6D"/>
<path d="M91.7558 52.0292L91.0609 52.4301C91.0023 52.4301 91.0107 52.522 91.0609 52.5554L91.7307 52.9396C91.7985 52.9768 91.8806 52.9768 91.9484 52.9396L92.6433 52.5387C92.7019 52.5387 92.6935 52.4468 92.6433 52.4134L91.9819 52.0292C91.9111 51.9921 91.8266 51.9921 91.7558 52.0292Z" fill="#3A2C6D"/>
<path d="M92.7438 51.4613L92.0489 51.8622C91.9903 51.8622 91.9987 51.9541 92.0489 51.9875L92.7103 52.3717C92.7811 52.4088 92.8656 52.4088 92.9364 52.3717L93.6313 51.9708C93.6899 51.9708 93.6815 51.8789 93.6313 51.8455L92.9699 51.4613C92.8991 51.4242 92.8146 51.4242 92.7438 51.4613Z" fill="#3A2C6D"/>
<path d="M93.7316 50.8934L93.0367 51.2943C92.9781 51.2943 92.9865 51.3862 93.0367 51.4196L93.6981 51.8038C93.7689 51.8409 93.8534 51.8409 93.9242 51.8038L94.6191 51.4029C94.6693 51.4029 94.6693 51.311 94.6191 51.2776L93.9493 50.8934C93.8815 50.8563 93.7994 50.8563 93.7316 50.8934Z" fill="#3A2C6D"/>
<path d="M95.1885 50.0498L94.0248 50.7263C93.9662 50.7263 93.9745 50.8182 94.0248 50.8516L94.6946 51.2358C94.7623 51.273 94.8445 51.273 94.9122 51.2358L96.0844 50.5593C96.143 50.5593 96.1346 50.4758 96.0844 50.434L95.4229 50.0498C95.349 50.0139 95.2625 50.0139 95.1885 50.0498Z" fill="#3A2C6D"/>
<path d="M82.404 56.3138L81.7091 56.7147C81.6505 56.7147 81.6589 56.8066 81.7091 56.84L82.3705 57.2242C82.4413 57.2613 82.5258 57.2613 82.5966 57.2242L83.2915 56.8233C83.3501 56.8233 83.3417 56.7314 83.2915 56.698L82.63 56.3138C82.5584 56.2806 82.4757 56.2806 82.404 56.3138Z" fill="#3A2C6D"/>
<path d="M83.3918 55.7459L82.6969 56.1468C82.6383 56.1468 82.6466 56.2387 82.6969 56.2721L83.3583 56.6563C83.4291 56.6934 83.5136 56.6934 83.5844 56.6563L84.2793 56.2554C84.3379 56.2554 84.3295 56.1635 84.2793 56.1301L83.6178 55.7459C83.5471 55.7088 83.4625 55.7088 83.3918 55.7459Z" fill="#3A2C6D"/>
<path d="M84.3798 55.178L83.6849 55.5789C83.6263 55.5789 83.6347 55.6708 83.6849 55.7042L84.3463 56.0884C84.418 56.1216 84.5007 56.1216 84.5724 56.0884L85.2673 55.6875C85.3259 55.6875 85.3175 55.5956 85.2673 55.5622L84.6059 55.178C84.5351 55.1409 84.4506 55.1409 84.3798 55.178Z" fill="#3A2C6D"/>
<path d="M85.3679 54.61L84.673 55.0109C84.6143 55.0109 84.6227 55.0944 84.673 55.1362L85.3344 55.5204C85.406 55.5536 85.4888 55.5536 85.5604 55.5204L86.2553 55.1195C86.3139 55.1195 86.3056 55.0276 86.2553 54.9942L85.5939 54.61C85.5232 54.5729 85.4386 54.5729 85.3679 54.61Z" fill="#3A2C6D"/>
<path d="M86.3139 54.0421L85.619 54.443C85.5604 54.443 85.5688 54.5349 85.619 54.5683L86.2804 54.9525C86.3512 54.9896 86.4357 54.9896 86.5065 54.9525L87.2014 54.5516C87.26 54.5516 87.2516 54.4681 87.2014 54.4263L86.54 54.0421C86.4683 54.0088 86.3856 54.0088 86.3139 54.0421Z" fill="#3A2C6D"/>
<path d="M87.3351 53.4742L86.6402 53.8751C86.5816 53.8751 86.59 53.9669 86.6402 54.0003L87.3017 54.3845C87.3724 54.4217 87.457 54.4217 87.5277 54.3845L88.2226 53.9836C88.2812 53.9836 88.2729 53.8918 88.2226 53.8584L87.5612 53.4742C87.4895 53.4409 87.4068 53.4409 87.3351 53.4742Z" fill="#3A2C6D"/>
<path d="M88.3232 52.9062L87.6283 53.3071C87.5697 53.3071 87.578 53.399 87.6283 53.4324L88.2897 53.8166C88.3605 53.8537 88.445 53.8537 88.5157 53.8166L89.2107 53.4157C89.2693 53.4157 89.2609 53.3238 89.2107 53.2904L88.5492 52.9062C88.4785 52.8691 88.3939 52.8691 88.3232 52.9062Z" fill="#3A2C6D"/>
<path d="M89.3112 52.3383L88.6163 52.7392C88.5577 52.7392 88.5661 52.831 88.6163 52.8644L89.2777 53.2486C89.3494 53.2819 89.4321 53.2819 89.5038 53.2486L90.1987 52.8477C90.2573 52.8477 90.2489 52.7559 90.1987 52.7225L89.5373 52.3383C89.4665 52.3011 89.382 52.3011 89.3112 52.3383Z" fill="#3A2C6D"/>
<path d="M90.299 51.7703L89.6041 52.1712C89.5455 52.1712 89.5539 52.2548 89.6041 52.2965L90.2655 52.6807C90.3372 52.714 90.4199 52.714 90.4916 52.6807L91.1865 52.2798C91.2451 52.2798 91.2367 52.1879 91.1865 52.1545L90.5251 51.7703C90.4543 51.7332 90.3698 51.7332 90.299 51.7703Z" fill="#3A2C6D"/>
<path d="M91.2871 51.2024L90.5921 51.6033C90.5335 51.6033 90.5419 51.6868 90.5921 51.7286L91.2536 52.1128C91.3252 52.146 91.408 52.146 91.4796 52.1128L92.1745 51.7119C92.2331 51.7119 92.2248 51.62 92.1745 51.5866L91.5131 51.2024C91.4423 51.1653 91.3578 51.1653 91.2871 51.2024Z" fill="#3A2C6D"/>
<path d="M92.2748 50.6261L91.5799 51.0354C91.5213 51.0354 91.5297 51.1189 91.5799 51.1607L92.2414 51.5449C92.313 51.5781 92.3957 51.5781 92.4674 51.5449L93.1623 51.144C93.2209 51.144 93.2126 51.0521 93.1623 51.0103L92.5009 50.6345C92.4305 50.5986 92.3477 50.5955 92.2748 50.6261Z" fill="#3A2C6D"/>
<path d="M93.2629 50.0582L92.568 50.4591C92.5094 50.4591 92.5177 50.551 92.568 50.5927L93.2294 50.9769C93.3011 51.0102 93.3838 51.0102 93.4554 50.9769L94.1504 50.576C94.209 50.576 94.2006 50.4841 94.1504 50.4424L93.4806 50.0582C93.4118 50.0252 93.3317 50.0252 93.2629 50.0582Z" fill="#3A2C6D"/>
<path d="M81.4161 56.8818L80.2523 57.5583C80.1937 57.5583 80.2021 57.6502 80.2523 57.6836L80.9221 58.0678C80.9909 58.1008 81.071 58.1008 81.1398 58.0678L82.3119 57.3913C82.3705 57.3913 82.3621 57.3077 82.3119 57.266L81.6505 56.8818C81.5765 56.8459 81.4901 56.8459 81.4161 56.8818Z" fill="#3A2C6D"/>
<path d="M95.1466 50.0164L94.4517 50.4173C94.3858 50.4501 94.3083 50.4501 94.2424 50.4173L93.5391 50.0081C93.4805 50.0081 93.4805 49.9245 93.5391 49.8911H93.5893C93.6479 49.8911 93.6479 49.816 93.5893 49.7826L92.8525 49.3566C92.7939 49.3566 92.7939 49.2731 92.8525 49.2397L93.2963 48.9808C93.3589 48.9466 93.4346 48.9466 93.4972 48.9808L94.1921 49.3817L94.3345 49.4652L94.4433 49.5236L94.5438 49.5821L95.1466 49.9329C95.1578 49.9439 95.1642 49.9589 95.1642 49.9747C95.1642 49.9904 95.1578 50.0054 95.1466 50.0164Z" fill="#3A2C6D"/>
<path d="M78.0837 55.5037L77.3888 55.9046C77.3302 55.9046 77.3385 55.9965 77.3888 56.0299L78.0502 56.4141C78.118 56.4512 78.2001 56.4512 78.2679 56.4141L78.9712 56.0132C79.0214 56.0132 79.013 55.9213 78.9712 55.8879L78.3014 55.5037C78.2336 55.4665 78.1515 55.4665 78.0837 55.5037Z" fill="#3A2C6D"/>
<path d="M79.0634 54.9358L78.3685 55.3367C78.3099 55.3367 78.3183 55.4285 78.3685 55.462L79.0299 55.8461C79.1007 55.8833 79.1852 55.8833 79.256 55.8461L79.9509 55.4452C80.0095 55.4452 80.0011 55.3617 79.9509 55.32L79.2895 54.9358C79.2178 54.9025 79.1351 54.9025 79.0634 54.9358Z" fill="#3A2C6D"/>
<path d="M80.0514 54.3678L79.3481 54.7687C79.2978 54.7687 79.3062 54.8606 79.3481 54.9023L80.0179 55.2782C80.0867 55.3112 80.1668 55.3112 80.2356 55.2782L80.9305 54.8689C80.9891 54.8689 80.9807 54.7854 80.9305 54.7437L80.269 54.3595C80.199 54.3291 80.1189 54.3322 80.0514 54.3678Z" fill="#3A2C6D"/>
<path d="M88.4236 49.5487L87.7203 49.9496C87.6701 49.9496 87.6701 50.0415 87.7203 50.0749L88.3901 50.4591C88.4579 50.4962 88.54 50.4962 88.6078 50.4591L89.3027 50.0582C89.3613 50.0582 89.3529 49.9663 89.3027 49.9329L88.6413 49.5487C88.5725 49.5157 88.4924 49.5157 88.4236 49.5487Z" fill="#3A2C6D"/>
<path d="M89.4033 48.9808L88.7084 49.3817C88.6497 49.3817 88.6581 49.4736 88.7084 49.507L89.3698 49.8912C89.4405 49.9283 89.5251 49.9283 89.5958 49.8912L90.2907 49.4903C90.3493 49.4903 90.341 49.4068 90.2907 49.365L89.6209 48.9808C89.5522 48.9478 89.4721 48.9478 89.4033 48.9808Z" fill="#3A2C6D"/>
<path d="M90.3828 48.4129L89.6878 48.8138C89.6292 48.8138 89.6376 48.9056 89.6878 48.9474L90.3576 49.3232C90.4254 49.3604 90.5075 49.3604 90.5753 49.3232L91.2702 48.9223C91.3288 48.9223 91.3205 48.8305 91.2702 48.7887L90.6088 48.4045C90.5359 48.3739 90.4532 48.3769 90.3828 48.4129Z" fill="#3A2C6D"/>
<path d="M91.3373 47.8532L90.6424 48.2541C90.5838 48.2541 90.5922 48.3377 90.6424 48.3794L91.3039 48.7636C91.3726 48.7966 91.4527 48.7966 91.5215 48.7636L92.2248 48.3627C92.2751 48.3627 92.2751 48.2708 92.2248 48.2291L91.555 47.8532C91.4872 47.8161 91.4051 47.8161 91.3373 47.8532Z" fill="#3A2C6D"/>
<path d="M81.2904 53.6579L80.3443 54.2091C80.2857 54.2091 80.2941 54.2926 80.3443 54.3344L81.0058 54.7186C81.0774 54.7518 81.1602 54.7518 81.2318 54.7186L82.1779 54.1674C82.2365 54.1674 82.2281 54.0755 82.1779 54.0421L81.5165 53.6579C81.4448 53.6246 81.3621 53.6246 81.2904 53.6579Z" fill="#3A2C6D"/>
<path d="M87.4357 50.1167L86.4896 50.6595C86.431 50.6595 86.4394 50.7514 86.4896 50.7932L87.151 51.169C87.2188 51.2061 87.3009 51.2061 87.3687 51.169L88.3232 50.6261C88.3818 50.6261 88.3734 50.5343 88.3232 50.5008L87.6617 50.1167C87.591 50.0795 87.5064 50.0795 87.4357 50.1167Z" fill="#3A2C6D"/>
<path d="M86.205 50.8265L81.5751 53.4908C81.5164 53.4908 81.5248 53.5827 81.5751 53.6245L82.2448 54.0003C82.3126 54.0375 82.3947 54.0375 82.4625 54.0003L87.0924 51.336C87.1511 51.336 87.1427 51.2441 87.0924 51.2107L86.431 50.8265C86.3599 50.7908 86.2761 50.7908 86.205 50.8265Z" fill="#3A2C6D"/>
<path d="M81.7175 55.6123L81.0226 56.0132C80.964 56.0132 80.9723 56.0967 81.0226 56.1384L81.684 56.5226C81.7556 56.5559 81.8384 56.5559 81.91 56.5226L82.6049 56.1217C82.6635 56.1217 82.6552 56.0299 82.6049 55.9881L81.9435 55.6123C81.8728 55.5751 81.7882 55.5751 81.7175 55.6123Z" fill="#3A2C6D"/>
<path d="M82.7053 55.0443L82.0104 55.4452C81.9518 55.4452 81.9601 55.5288 82.0104 55.5705L82.6718 55.9547C82.7406 55.9877 82.8207 55.9877 82.8895 55.9547L83.5927 55.5538C83.643 55.5538 83.643 55.4619 83.5927 55.4285L82.9229 55.0443C82.8552 55.0072 82.773 55.0072 82.7053 55.0443Z" fill="#3A2C6D"/>
<path d="M83.6933 54.4931L82.9901 54.894C82.9398 54.894 82.9398 54.9858 82.9901 55.0192L83.6599 55.4034C83.7286 55.4364 83.8087 55.4364 83.8775 55.4034L84.5724 55.0025C84.6311 55.0025 84.6227 54.9107 84.5724 54.8773L83.911 54.4931C83.8432 54.4559 83.7611 54.4559 83.6933 54.4931Z" fill="#3A2C6D"/>
<path d="M84.6393 53.9085L83.9444 54.3094C83.8858 54.3094 83.8942 54.4012 83.9444 54.4346L84.6059 54.8188C84.6766 54.856 84.7612 54.856 84.8319 54.8188L85.5268 54.4179C85.5854 54.4179 85.5771 54.3261 85.5268 54.2927L84.8654 53.9085C84.7946 53.8713 84.7101 53.8713 84.6393 53.9085Z" fill="#3A2C6D"/>
<path d="M85.6608 53.3405L84.9659 53.7414C84.9073 53.7414 84.9157 53.8333 84.9659 53.8667L85.6273 54.2509C85.6951 54.2881 85.7772 54.2881 85.845 54.2509L86.5483 53.85C86.5985 53.85 86.5902 53.7581 86.5483 53.7247L85.8785 53.3405C85.8097 53.3075 85.7296 53.3075 85.6608 53.3405Z" fill="#3A2C6D"/>
<path d="M86.6403 52.7726L85.9454 53.1735C85.8868 53.1735 85.8952 53.2653 85.9454 53.2987L86.6152 53.6829C86.683 53.7201 86.7651 53.7201 86.8329 53.6829L87.5278 53.282C87.5864 53.282 87.578 53.1902 87.5278 53.1568L86.8664 52.7726C86.7947 52.7393 86.712 52.7393 86.6403 52.7726Z" fill="#3A2C6D"/>
<path d="M87.6284 52.2046L86.9335 52.6055C86.8748 52.6055 86.8832 52.6974 86.9335 52.7308L87.5949 53.115C87.6656 53.1521 87.7502 53.1521 87.8209 53.115L88.5158 52.7141C88.5744 52.7141 88.5661 52.6306 88.5158 52.5888L87.8544 52.2046C87.7828 52.1714 87.7 52.1714 87.6284 52.2046Z" fill="#3A2C6D"/>
<path d="M88.6163 51.6367L87.913 52.0376C87.8628 52.0376 87.8712 52.1295 87.913 52.1713L88.5828 52.5471C88.6506 52.5843 88.7327 52.5843 88.8005 52.5471L89.4954 52.1462C89.554 52.1462 89.5456 52.0627 89.4954 52.0209L88.8256 51.6367C88.7592 51.6064 88.6828 51.6064 88.6163 51.6367Z" fill="#3A2C6D"/>
<path d="M89.5959 51.0688L88.901 51.4697C88.8424 51.4697 88.8507 51.5615 88.901 51.6033L89.5624 51.9791C89.6341 52.0124 89.7168 52.0124 89.7885 51.9791L90.4834 51.5782C90.542 51.5782 90.5336 51.4864 90.4834 51.4446L89.8219 51.0604C89.7491 51.0298 89.6663 51.0328 89.5959 51.0688Z" fill="#3A2C6D"/>
<path d="M90.5837 50.5008L89.8888 50.9017C89.8302 50.9017 89.8385 50.9936 89.8888 51.0353L90.5502 51.4195C90.619 51.4525 90.6991 51.4525 90.7679 51.4195L91.4712 51.0186C91.5214 51.0186 91.5214 50.9268 91.4712 50.885L90.8014 50.5008C90.7326 50.4678 90.6525 50.4678 90.5837 50.5008Z" fill="#3A2C6D"/>
<path d="M91.5718 49.9329L90.8685 50.3338C90.8183 50.3338 90.8183 50.4257 90.8685 50.4674L91.5383 50.8516C91.6071 50.8846 91.6872 50.8846 91.756 50.8516L92.4509 50.4507C92.5095 50.4507 92.5011 50.3588 92.4509 50.3171L91.7894 49.9412C91.7219 49.9056 91.6418 49.9025 91.5718 49.9329Z" fill="#3A2C6D"/>
<path d="M92.5512 49.3733L91.8563 49.7742C91.7977 49.7742 91.8061 49.8577 91.8563 49.8995L92.5177 50.2837C92.5894 50.3169 92.6721 50.3169 92.7438 50.2837L93.4387 49.8828C93.4973 49.8828 93.4889 49.7909 93.4387 49.7491L92.7773 49.3733C92.7065 49.3362 92.622 49.3362 92.5512 49.3733Z" fill="#3A2C6D"/>
<path d="M80.7378 56.1635L79.2977 56.9987C79.2391 56.9987 79.2475 57.0905 79.2977 57.124L79.9591 57.5081C80.0279 57.5411 80.108 57.5411 80.1768 57.5081L81.6169 56.6729C81.6755 56.6729 81.6671 56.5811 81.6169 56.5393L80.9471 56.1635C80.8806 56.1331 80.8042 56.1331 80.7378 56.1635Z" fill="#3A2C6D"/>
<path d="M80.2773 55.3283L79.5824 55.7292C79.5238 55.7292 79.5321 55.8211 79.5824 55.8628L80.2522 56.247C80.321 56.28 80.4011 56.28 80.4699 56.247L81.1731 55.8461C81.2234 55.8461 81.215 55.7543 81.1731 55.7125L80.5033 55.3283C80.4322 55.2926 80.3484 55.2926 80.2773 55.3283Z" fill="#3A2C6D"/>
<path d="M81.2905 54.7687L80.5956 55.178C80.537 55.178 80.5453 55.2615 80.5956 55.3032L81.257 55.6874C81.3286 55.7207 81.4114 55.7207 81.483 55.6874L82.1277 55.3283C82.1863 55.3283 82.1779 55.2364 82.1277 55.1947L81.4663 54.8188C81.4154 54.7821 81.3532 54.7643 81.2905 54.7687Z" fill="#3A2C6D"/>
<path d="M82.2448 54.2091L81.5499 54.61C81.4913 54.61 81.4997 54.6935 81.5499 54.7353L82.2113 55.1195C82.283 55.1528 82.3657 55.1528 82.4374 55.1195L83.1323 54.7186C83.1909 54.7186 83.1825 54.6267 83.1323 54.5933L82.4625 54.2091C82.3947 54.172 82.3126 54.172 82.2448 54.2091Z" fill="#3A2C6D"/>
<path d="M83.2329 53.6579L82.5296 54.0588C82.4794 54.0588 82.4794 54.1423 82.5296 54.1841L83.1994 54.5683C83.2682 54.6013 83.3483 54.6013 83.4171 54.5683L84.112 54.1674C84.1706 54.1674 84.1622 54.0755 84.112 54.0421L83.4506 53.6579C83.3828 53.6208 83.3007 53.6208 83.2329 53.6579Z" fill="#3A2C6D"/>
<path d="M84.2123 53.0733L83.5174 53.4742C83.4588 53.4742 83.4672 53.566 83.5174 53.5994L84.1789 53.9836C84.2505 54.0169 84.3332 54.0169 84.4049 53.9836L85.0998 53.5827C85.1584 53.5827 85.1501 53.4909 85.0998 53.4574L84.4384 53.0733C84.3676 53.0361 84.2831 53.0361 84.2123 53.0733Z" fill="#3A2C6D"/>
<path d="M85.2004 52.5053L84.5055 52.9062C84.4469 52.9062 84.4552 52.9981 84.5055 53.0315L85.1669 53.4157C85.2347 53.4529 85.3168 53.4529 85.3846 53.4157L86.0879 53.0148C86.1381 53.0148 86.1297 52.9229 86.0879 52.8895L85.4181 52.5053C85.3503 52.4682 85.2682 52.4682 85.2004 52.5053Z" fill="#3A2C6D"/>
<path d="M86.1799 51.9374L85.485 52.3383C85.4264 52.3383 85.4347 52.4301 85.485 52.4635L86.1464 52.8477C86.2171 52.8849 86.3017 52.8849 86.3724 52.8477L87.0673 52.4468C87.126 52.4468 87.1176 52.355 87.0673 52.3216L86.4059 51.9374C86.3343 51.9041 86.2515 51.9041 86.1799 51.9374Z" fill="#3A2C6D"/>
<path d="M87.1511 51.3695L86.4562 51.7704C86.3976 51.7704 86.4059 51.8622 86.4562 51.8956L87.1176 52.2798C87.1883 52.317 87.2729 52.317 87.3436 52.2798L88.0385 51.8789C88.0971 51.8789 88.0888 51.7954 88.0385 51.7537L87.3687 51.3695C87.3 51.3365 87.2199 51.3365 87.1511 51.3695Z" fill="#3A2C6D"/>
<path d="M88.1557 50.8015L87.4525 51.2024C87.4022 51.2024 87.4022 51.2943 87.4525 51.3361L88.1223 51.7119C88.19 51.7491 88.2722 51.7491 88.3399 51.7119L89.0348 51.311C89.0935 51.311 89.0851 51.2275 89.0348 51.1857L88.3734 50.8015C88.3046 50.7685 88.2245 50.7685 88.1557 50.8015Z" fill="#3A2C6D"/>
<path d="M89.1352 50.2336L88.4403 50.6345C88.3817 50.6345 88.3901 50.7264 88.4403 50.7681L89.1017 51.144C89.1734 51.1772 89.2561 51.1772 89.3278 51.144L90.0227 50.7431C90.0813 50.7431 90.0729 50.6512 90.0227 50.6095L89.3613 50.2253C89.2884 50.1946 89.2056 50.1977 89.1352 50.2336Z" fill="#3A2C6D"/>
<path d="M90.1232 49.6656L89.4283 50.0665C89.3697 50.0665 89.3781 50.1584 89.4283 50.2001L90.0897 50.5843C90.1585 50.6173 90.2386 50.6173 90.3074 50.5843L91.0107 50.1834C91.0609 50.1834 91.0609 50.0916 91.0107 50.0498L90.3409 49.6656C90.2721 49.6326 90.192 49.6326 90.1232 49.6656Z" fill="#3A2C6D"/>
<path d="M92.3251 48.3962L90.4078 49.4819C90.3492 49.4819 90.3576 49.5654 90.4078 49.6072L91.0776 49.9914C91.1464 50.0244 91.2265 50.0244 91.2953 49.9914L93.2126 48.8889C93.2712 48.8889 93.2628 48.7971 93.2126 48.7553L92.5428 48.3795C92.4715 48.3516 92.3913 48.3578 92.3251 48.3962Z" fill="#3A2C6D"/>
<path d="M79.2894 55.9046L78.3434 56.4558C78.2848 56.4558 78.2931 56.5477 78.3434 56.5811L79.0048 56.9653C79.0736 56.9983 79.1537 56.9983 79.2225 56.9653L80.1769 56.4141C80.2355 56.4141 80.2271 56.3305 80.1769 56.2888L79.5155 55.9046C79.4438 55.8713 79.3611 55.8713 79.2894 55.9046Z" fill="#3A2C6D"/>
<path d="M96.1849 50.6178L82.1947 58.6691C82.1444 58.6691 82.1444 58.7526 82.1947 58.7944L82.5296 58.9864C82.5983 59.0194 82.6784 59.0194 82.7472 58.9864L96.7375 50.9351C96.7877 50.9351 96.7877 50.8433 96.7375 50.8015L96.4026 50.6094C96.3325 50.579 96.2524 50.5821 96.1849 50.6178Z" fill="#3A2C6D"/>
<path d="M79.8169 50.9769L79.909 51.0354L82.3286 52.4218L86.6236 49.9496L86.7074 49.8995L84.204 48.4546L79.8169 50.9769Z" fill="#BFBFBF"/>
<path d="M79.9089 51.0354L82.3286 52.4218L86.6236 49.9496L84.204 48.5548L79.9089 51.0354Z" fill="#E5E5E5"/>
<path d="M72.918 54.2259V54.443C72.9094 54.7598 73.0813 55.0542 73.3618 55.203L81.8765 60.1057C82.0106 60.1851 82.1643 60.2256 82.3202 60.2226C82.4733 60.2241 82.6239 60.1836 82.7556 60.1057L98.1691 51.2359C98.4372 51.0756 98.6022 50.7876 98.6045 50.4758V50.2587L82.3202 59.638L72.918 54.2259Z" fill="#E5E5E5"/>
<path d="M82.5713 59.7715C82.8678 59.8838 83.1989 59.8593 83.4755 59.7047L98.8137 50.8683C99.0822 50.7122 99.2688 50.4467 99.3244 50.1417L100.999 40.1193C101.003 40.0637 101.003 40.0079 100.999 39.9523C101.002 39.6726 100.89 39.4038 100.689 39.2089L84.7816 48.3961C84.5833 48.5104 84.4455 48.7059 84.4048 48.9306L82.5713 59.7715Z" fill="#F4F4F4"/>
<path d="M82.3286 59.6463L82.4291 59.7047L82.5714 59.7716L84.3882 48.9557C84.4289 48.731 84.5667 48.5354 84.765 48.4212L100.672 39.234C100.61 39.172 100.54 39.1187 100.463 39.0753L84.4887 48.2625C84.2876 48.3777 84.1492 48.5771 84.1119 48.8054L82.3286 59.6463Z" fill="#E5E5E5"/>
<path d="M70.7413 16.9091C70.7413 16.9091 70.9422 20.7176 70.8585 21.0851C70.7748 21.4526 69.1087 22.5384 68.6231 22.9393C68.1375 23.3402 71.252 26.4053 72.8093 27.1153C74.3665 27.8252 79.1304 25.9794 79.2141 23.6241C79.2979 21.2689 78.3769 19.2894 77.6569 19.1892C76.9369 19.089 70.7413 16.9091 70.7413 16.9091Z" fill="#FFCEA9"/>
<path d="M70.3143 21.6781C70.3143 21.6781 73.0855 25.7873 76.9452 26.1715C78.1592 24.9772 78.268 20.7176 76.5852 19.3563C76.5852 19.3563 78.1341 18.1118 79.189 18.354C80.3294 19.0394 81.1783 20.1181 81.5751 21.3858C82.563 24.2134 83.0338 27.1951 82.9649 30.1888C82.898 34.2228 82.9649 44.3872 82.9649 44.3872C82.509 46.8267 81.0279 48.9548 78.896 50.2336C76.1147 51.8007 72.8394 52.2516 69.7366 51.4947C68.1752 51.1629 66.9034 50.037 66.3876 48.5298C66.5635 45.7068 67.6854 39.8855 67.2249 36.3275C66.7644 32.7696 66.0025 30.122 65.81 27.2489C65.6174 24.3758 66.1867 24.4259 67.6351 23.407C68.487 22.7695 69.3822 22.1918 70.3143 21.6781Z" fill="#F4F4F4"/>
<path d="M74.7518 54.443C74.0583 53.9863 73.3369 53.5734 72.5917 53.2069C71.8882 52.99 71.2496 52.6026 70.733 52.0793C70.0549 51.4195 68.9413 48.9139 68.1543 46.4668C67.3575 43.7126 67.0403 40.8424 67.2166 37.9812C67.5515 34.5569 68.7906 29.7545 69.1088 27.7834C69.4269 25.8123 68.7823 25.0272 67.8613 24.3006C66.7813 23.4654 65.291 23.8245 64.5123 26.5891C63.488 30.409 62.8927 34.3307 62.7374 38.2818C62.7032 41.22 63.1558 44.1436 64.077 46.9345C64.9025 49.322 66.0128 51.6017 67.3841 53.7247C67.7692 54.3678 67.8864 54.9357 68.4641 56.2303C69.0223 57.5277 69.8835 58.6732 70.9758 59.5711C71.947 60.2726 72.3991 60.3645 72.6503 60.2309C72.9015 60.0973 72.8847 59.7548 72.4745 59.3957C71.7875 58.8618 71.2031 58.2081 70.7498 57.4664C70.7498 57.4664 71.587 58.3016 72.1479 58.7776C72.6396 59.1885 73.1828 59.5339 73.7638 59.8049C74.3331 60.0555 75.1201 59.5794 74.7183 59.1952C74.3164 58.811 73.881 58.6273 73.1024 57.9341C72.6701 57.5655 72.2824 57.1478 71.947 56.6896C72.518 57.119 73.1228 57.5016 73.7554 57.8339C74.2572 58.144 74.8401 58.2981 75.4299 58.2765C75.7229 58.2765 76.0913 57.8506 75.5304 57.4413C74.7585 57.0471 74.0385 56.559 73.3871 55.9881C72.7675 55.37 72.4159 54.8522 72.5917 54.8438C72.7675 54.8355 73.1024 55.2113 73.8224 55.4452C74.5424 55.679 75.3294 55.4452 75.4215 55.0694C75.5136 54.6935 75.4299 54.777 74.7518 54.443Z" fill="#FFCEA9"/>
<path d="M79.3734 11.2131C78.9129 8.25646 76.7863 6.02648 73.7304 6.20187C71.1974 6.31359 69.0236 8.03756 68.3434 10.4742C67.6632 12.9108 68.6309 15.5075 70.7415 16.9091C70.8507 17.3573 71.0108 17.7917 71.2187 18.2037C72.2987 19.4648 75.5556 20.2416 76.4933 20.1079C77.6357 20.003 78.5998 19.2164 78.9296 18.1202C79.9343 15.7649 79.6162 12.6663 79.3734 11.2131Z" fill="#FFCEA9"/>
<path d="M70.7414 16.9091L71.0261 14.3367C71.0261 14.3367 68.9163 8.89119 73.8978 9.93519C77.1882 10.6284 78.0087 10.9291 79.0133 8.72415C80.018 6.51922 76.5016 4.54815 72.3154 5.09103C69.3306 5.40645 67.0815 7.94367 67.1329 10.9374C67.2167 12.541 67.652 15.8233 70.7414 16.9091Z" fill="#3A2C6D"/>
<path d="M62.2183 31.6587C62.2183 31.6587 64.9309 34.3564 68.1543 33.5797C68.6148 33.2706 69.7115 26.9649 69.7115 26.9649C69.7115 26.9649 69.7115 23.4654 67.0324 23.5573C64.3532 23.6491 62.2183 31.6587 62.2183 31.6587Z" fill="#EDEDED"/>
<path d="M82.7472 26.4304C83.5079 26.3968 84.2269 26.074 84.7566 25.5284C84.6478 24.1169 82.8393 18.7549 79.189 18.354C80.1854 19.0439 80.9754 19.9907 81.4746 21.0935C82.036 22.8371 82.4615 24.6214 82.7472 26.4304Z" fill="#EDEDED"/>
</svg>
