<svg width="400" height="246" viewBox="0 0 400 246" fill="none" xmlns="http://www.w3.org/2000/svg">
<mask id="mask0" style="mask-type:alpha" maskUnits="userSpaceOnUse" x="310" y="209" width="14" height="14">
<path fill-rule="evenodd" clip-rule="evenodd" d="M319.286 209.518L310.304 213.33L314.189 222.485L323.172 218.672L319.286 209.518Z" fill="white"/>
</mask>
<g mask="url(#mask0)">
<path fill-rule="evenodd" clip-rule="evenodd" d="M312.469 218.364C313.789 220.771 316.771 221.665 319.129 220.36C321.487 219.054 322.328 216.045 321.007 213.637C319.686 211.23 316.704 210.337 314.347 211.643C311.989 212.948 311.148 215.957 312.469 218.364Z" fill="#E4E6EF"/>
</g>
<path fill-rule="evenodd" clip-rule="evenodd" d="M276.506 213.851C277.834 216.271 280.838 217.167 283.215 215.851C285.593 214.536 286.443 211.507 285.115 209.087C283.786 206.668 280.782 205.772 278.405 207.087C276.028 208.402 275.178 211.431 276.506 213.851Z" fill="#E4E6EF"/>
<path fill-rule="evenodd" clip-rule="evenodd" d="M334.246 187.367C335.574 189.787 338.579 190.682 340.956 189.367C343.333 188.051 344.184 185.023 342.855 182.603C341.526 180.183 338.522 179.288 336.145 180.603C333.768 181.918 332.917 184.947 334.246 187.367Z" fill="#E4E6EF"/>
<mask id="mask1" style="mask-type:alpha" maskUnits="userSpaceOnUse" x="253" y="225" width="15" height="15">
<path fill-rule="evenodd" clip-rule="evenodd" d="M262.961 225.558L253.159 229.718L257.352 239.595L267.153 235.435L262.961 225.558Z" fill="white"/>
</mask>
<g mask="url(#mask1)">
<path fill-rule="evenodd" clip-rule="evenodd" d="M255.495 235.15C256.924 237.746 260.167 238.697 262.742 237.276C265.316 235.855 266.245 232.599 264.817 230.003C263.389 227.407 260.145 226.455 257.571 227.876C254.997 229.298 254.068 232.554 255.495 235.15Z" fill="#E4E6EF"/>
</g>
<path fill-rule="evenodd" clip-rule="evenodd" d="M316.844 216.42L316.924 216.302L338.123 185.123L337.729 184.84L316.61 215.903L279.965 211.429L279.885 211.509L259.064 232.337L259.401 232.687L280.143 211.939L316.844 216.42Z" fill="#E4E6EF"/>
<path fill-rule="evenodd" clip-rule="evenodd" d="M86.964 54L64.6021 122H78.1217L100.486 54H86.964Z" fill="#CED0DB"/>
<mask id="mask2" style="mask-type:alpha" maskUnits="userSpaceOnUse" x="30" y="62" width="27" height="55">
<path fill-rule="evenodd" clip-rule="evenodd" d="M30 62.1282H56.3823V116.35H30V62.1282Z" fill="white"/>
</mask>
<g mask="url(#mask2)">
<path fill-rule="evenodd" clip-rule="evenodd" d="M55.0829 62.1282H40.4938H31.2989C30.5811 62.1282 29.9995 62.6998 29.9995 63.4053V72.4426V106.035V115.073C29.9995 115.778 30.5811 116.35 31.2989 116.35H40.4938H55.0829C55.8006 116.35 56.3822 115.778 56.3822 115.073V107.313C56.3822 106.607 55.8006 106.035 55.0829 106.035H40.4938V72.4426H55.0829C55.8006 72.4426 56.3822 71.871 56.3822 71.1676V63.4053C56.3822 62.6998 55.8006 62.1282 55.0829 62.1282Z" fill="#E4E6EF"/>
</g>
<mask id="mask3" style="mask-type:alpha" maskUnits="userSpaceOnUse" x="109" y="62" width="27" height="55">
<path fill-rule="evenodd" clip-rule="evenodd" d="M109.618 62.1282H136V116.35H109.618V62.1282Z" fill="white"/>
</mask>
<g mask="url(#mask3)">
<path fill-rule="evenodd" clip-rule="evenodd" d="M134.702 62.1282H125.507H110.918C110.2 62.1282 109.618 62.6998 109.618 63.4053V71.1676C109.618 71.871 110.2 72.4426 110.918 72.4426H125.507V106.035H110.918C110.2 106.035 109.618 106.607 109.618 107.313V115.073C109.618 115.778 110.2 116.35 110.918 116.35H125.507H134.702C135.419 116.35 136.001 115.778 136.001 115.073V107.313V71.1676V63.4053C136.001 62.6998 135.419 62.1282 134.702 62.1282Z" fill="#E4E6EF"/>
</g>
<mask id="mask4" style="mask-type:alpha" maskUnits="userSpaceOnUse" x="120" y="18" width="171" height="22">
<path fill-rule="evenodd" clip-rule="evenodd" d="M120 18H291V39.2308H120V18Z" fill="white"/>
</mask>
<g mask="url(#mask4)">
<path fill-rule="evenodd" clip-rule="evenodd" d="M291 39.2307H120V23.9874C120 20.6808 122.695 17.9999 126.019 17.9999H284.982C288.306 17.9999 291 20.6808 291 23.9874V39.2307Z" fill="#393D65"/>
</g>
<mask id="mask5" style="mask-type:alpha" maskUnits="userSpaceOnUse" x="120" y="37" width="171" height="149">
<path fill-rule="evenodd" clip-rule="evenodd" d="M120 37.4453H291V186H120V37.4453Z" fill="white"/>
</mask>
<g mask="url(#mask5)">
<path fill-rule="evenodd" clip-rule="evenodd" d="M284.982 186H126.019C122.695 186 120 183.319 120 180.012V37.4453H291V180.012C291 183.319 288.306 186 284.982 186Z" fill="#CED7EC"/>
</g>
<path fill-rule="evenodd" clip-rule="evenodd" d="M133.897 27.8802C133.897 29.9554 132.205 31.6379 130.119 31.6379C128.033 31.6379 126.342 29.9554 126.342 27.8802C126.342 25.8051 128.033 24.1226 130.119 24.1226C132.205 24.1226 133.897 25.8051 133.897 27.8802Z" fill="#A3B5D6"/>
<path fill-rule="evenodd" clip-rule="evenodd" d="M148.002 27.8802C148.002 29.9554 146.311 31.6379 144.225 31.6379C142.139 31.6379 140.448 29.9554 140.448 27.8802C140.448 25.8051 142.139 24.1226 144.225 24.1226C146.311 24.1226 148.002 25.8051 148.002 27.8802Z" fill="#CED7EC"/>
<path fill-rule="evenodd" clip-rule="evenodd" d="M162.108 27.8802C162.108 29.9554 160.417 31.6379 158.331 31.6379C156.245 31.6379 154.554 29.9554 154.554 27.8802C154.554 25.8051 156.245 24.1226 158.331 24.1226C160.417 24.1226 162.108 25.8051 162.108 27.8802Z" fill="#E2E7F2"/>
<path fill-rule="evenodd" clip-rule="evenodd" d="M138.482 165.793C137.445 165.793 136.604 164.957 136.604 163.926V55.7001C136.604 54.6692 137.445 53.8333 138.482 53.8333H274.387C275.424 53.8333 276.265 54.6692 276.265 55.7001V163.926C276.265 164.957 275.424 165.793 274.387 165.793H138.482Z" fill="white"/>
<path fill-rule="evenodd" clip-rule="evenodd" d="M229.81 116.662C221.655 116.662 215.028 110.042 215.028 101.854C215 93.7196 221.605 87.1023 229.783 87.0742C229.792 87.0742 229.801 87.0742 229.81 87.0742C237.962 87.0742 244.589 93.6941 244.589 101.877C244.574 110.042 237.962 116.657 229.81 116.662ZM266.591 96.7046C266.303 95.0912 264.751 93.4407 263.129 93.0859L261.92 92.8092C258.983 91.9233 256.497 89.9564 254.969 87.3092C253.424 84.6352 252.967 81.4751 253.69 78.476L254.069 77.3421C254.556 75.7699 253.926 73.5987 252.661 72.5247C252.661 72.5247 251.525 71.5657 248.337 69.7215C245.135 67.8868 243.763 67.3749 243.763 67.3749C242.206 66.8033 240.028 67.3519 238.888 68.5597L238.05 69.4588C235.834 71.5679 232.882 72.7395 229.815 72.7275C226.731 72.736 223.765 71.5544 221.539 69.4311L220.732 68.5552C219.611 67.3474 217.419 66.8126 215.857 67.3749C215.857 67.3749 214.467 67.8868 211.27 69.7215C208.068 71.5794 206.941 72.5384 206.941 72.5384C205.681 73.6032 205.051 75.7517 205.537 77.3421L205.885 78.49C206.6 81.4848 206.142 84.6377 204.606 87.3092C203.08 89.9781 200.573 91.9543 197.613 92.8229L196.45 93.0859C194.856 93.4546 193.285 95.082 192.988 96.7046C192.988 96.7046 192.724 98.1616 192.724 101.859C192.724 105.556 192.988 107.008 192.988 107.008C193.276 108.641 194.828 110.272 196.45 110.627L197.585 110.89C200.551 111.762 203.063 113.744 204.587 116.422C206.181 119.202 206.566 122.365 205.866 125.255L205.537 126.376C205.051 127.948 205.681 130.119 206.946 131.193C206.946 131.193 208.081 132.152 211.27 133.996C214.472 135.84 215.848 136.343 215.848 136.343C217.4 136.914 219.583 136.366 220.723 135.158L221.52 134.301C226.154 129.889 233.457 129.893 238.087 134.31L238.884 135.172C240.005 136.375 242.197 136.914 243.759 136.352C243.759 136.352 245.149 135.84 248.351 134.006C251.549 132.161 252.67 131.203 252.67 131.203C253.935 130.142 254.566 127.975 254.079 126.385L253.731 125.223C253.013 122.239 253.471 119.095 255.01 116.436C256.544 113.766 259.051 111.785 262.012 110.904L263.152 110.641C264.746 110.272 266.317 108.645 266.614 107.022C266.614 107.022 266.878 105.565 266.878 101.873C266.85 98.1708 266.591 96.7046 266.591 96.7046Z" fill="#A3B5D6"/>
<path fill-rule="evenodd" clip-rule="evenodd" d="M178.694 135.373C175.063 137.426 170.428 136.148 168.345 132.503C166.263 128.888 167.52 124.279 171.153 122.207L171.165 122.2C174.794 120.148 179.429 121.426 181.511 125.069C183.582 128.707 182.322 133.318 178.694 135.373ZM189.99 117.226C189.451 116.58 188.341 116.236 187.528 116.486L186.919 116.667C185.387 117.013 183.779 116.763 182.425 115.97C181.058 115.168 180.05 113.876 179.608 112.359L179.489 111.759C179.306 110.936 178.472 110.128 177.636 109.969C177.636 109.969 176.887 109.828 174.998 109.81C173.106 109.799 172.365 109.917 172.365 109.917C171.526 110.054 170.696 110.847 170.496 111.672L170.351 112.283C169.901 113.78 168.885 115.045 167.517 115.812C166.146 116.593 164.525 116.814 162.994 116.429L162.412 116.242C161.605 115.987 160.494 116.301 159.942 116.944C159.942 116.944 159.453 117.522 158.496 119.144C157.543 120.778 157.286 121.488 157.286 121.488C156.996 122.28 157.262 123.395 157.883 123.98L158.33 124.404C159.41 125.557 160.009 127.076 160.005 128.652C160.004 130.225 159.391 131.736 158.294 132.868L157.843 133.278C157.227 133.843 156.942 134.964 157.223 135.761C157.223 135.761 157.476 136.476 158.417 138.122C159.358 139.768 159.845 140.348 159.845 140.348C160.388 141.002 161.494 141.338 162.307 141.087L162.879 140.918C164.421 140.559 166.044 140.809 167.404 141.618C168.821 142.454 169.797 143.765 170.221 145.228L170.359 145.81C170.543 146.632 171.376 147.44 172.212 147.6C172.212 147.6 172.962 147.741 174.851 147.758C176.745 147.773 177.486 147.65 177.486 147.65C178.322 147.514 179.154 146.72 179.355 145.895L179.491 145.313C180.432 142.182 183.684 140.344 186.869 141.145L187.443 141.328C188.249 141.581 189.362 141.269 189.913 140.626C189.913 140.626 190.402 140.048 191.361 138.424C192.315 136.798 192.57 136.089 192.57 136.089C192.864 135.298 192.593 134.175 191.972 133.59L191.521 133.16C190.443 132.012 189.847 130.497 189.855 128.926C189.858 127.351 190.471 125.838 191.565 124.7L192.005 124.296C192.621 123.73 192.906 122.61 192.626 121.813C192.626 121.813 192.373 121.098 191.433 119.454C190.478 117.813 189.99 117.226 189.99 117.226Z" fill="#CED7EC"/>
<path fill-rule="evenodd" clip-rule="evenodd" d="M172.594 73.0143H151.809C150.451 73.0143 149.34 71.9091 149.34 70.5585V70.3524C149.34 69.0014 150.451 67.8962 151.809 67.8962H172.594C173.952 67.8962 175.063 69.0014 175.063 70.3524V70.5585C175.063 71.9091 173.952 73.0143 172.594 73.0143Z" fill="#A3B5D6"/>
<path fill-rule="evenodd" clip-rule="evenodd" d="M166.78 84.9894H153.919C152.498 84.9894 151.347 83.8438 151.347 82.4305C151.347 81.0172 152.498 79.8713 153.919 79.8713H166.78C168.201 79.8713 169.352 81.0172 169.352 82.4305C169.352 83.8438 168.201 84.9894 166.78 84.9894Z" fill="#A3B5D6"/>
</svg>
